<?xml version="1.0" encoding="utf-8"?>
<!-- Generator: Adobe Illustrator 16.0.0, SVG Export Plug-In . SVG Version: 6.00 Build 0)  -->
<!DOCTYPE svg PUBLIC "-//W3C//DTD SVG 1.1//EN" "http://www.w3.org/Graphics/SVG/1.1/DTD/svg11.dtd">
<svg version="1.1" id="圖層_1" xmlns="http://www.w3.org/2000/svg" xmlns:xlink="http://www.w3.org/1999/xlink" x="0px" y="0px"
	 width="34px" height="32px" viewBox="0 0 34 32" enable-background="new 0 0 34 32" xml:space="preserve">
<path fill="#3588BB" d="M31.854,4.595l-0.769,1.063L29.583,4.61l0.768-1.063c0.111-0.153,0.328-0.188,0.483-0.081l0.938,0.653
	C31.928,4.229,31.965,4.441,31.854,4.595z M0.999,13.999c0.393,0.385,1.079,0.385,1.472,0L7.98,8.593l5.509,5.406
	c0.196,0.192,0.458,0.299,0.736,0.299c0.277,0,0.539-0.106,0.735-0.299c0.406-0.398,0.406-1.046,0-1.444L9.452,7.148l5.509-5.406
	c0.406-0.398,0.406-1.046,0-1.444c-0.406-0.398-1.066-0.398-1.472,0L7.98,5.704L2.471,0.299C2.064-0.1,1.405-0.1,0.999,0.299
	c-0.406,0.398-0.406,1.046,0,1.444l5.508,5.406l-5.508,5.406C0.593,12.953,0.593,13.6,0.999,13.999z M29.881,7.323l-11.29,15.61
	l-1.504-1.047l11.29-15.609L29.881,7.323z M17.058,24.369l-1.323,0.95l0.477-1.539L17.058,24.369z M33.965,3.998
	c-0.108-0.627-0.46-1.176-0.987-1.544L32.04,1.801c-1.093-0.76-2.611-0.506-3.387,0.565L14.789,21.535
	c-0.065,0.089-0.115,0.188-0.148,0.295l-1.807,5.825c-0.131,0.422,0.027,0.876,0.393,1.13c0.177,0.124,0.385,0.189,0.603,0.189
	c0.223,0,0.435-0.068,0.615-0.197l5.009-3.598c0.091-0.064,0.169-0.144,0.232-0.232L33.552,5.776
	C33.927,5.258,34.073,4.626,33.965,3.998z M12.285,28.72l-0.197-0.382l-0.335,0.274c-1.058,0.867-2.399,1.345-3.773,1.345
	c-3.252,0-5.898-2.596-5.898-5.787s2.646-5.787,5.898-5.787c2.271,0,4.366,1.312,5.337,3.341l0.397,0.752l0.264-0.845
	c0.055-0.176,0.137-0.341,0.246-0.489l0.651-0.901l-0.122-0.192c-1.473-2.321-4.004-3.708-6.772-3.708C3.58,16.34,0,19.853,0,24.17
	S3.58,32,7.979,32c1.919,0,3.778-0.687,5.235-1.934l0.409-0.352l-0.497-0.217C12.761,29.339,12.461,29.062,12.285,28.72z"/>
</svg>
