<?xml version="1.0" encoding="utf-8"?>
<!-- Generator: Adobe Illustrator 16.0.0, SVG Export Plug-In . SVG Version: 6.00 Build 0)  -->
<!DOCTYPE svg PUBLIC "-//W3C//DTD SVG 1.1//EN" "http://www.w3.org/Graphics/SVG/1.1/DTD/svg11.dtd">
<svg version="1.1" id="圖層_1" xmlns="http://www.w3.org/2000/svg" xmlns:xlink="http://www.w3.org/1999/xlink" x="0px" y="0px"
	 width="28px" height="36px" viewBox="0 0 28 36" enable-background="new 0 0 28 36" xml:space="preserve">
<path fill="#3588BB" d="M17.57,8.677h5.674v2.341H17.57V8.677z M18.561,13.519h4.684v-2.341h-4.684V13.519z M12.064,11.019
	l0.904,1.583l-0.904,1.584h-1.809l-0.904-1.584l0.904-1.583H12.064z M18.561,16.018h4.684v-2.341h-4.684V16.018z M12.064,16.526
	l0.884,1.546l-0.925,1.62h-1.767L9.351,18.11l0.904-1.584H12.064z M14.933,22.447l-0.885-1.548l0.926-1.619h1.768l0.903,1.583
	l-0.903,1.584H14.933z M8.919,22.034h3.104l1.572,2.754h4.482l2.24-3.925l-2.24-3.924h-3.104l-0.905-1.584l1.574-2.754L13.4,8.678
	H8.919l-2.242,3.923l1.574,2.754L6.677,18.11L8.919,22.034z M25.685,29.288H5.583V2.34h20.101V29.288z M3.268,2.672v26.616
	c-0.309,0.006-0.611,0.053-0.903,0.142V4.362C2.364,3.668,2.719,3.039,3.268,2.672z M3.318,31.629H28V0H4.364
	C1.985,0,0.049,1.957,0.049,4.362l0.01,27.687C0.023,32.243,0,32.441,0,32.644C0,34.494,1.489,36,3.318,36h24.633v-2.341H3.318
	c-0.451,0-0.833-0.304-0.954-0.76v-0.554C2.494,31.921,2.878,31.629,3.318,31.629z"/>
</svg>
