<?xml version="1.0" encoding="utf-8"?>
<!-- Generator: Adobe Illustrator 16.0.0, SVG Export Plug-In . SVG Version: 6.00 Build 0)  -->
<!DOCTYPE svg PUBLIC "-//W3C//DTD SVG 1.1//EN" "http://www.w3.org/Graphics/SVG/1.1/DTD/svg11.dtd">
<svg version="1.1" id="圖層_1" xmlns="http://www.w3.org/2000/svg" xmlns:xlink="http://www.w3.org/1999/xlink" x="0px" y="0px"
	 width="26px" height="34px" viewBox="0 0 26 34" enable-background="new 0 0 26 34" xml:space="preserve">
<path fill="#3588BB" d="M13,2c0.527,0,1.014,0.255,1.323,0.667h-2.646C11.986,2.255,12.473,2,13,2z M17.333,5.667
	c0,0.551-0.448,1-1,1H9.667c-0.551,0-1-0.449-1-1v-1h8.667V5.667z M10.667,12H22v2H10.667V12z M5.626,15.041
	c0.188,0.188,0.44,0.292,0.707,0.292c0.267,0,0.518-0.104,0.707-0.292l2.667-2.667c0.39-0.39,0.39-1.024,0-1.414
	c-0.389-0.389-1.025-0.389-1.414,0l-1.959,1.959l-0.626-0.626c-0.389-0.389-1.025-0.389-1.414,0c-0.39,0.39-0.39,1.024,0,1.414
	L5.626,15.041z M10.667,18.667H22v2H10.667V18.667z M5.626,21.707C5.815,21.896,6.066,22,6.333,22c0.267,0,0.518-0.104,0.707-0.293
	l2.667-2.667c0.39-0.39,0.39-1.023,0-1.414c-0.389-0.389-1.025-0.389-1.414,0l-1.959,1.96L5.707,18.96
	c-0.389-0.39-1.025-0.39-1.414,0c-0.39,0.39-0.39,1.023,0,1.414L5.626,21.707z M10.667,25.333H22v2H10.667V25.333z M5.626,28.374
	c0.188,0.188,0.44,0.292,0.707,0.292c0.267,0,0.518-0.104,0.707-0.292l2.667-2.667c0.39-0.39,0.39-1.024,0-1.414
	c-0.389-0.39-1.025-0.39-1.414,0l-1.959,1.959l-0.626-0.626c-0.389-0.389-1.025-0.389-1.414,0c-0.39,0.391-0.39,1.024,0,1.414
	L5.626,28.374z M2,5c0-0.183,0.15-0.333,0.333-0.333h4.333v1c0,1.654,1.346,3,3,3h6.667c1.654,0,3-1.346,3-3v-1h4.334
	C23.85,4.667,24,4.817,24,5v26.667C24,31.85,23.85,32,23.667,32H2.333C2.15,32,2,31.85,2,31.667V5z M23.667,2.667h-7.14
	C16.085,1.106,14.644,0,13,0c-1.643,0-3.085,1.106-3.527,2.667H2.333C1.047,2.667,0,3.713,0,5v26.667C0,32.953,1.047,34,2.333,34
	h21.333C24.953,34,26,32.953,26,31.667V5C26,3.713,24.953,2.667,23.667,2.667z"/>
</svg>
