<?xml version="1.0" encoding="utf-8"?>
<!-- Generator: Adobe Illustrator 16.0.0, SVG Export Plug-In . SVG Version: 6.00 Build 0)  -->
<!DOCTYPE svg PUBLIC "-//W3C//DTD SVG 1.1//EN" "http://www.w3.org/Graphics/SVG/1.1/DTD/svg11.dtd">
<svg version="1.1" id="圖層_1" xmlns="http://www.w3.org/2000/svg" xmlns:xlink="http://www.w3.org/1999/xlink" x="0px" y="0px"
	 width="35px" height="33px" viewBox="0 0 35 33" enable-background="new 0 0 35 33" xml:space="preserve">
<path fill="#3588BB" d="M6.045,5.142h20.356v8.568h-8.156l-3.604-3.649H6.045V5.142z M8.154,2.1h21.494v11.61h-1.139V3.041H8.154
	V2.1z M9.03,23.95v1.479c0,0.579,0.473,1.05,1.054,1.05s1.054-0.471,1.054-1.05V23.95h1.484c0.582,0,1.054-0.472,1.054-1.05
	c0-0.579-0.472-1.051-1.054-1.051h-1.484v-1.479c0-0.579-0.473-1.05-1.054-1.05s-1.054,0.471-1.054,1.05v1.479H7.547
	c-0.582,0-1.054,0.472-1.054,1.051c0,0.578,0.472,1.05,1.054,1.05H9.03z M5.667,22.9c0-2.427,1.982-4.401,4.417-4.401
	c2.435,0,4.417,1.975,4.417,4.401c0,2.426-1.982,4.401-4.417,4.401C7.649,27.302,5.667,25.326,5.667,22.9z M10.084,29.401
	c3.597,0,6.525-2.917,6.525-6.501c0-3.585-2.928-6.501-6.525-6.501c-3.597,0-6.524,2.916-6.524,6.501
	C3.56,26.484,6.487,29.401,10.084,29.401z M6.045,12.163v-0.001h7.712l3.606,3.648h15.528v15.09H2.106V12.161L6.045,12.163z
	 M6.045,0v3.041H3.938v7.02H0V33h35V13.71h-3.244V0H6.045z"/>
</svg>
