<?xml version="1.0" encoding="utf-8"?>
<!-- Generator: Adobe Illustrator 16.0.0, SVG Export Plug-In . SVG Version: 6.00 Build 0)  -->
<!DOCTYPE svg PUBLIC "-//W3C//DTD SVG 1.1//EN" "http://www.w3.org/Graphics/SVG/1.1/DTD/svg11.dtd">
<svg version="1.1" id="圖層_1" xmlns="http://www.w3.org/2000/svg" xmlns:xlink="http://www.w3.org/1999/xlink" x="0px" y="0px"
	 width="45px" height="34px" viewBox="0 0 45 34" enable-background="new 0 0 45 34" xml:space="preserve">
<path fill="#3588BB" d="M3.248,7.525c0.217,0.3,0.558,0.46,0.903,0.46c0.224,0,0.45-0.066,0.646-0.205
	C5.296,7.427,5.411,6.74,5.054,6.246L4.992,6.159l1.226-1.215l2.047,1.439c0.358,0.251,0.832,0.271,1.208,0.049
	c0.684-0.402,1.426-0.705,2.207-0.902c0.595-0.15,0.954-0.749,0.802-1.337c-0.152-0.589-0.757-0.945-1.35-0.794
	c-0.747,0.188-1.466,0.455-2.148,0.793L6.738,2.612C6.296,2.302,5.694,2.353,5.31,2.732l-2.554,2.53
	c-0.384,0.38-0.434,0.98-0.118,1.418L3.248,7.525z M9.418,10.132c-0.542-0.282-1.214-0.078-1.5,0.46
	c-0.593,1.115-0.848,2.371-0.735,3.631c0.155,1.744,0.987,3.323,2.341,4.447c1.201,0.997,2.687,1.53,4.234,1.53
	c0.197,0,0.395-0.009,0.594-0.026c1.76-0.153,3.354-0.978,4.489-2.319c1.134-1.343,1.673-3.042,1.518-4.786
	c-0.321-3.599-3.541-6.27-7.171-5.951c-1.092,0.096-2.151,0.462-3.062,1.059C9.614,8.512,9.474,9.194,9.812,9.701
	c0.338,0.507,1.027,0.647,1.539,0.311c0.604-0.396,1.308-0.639,2.033-0.703c2.418-0.206,4.551,1.563,4.764,3.953
	c0.103,1.159-0.255,2.287-1.009,3.179c-0.754,0.892-1.813,1.439-2.981,1.542c-1.168,0.102-2.308-0.253-3.208-0.999
	c-0.899-0.747-1.451-1.796-1.555-2.954c-0.075-0.838,0.093-1.672,0.487-2.412C10.168,11.081,9.96,10.416,9.418,10.132z
	 M24.902,20.609l-1.598-2.204c0.236-0.465,0.438-0.947,0.604-1.444l2.703-0.44c0.536-0.088,0.93-0.547,0.93-1.086v-3.58
	c0-0.538-0.394-0.998-0.931-1.085l-2.702-0.439c-0.162-0.491-0.361-0.968-0.595-1.428l1.593-2.225
	c0.313-0.438,0.262-1.035-0.121-1.415l-2.554-2.531c-0.382-0.379-0.986-0.431-1.427-0.12l-2.246,1.579
	c-0.464-0.23-0.945-0.428-1.44-0.589l-0.446-2.68C16.583,0.39,16.12,0,15.576,0h-3.612c-0.551,0-1.018,0.399-1.099,0.939
	l-0.168,1.129c-0.09,0.601,0.329,1.16,0.936,1.249c0.607,0.089,1.171-0.326,1.261-0.927l0.028-0.19h1.712l0.406,2.442
	c0.072,0.431,0.394,0.779,0.822,0.887c0.78,0.197,1.522,0.5,2.207,0.903c0.377,0.222,0.851,0.203,1.209-0.049l2.046-1.439
	l1.229,1.218L21.102,8.19c-0.253,0.354-0.273,0.823-0.05,1.197c0.406,0.68,0.713,1.416,0.911,2.188
	c0.108,0.424,0.46,0.744,0.896,0.815l2.461,0.4v1.711l-2.461,0.401c-0.435,0.07-0.787,0.39-0.896,0.813
	c-0.201,0.78-0.511,1.523-0.922,2.207c-0.226,0.376-0.205,0.85,0.053,1.204l1.454,2.008l-1.221,1.21L19.3,20.901
	c-0.358-0.255-0.836-0.275-1.215-0.051c-0.685,0.403-1.427,0.709-2.206,0.907c-0.424,0.109-0.744,0.454-0.818,0.881l-0.421,2.453
	h-1.738l-0.42-2.453c-0.074-0.428-0.394-0.773-0.818-0.881c-0.779-0.198-1.521-0.504-2.205-0.907
	c-0.379-0.225-0.857-0.204-1.215,0.051l-2.029,1.442l-1.221-1.21l1.455-2.01c0.258-0.355,0.278-0.829,0.052-1.205
	c-0.409-0.679-0.717-1.413-0.917-2.183c-0.109-0.421-0.457-0.739-0.889-0.812L2.22,14.506v-1.722l2.473-0.417
	c0.432-0.072,0.78-0.39,0.89-0.811c0.198-0.764,0.503-1.494,0.908-2.169C6.803,8.865,6.629,8.19,6.102,7.879
	c-0.528-0.31-1.208-0.137-1.521,0.385c-0.387,0.647-0.703,1.334-0.942,2.049l-2.714,0.457C0.391,10.861,0,11.319,0,11.855v3.58
	c0,0.536,0.39,0.995,0.924,1.084l2.714,0.458c0.164,0.491,0.364,0.966,0.598,1.426l-1.598,2.205
	c-0.317,0.438-0.268,1.039,0.117,1.42l2.555,2.531c0.385,0.381,0.991,0.43,1.432,0.116l2.227-1.584
	c0.463,0.231,0.944,0.429,1.439,0.592l0.461,2.691c0.09,0.528,0.553,0.916,1.095,0.916h3.612c0.542,0,1.003-0.387,1.094-0.915
	l0.463-2.692c0.495-0.162,0.976-0.36,1.44-0.592l2.225,1.584c0.441,0.313,1.048,0.265,1.433-0.116l2.554-2.531
	C25.17,21.648,25.219,21.048,24.902,20.609z M34.88,25.146c-0.87,0.214-1.753-0.312-1.969-1.173
	c-0.036-0.146-0.053-0.296-0.048-0.444c0.021-0.607-0.459-1.116-1.071-1.137c-0.612-0.023-1.127,0.455-1.147,1.063
	c-0.012,0.352,0.026,0.705,0.112,1.05c0.435,1.73,2.007,2.89,3.731,2.89c0.307,0,0.618-0.036,0.928-0.112
	c2.057-0.508,3.313-2.579,2.803-4.617c-0.513-2.038-2.603-3.284-4.658-2.778c-0.328,0.081-0.643,0.204-0.935,0.364
	c-0.537,0.294-0.731,0.964-0.434,1.495c0.297,0.531,0.972,0.724,1.509,0.43c0.122-0.067,0.256-0.119,0.395-0.153
	c0.87-0.215,1.752,0.313,1.968,1.174C36.279,24.057,35.748,24.931,34.88,25.146z M44.967,22.365l-0.645-2.567
	c-0.131-0.522-0.625-0.874-1.166-0.831l-1.845,0.147c-0.155-0.233-0.322-0.457-0.501-0.673l0.679-1.718
	c0.198-0.5,0.003-1.068-0.461-1.345l-2.288-1.363c-0.463-0.276-1.061-0.181-1.413,0.225l-1.216,1.399
	c-0.275-0.056-0.554-0.096-0.834-0.124l-0.732-1.685c-0.215-0.495-0.761-0.763-1.287-0.633l-2.592,0.639
	c-0.595,0.147-0.957,0.744-0.809,1.333c0.147,0.589,0.748,0.948,1.345,0.802l1.677-0.414l0.632,1.455
	c0.175,0.401,0.572,0.663,1.014,0.665c0.566,0.004,1.126,0.086,1.665,0.246c0.419,0.124,0.874-0.008,1.159-0.337l1.051-1.209
	l0.681,0.406l-0.587,1.484c-0.159,0.405-0.063,0.864,0.243,1.174c0.396,0.398,0.732,0.85,0.997,1.341
	c0.209,0.387,0.629,0.611,1.068,0.578l1.594-0.127l0.189,0.754l-1.468,0.626c-0.406,0.173-0.669,0.567-0.672,1.004
	c-0.003,0.566-0.087,1.126-0.251,1.663c-0.128,0.419,0.008,0.872,0.344,1.155l1.218,1.026l-0.404,0.665l-1.484-0.586
	c-0.41-0.162-0.879-0.067-1.192,0.24c-0.4,0.393-0.855,0.727-1.353,0.993c-0.385,0.206-0.612,0.617-0.579,1.05l0.121,1.592
	l-0.772,0.19l-0.646-1.463c-0.176-0.398-0.571-0.656-1.01-0.659c-0.564-0.004-1.123-0.088-1.66-0.249
	c-0.422-0.127-0.882,0.007-1.168,0.341l-1.036,1.207l-0.672-0.4l0.591-1.472c0.163-0.406,0.068-0.871-0.243-1.182
	c-0.395-0.395-0.732-0.845-1.002-1.339c-0.207-0.382-0.62-0.604-1.06-0.574l-1.605,0.12l-0.191-0.766l1.475-0.639
	c0.402-0.175,0.663-0.566,0.665-1.001c0.004-0.554,0.087-1.104,0.247-1.635c0.127-0.416-0.006-0.867-0.339-1.149l-1.221-1.041
	l0.41-0.674l1.499,0.581c0.408,0.159,0.872,0.064,1.185-0.241c0.4-0.391,0.855-0.724,1.354-0.989c0.54-0.287,0.743-0.954,0.453-1.49
	c-0.291-0.535-0.964-0.737-1.504-0.448c-0.468,0.249-0.908,0.541-1.315,0.873l-1.734-0.673c-0.504-0.195-1.077-0.002-1.356,0.457
	l-1.376,2.266c-0.279,0.459-0.184,1.052,0.227,1.401l1.412,1.204c-0.055,0.27-0.097,0.542-0.123,0.815l-1.706,0.74
	c-0.496,0.215-0.764,0.753-0.633,1.272l0.645,2.568c0.131,0.521,0.624,0.871,1.161,0.831l1.857-0.139
	c0.155,0.232,0.322,0.456,0.502,0.672l-0.685,1.703c-0.201,0.501-0.008,1.071,0.459,1.35l2.287,1.363
	c0.467,0.28,1.067,0.181,1.419-0.229l1.198-1.397c0.275,0.056,0.554,0.098,0.834,0.124l0.746,1.692
	C34.613,33.748,35.018,34,35.45,34c0.089,0,0.179-0.011,0.268-0.032l2.591-0.639c0.525-0.13,0.88-0.615,0.84-1.149l-0.14-1.843
	c0.234-0.153,0.46-0.319,0.677-0.497l1.721,0.68c0.505,0.199,1.082,0.007,1.362-0.455l1.376-2.268
	c0.28-0.461,0.182-1.056-0.232-1.405l-1.41-1.188c0.057-0.276,0.099-0.557,0.127-0.838l1.7-0.726
	C44.828,23.428,45.098,22.888,44.967,22.365z"/>
</svg>
