<?xml version="1.0" encoding="utf-8"?>
<!-- Generator: Adobe Illustrator 16.0.0, SVG Export Plug-In . SVG Version: 6.00 Build 0)  -->
<!DOCTYPE svg PUBLIC "-//W3C//DTD SVG 1.1//EN" "http://www.w3.org/Graphics/SVG/1.1/DTD/svg11.dtd">
<svg version="1.1" id="圖層_1" xmlns="http://www.w3.org/2000/svg" xmlns:xlink="http://www.w3.org/1999/xlink" x="0px" y="0px"
	 width="34px" height="34px" viewBox="0 0 34 34" enable-background="new 0 0 34 34" xml:space="preserve">
<path fill="#3588BB" d="M11.041,10.96c-0.391-0.391-1.023-0.391-1.414,0c-0.391,0.39-0.391,1.024,0,1.414l2.667,2.667
	c0.195,0.195,0.451,0.293,0.707,0.293c0.256,0,0.512-0.098,0.708-0.293l6.667-6.667c0.391-0.39,0.391-1.024,0-1.414
	c-0.391-0.391-1.023-0.391-1.414,0L13,12.919L11.041,10.96z M20.588,9.574l-1.541,1.542c0.186,0.596,0.287,1.229,0.287,1.885
	c0,3.492-2.842,6.333-6.334,6.333c-3.492,0-6.333-2.841-6.333-6.333c0-3.493,2.841-6.333,6.333-6.333
	c1.366,0,2.627,0.438,3.663,1.175l1.427-1.426C16.68,5.324,14.917,4.667,13,4.667c-4.595,0-8.333,3.738-8.333,8.333
	S8.405,21.334,13,21.334c4.596,0,8.334-3.738,8.334-8.333C21.334,11.779,21.063,10.621,20.588,9.574z M2,13C2,6.935,6.935,2,13,2
	c6.066,0,11,4.935,11,11c0,6.066-4.934,11-11,11C6.935,24,2,19.066,2,13z M31.902,31.902C31.818,31.987,31.719,32,31.667,32
	s-0.151-0.013-0.235-0.098l-9.49-9.489c0.161-0.153,0.318-0.311,0.472-0.472l9.489,9.49C31.987,31.516,32,31.615,32,31.667
	S31.987,31.818,31.902,31.902z M33.316,30.018l-9.631-9.632C25.142,18.287,26,15.743,26,13c0-7.168-5.831-13-13-13
	C5.832,0,0,5.832,0,13c0,7.169,5.832,13,13,13c2.743,0,5.287-0.858,7.386-2.314l9.632,9.631c0.44,0.44,1.026,0.684,1.649,0.684
	s1.209-0.243,1.649-0.683c0.44-0.441,0.684-1.026,0.684-1.65S33.757,30.458,33.316,30.018z"/>
</svg>
