<?xml version="1.0" encoding="utf-8"?>
<!-- Generator: Adobe Illustrator 16.0.0, SVG Export Plug-In . SVG Version: 6.00 Build 0)  -->
<!DOCTYPE svg PUBLIC "-//W3C//DTD SVG 1.1//EN" "http://www.w3.org/Graphics/SVG/1.1/DTD/svg11.dtd">
<svg version="1.1" id="圖層_1" xmlns="http://www.w3.org/2000/svg" xmlns:xlink="http://www.w3.org/1999/xlink" x="0px" y="0px"
	 width="30px" height="36px" viewBox="0 0 30 36" enable-background="new 0 0 30 36" xml:space="preserve">
<path fill="#3588BB" d="M24.608,2.251c0.838,0,1.626,0.326,2.218,0.917c0.593,0.593,0.92,1.38,0.92,2.217s-0.327,1.624-0.92,2.216
	l-3.706,3.702L18.682,6.87l3.707-3.701C22.981,2.577,23.77,2.251,24.608,2.251z M21.525,12.895l-2.592,2.588l-7.82-1.055
	l5.973-5.965L21.525,12.895z M9.845,23.265c-0.446,0-0.878-0.093-1.285-0.273c-0.423-0.188-0.928-0.095-1.255,0.232L5.61,24.916
	c-0.067,0.067-0.169,0.105-0.278,0.105c-0.11,0-0.212-0.038-0.279-0.105c-0.076-0.076-0.116-0.173-0.116-0.28
	c0-0.105,0.041-0.205,0.115-0.279l1.695-1.692c0.329-0.328,0.422-0.833,0.232-1.255c-0.528-1.179-0.27-2.582,0.642-3.493
	l1.489-1.487l7.821,1.055l-4.872,4.866C11.468,22.939,10.682,23.265,9.845,23.265z M30,5.385c0-1.437-0.561-2.79-1.58-3.809
	C27.402,0.56,26.049,0,24.608,0c-1.441,0-2.795,0.56-3.813,1.576l-3.707,3.702l-0.915-0.915l-1.594,1.591l0.916,0.915l-9.467,9.456
	c-1.366,1.364-1.891,3.397-1.378,5.25l-1.191,1.189c-0.5,0.499-0.776,1.163-0.776,1.871s0.276,1.372,0.776,1.871
	c0.5,0.5,1.166,0.774,1.873,0.774c0.708,0,1.374-0.274,1.873-0.774l1.191-1.188c0.47,0.13,0.956,0.196,1.45,0.196
	c1.439,0,2.791-0.559,3.807-1.574l6.43-6.421l0.185-0.092v-0.092l2.853-2.85l0.916,0.914l1.595-1.592l-0.916-0.914l3.706-3.702
	C29.439,8.175,30,6.823,30,5.385z M3.334,33.749c-0.595,0-1.08-0.484-1.08-1.079c0-0.201,0.346-0.911,1.081-1.882
	c0.735,0.97,1.08,1.68,1.08,1.882C4.415,33.265,3.93,33.749,3.334,33.749z M2.5,28.265C1.914,28.911,0,31.139,0,32.67
	C0.001,34.507,1.497,36,3.334,36c1.839,0,3.335-1.494,3.335-3.33c0-1.528-1.913-3.758-2.499-4.405
	C3.75,27.804,2.917,27.804,2.5,28.265z"/>
</svg>
