<?xml version="1.0" encoding="utf-8"?>
<!-- Generator: Adobe Illustrator 16.0.0, SVG Export Plug-In . SVG Version: 6.00 Build 0)  -->
<!DOCTYPE svg PUBLIC "-//W3C//DTD SVG 1.1//EN" "http://www.w3.org/Graphics/SVG/1.1/DTD/svg11.dtd">
<svg version="1.1" id="圖層_1" xmlns="http://www.w3.org/2000/svg" xmlns:xlink="http://www.w3.org/1999/xlink" x="0px" y="0px"
	 width="240px" height="55px" viewBox="0 0 240 55" enable-background="new 0 0 240 55" xml:space="preserve">
<path fill="#221E1F" d="M184.73,14.885v0.457c0,0.817,0.219,1.907,1.334,1.907c0.032,0.002,0.065,0.004,0.099,0.004
	c0.664,0,1.21-0.546,1.21-1.209c0-0.05-0.003-0.101-0.009-0.151h0.736c-0.082,1.427-0.853,1.918-2.036,1.918
	c-1.018,0-2.037-0.409-2.037-2.199V14.16c0-1.708,0.717-2.492,2.037-2.492c2.036,0,2.036,1.46,2.036,3.216L184.73,14.885z
	 M187.398,14.319c0-1.309-0.212-2.093-1.335-2.093c-1.124,0-1.335,0.784-1.335,2.093H187.398z M193.181,11.769h0.691
	c-0.024,0.561-0.037,0.854-0.037,1.156V17.9c0,1.297-0.398,2.068-2.082,2.068c-1.474,0-1.766-1.04-1.719-1.634h0.701
	c-0.002,0.027-0.003,0.054-0.003,0.082c0,0.548,0.45,0.999,0.999,0.999c0.038,0,0.077-0.002,0.115-0.007
	c1.368,0,1.287-0.736,1.287-2.501h-0.022c-0.317,0.472-0.86,0.742-1.428,0.711c-1.695,0-1.817-1.464-1.817-2.773
	c-0.064-0.675-0.003-1.357,0.18-2.011c0.221-0.722,0.908-1.206,1.662-1.171c0.6-0.015,1.161,0.306,1.452,0.831l0.021,0.023
	L193.181,11.769z M190.565,14.6c0,1.228,0,2.457,1.276,2.457c0.457,0.013,0.879-0.251,1.068-0.667
	c0.178-0.455,0.222-0.727,0.222-2.457c0-1.241-0.667-1.71-1.32-1.71c-1.216,0-1.241,1.499-1.241,2.376 M196.537,14.885v0.457
	c0,0.817,0.223,1.907,1.337,1.907c0.033,0.002,0.066,0.004,0.1,0.004c0.663,0,1.21-0.546,1.21-1.21c0-0.05-0.003-0.1-0.009-0.15
	h0.734c-0.079,1.427-0.855,1.918-2.034,1.918c-1.018,0-2.039-0.409-2.039-2.199V14.16c0-1.708,0.717-2.492,2.039-2.492
	c2.034,0,2.034,1.46,2.034,3.216L196.537,14.885z M199.208,14.319c0-1.309-0.211-2.093-1.334-2.093s-1.338,0.784-1.338,2.093
	H199.208z M202.593,13.984c0-1.326,0.649-1.756,1.277-1.756c0.822,0,1.089,0.643,1.089,1.334v4.132h0.705v-4.167
	c0-0.773-0.155-1.86-1.618-1.86c-0.589,0.014-1.131,0.333-1.427,0.843h-0.026v-0.726h-0.699v5.908h0.699V13.984z M208.348,14.885
	v0.457c0,0.817,0.221,1.907,1.333,1.907c0.033,0.002,0.066,0.004,0.1,0.004c0.663,0,1.209-0.546,1.209-1.209
	c0-0.051-0.003-0.101-0.009-0.151h0.737c-0.081,1.427-0.857,1.918-2.037,1.918c-1.018,0-2.038-0.409-2.038-2.199V14.16
	c0-1.708,0.715-2.492,2.038-2.492c2.037,0,2.037,1.46,2.037,3.216L208.348,14.885z M211.015,14.319c0-1.309-0.21-2.093-1.334-2.093
	c-1.125,0-1.334,0.784-1.334,2.093H211.015z M214.447,11.783h-0.702v5.907h0.702v-3.804c-0.004-0.039-0.005-0.078-0.005-0.117
	c0-0.775,0.637-1.412,1.411-1.412c0.081,0,0.162,0.007,0.242,0.021v-0.714c-0.669-0.024-1.297,0.33-1.624,0.914h-0.025
	L214.447,11.783z M220.713,16.964h-0.021c-0.37,0.555-1.009,0.876-1.676,0.842c-0.024,0.001-0.051,0.002-0.075,0.002
	c-0.856,0-1.561-0.704-1.561-1.56c0-0.061,0.003-0.121,0.01-0.181c0-2.074,2.084-1.865,3.276-1.955v-0.493
	c0-0.865-0.257-1.392-1.194-1.392c-0.646,0-1.158,0.318-1.158,1.02h-0.749c0.057-1.14,0.937-1.581,1.965-1.581
	c0.598,0,1.839,0.058,1.839,1.568v2.972c-0.006,0.497,0.017,0.993,0.07,1.487h-0.728L220.713,16.964z M220.666,14.673
	c-1.005,0.031-2.527-0.083-2.527,1.356c-0.007,0.049-0.01,0.099-0.01,0.148c0,0.586,0.482,1.068,1.068,1.068
	c0.004,0,0.007,0,0.011,0c0.803-0.03,1.45-0.694,1.46-1.498L220.666,14.673z M223.984,12.344v4.224c0,0.726,0.28,1.146,1.227,1.146
	c0.224,0,0.447-0.011,0.669-0.035v-0.608c-0.183,0.025-0.367,0.037-0.552,0.035c-0.56,0-0.64-0.188-0.64-0.972v-3.791h1.193v-0.561
	h-1.193v-1.522l-0.704,0.302v1.221h-0.947v0.561L223.984,12.344z M227.675,9.243h0.867v0.886h-0.867V9.243z M227.756,11.782h0.703
	v5.907h-0.703V11.782z M230.987,11.782h-0.764l1.761,5.907h0.809l1.752-5.907h-0.678l-1.44,5.021h-0.022L230.987,11.782z
	 M236.631,14.885v0.457c0,0.817,0.223,1.907,1.336,1.907c0.033,0.002,0.066,0.004,0.101,0.004c0.661,0,1.207-0.545,1.207-1.207
	c0-0.051-0.003-0.103-0.011-0.153H240c-0.081,1.427-0.854,1.918-2.034,1.918c-1.02,0-2.036-0.409-2.036-2.199V14.16
	c0-1.708,0.712-2.492,2.036-2.492c2.034,0,2.034,1.46,2.034,3.216L236.631,14.885z M239.3,14.319c0-1.309-0.211-2.093-1.334-2.093
	s-1.336,0.784-1.336,2.093H239.3z M177.74,22.547v8.451h3.906v-0.633h-3.158v-3.393h2.938V26.34h-2.938v-3.159h3.08v-0.633
	L177.74,22.547z M184.182,27.287c0-1.322,0.649-1.754,1.277-1.754c0.82,0,1.09,0.645,1.09,1.336V31h0.701v-4.167
	c0-0.772-0.153-1.858-1.618-1.858c-0.588,0.016-1.129,0.334-1.428,0.841h-0.022v-0.728h-0.7v5.911h0.7V27.287z M192.477,25.076
	h0.692c-0.021,0.56-0.035,0.854-0.035,1.157v4.975c0,1.3-0.397,2.073-2.083,2.073c-1.476,0-1.767-1.039-1.721-1.641h0.704
	c-0.003,0.029-0.004,0.059-0.004,0.088c0,0.548,0.451,0.999,0.999,0.999c0.038,0,0.077-0.003,0.114-0.007
	c1.371,0,1.286-0.736,1.286-2.504h-0.028c-0.315,0.473-0.859,0.744-1.428,0.713c-1.696,0-1.814-1.462-1.814-2.771
	c-0.064-0.677-0.004-1.359,0.175-2.016c0.224-0.72,0.91-1.201,1.663-1.167c0.6-0.017,1.161,0.304,1.452,0.83l0.021,0.025
	L192.477,25.076z M189.861,27.904c0,1.229,0,2.46,1.277,2.46c0.457,0.012,0.879-0.252,1.069-0.668
	c0.175-0.456,0.22-0.725,0.22-2.458c0-1.241-0.666-1.708-1.318-1.708c-1.218,0-1.243,1.498-1.243,2.374 M195.438,22.546h0.866v0.888
	h-0.866V22.546z M195.52,25.086h0.705v5.911h-0.705V25.086z M199.293,27.287c0-1.322,0.643-1.754,1.276-1.754
	c0.819,0,1.087,0.645,1.087,1.336V31h0.705v-4.167c0-0.772-0.154-1.858-1.613-1.858c-0.59,0.014-1.131,0.332-1.43,0.841h-0.025
	v-0.728h-0.701v5.911h0.7L199.293,27.287z M205.042,28.189v0.455c0,0.822,0.224,1.907,1.338,1.907
	c0.033,0.003,0.066,0.004,0.099,0.004c0.661,0,1.206-0.544,1.206-1.206c0-0.052-0.004-0.104-0.01-0.155h0.738
	c-0.081,1.425-0.854,1.922-2.033,1.922c-1.019,0-2.04-0.412-2.04-2.199v-1.454c0-1.707,0.715-2.49,2.04-2.49
	c2.033,0,2.033,1.459,2.033,3.216H205.042z M207.712,27.628c0-1.311-0.211-2.096-1.332-2.096c-1.122,0-1.339,0.785-1.339,2.096
	H207.712z M210.948,28.189v0.455c0,0.822,0.224,1.907,1.333,1.907c0.033,0.003,0.066,0.004,0.1,0.004c0.664,0,1.21-0.546,1.21-1.209
	c0-0.052-0.003-0.102-0.01-0.152h0.738c-0.083,1.425-0.856,1.922-2.038,1.922c-1.02,0-2.037-0.412-2.037-2.199v-1.454
	c0-1.707,0.716-2.49,2.037-2.49c2.038,0,2.038,1.459,2.038,3.216H210.948z M213.615,27.628c0-1.311-0.213-2.096-1.334-2.096
	c-1.122,0-1.334,0.785-1.334,2.096H213.615z M217.052,25.086h-0.707v5.911h0.707v-3.805c-0.004-0.04-0.005-0.079-0.005-0.119
	c0-0.773,0.636-1.41,1.41-1.41c0.081,0,0.163,0.007,0.243,0.021v-0.712c-0.669-0.024-1.298,0.328-1.627,0.912h-0.022L217.052,25.086
	z M220.411,22.546h0.868v0.888h-0.869L220.411,22.546z M220.496,25.086h0.701v5.911h-0.701V25.086z M224.265,27.287
	c0-1.322,0.644-1.754,1.277-1.754c0.822,0,1.088,0.645,1.088,1.336V31h0.705v-4.167c0-0.772-0.153-1.858-1.616-1.858
	c-0.589,0.015-1.13,0.333-1.429,0.841h-0.023v-0.728h-0.703v5.911h0.703L224.265,27.287z M232.557,25.076h0.691
	c-0.022,0.56-0.032,0.854-0.032,1.157v4.975c0,1.3-0.399,2.073-2.082,2.073c-1.473,0-1.766-1.039-1.722-1.641h0.702
	c-0.003,0.027-0.004,0.054-0.004,0.08c0,0.552,0.454,1.006,1.006,1.006c0.037,0,0.074-0.002,0.109-0.006
	c1.372,0,1.286-0.736,1.286-2.504h-0.021c-0.315,0.472-0.858,0.743-1.425,0.713c-1.697,0-1.818-1.462-1.818-2.771
	c-0.063-0.677-0.004-1.359,0.175-2.016c0.226-0.719,0.91-1.201,1.663-1.167c0.6-0.016,1.161,0.305,1.452,0.83l0.021,0.025
	L232.557,25.076z M229.948,27.904c0,1.229,0,2.46,1.272,2.46c0.457,0.012,0.879-0.252,1.069-0.668
	c0.177-0.456,0.22-0.725,0.22-2.458c0-1.241-0.664-1.708-1.318-1.708c-1.221,0-1.24,1.498-1.24,2.374 M177.612,35.854h2.315
	c0.703,0,1.865,0.093,1.865,2.046c0,1.697-0.553,2.47-2.011,2.47h-1.425v3.933h-0.747L177.612,35.854z M178.359,39.737h1.393
	c0.783,0,1.29-0.377,1.29-1.696c0-1.44-0.622-1.559-1.303-1.559h-1.383L178.359,39.737z M183.902,38.952v4.223
	c0,0.728,0.279,1.148,1.229,1.148c0.223,0,0.445-0.011,0.667-0.034V43.68c-0.182,0.026-0.366,0.038-0.55,0.036
	c-0.559,0-0.645-0.188-0.645-0.972v-3.791h1.194v-0.565h-1.194v-1.522l-0.701,0.307v1.217h-0.949v0.565L183.902,38.952z
	 M187.986,41.491v0.457c0,0.822,0.226,1.905,1.34,1.905c0.032,0.002,0.063,0.004,0.096,0.004c0.664,0,1.21-0.547,1.21-1.21
	c0-0.05-0.003-0.1-0.009-0.149h0.736c-0.079,1.429-0.854,1.918-2.033,1.918c-1.021,0-2.04-0.407-2.04-2.199v-1.452
	c0-1.708,0.714-2.491,2.04-2.491c2.033,0,2.033,1.46,2.033,3.215L187.986,41.491z M190.657,40.931c0-1.309-0.211-2.095-1.332-2.095
	c-1.12,0-1.34,0.786-1.34,2.095H190.657z M200.262,44.305v-0.633h-2.8v-7.816h-0.748v8.445L200.262,44.305z M202.326,38.952v4.223
	c0,0.728,0.279,1.148,1.227,1.148c0.224,0,0.445-0.011,0.667-0.034V43.68c-0.183,0.026-0.367,0.038-0.552,0.036
	c-0.558,0-0.641-0.188-0.641-0.972v-3.791h1.193v-0.565h-1.193v-1.522l-0.701,0.307v1.217h-0.948v0.565L202.326,38.952z
	 M208.965,43.554l-0.022,0.009c-0.296,0.545-0.877,0.877-1.497,0.854c-1.711,0-1.804-1.693-1.804-3.079c0-1.132,0-3.063,1.814-3.063
	c0.558,0.002,1.086,0.261,1.428,0.701l0.022,0.011v-3.13h0.706v7.276c-0.01,0.392,0.014,0.784,0.068,1.172h-0.68L208.965,43.554z
	 M208.928,41.879v-1.051c0-0.354,0-1.99-1.318-1.99c-1.264,0-1.264,1.147-1.264,2.529c0,2.196,0.527,2.488,1.289,2.488
	C208.301,43.855,208.929,43.321,208.928,41.879 M182.232,17.691l-1.371-4.227c0.135-0.033,0.266-0.077,0.394-0.131
	c0.779-0.391,0.954-1.139,0.954-2.066c0-1.487-0.408-2.023-2.039-2.023h-2.329v8.447h0.749v-4.096h1.418
	c0.023,0,0.052-0.007,0.074-0.007l1.332,4.104H182.232z M178.591,12.962V9.874h1.535c0.879,0,1.334,0.224,1.334,1.382
	c0,1.414-0.526,1.708-1.649,1.708L178.591,12.962z"/>
<path fill="#221E1F" d="M110.539,34.839c-0.193,2.918-0.682,5.543-3.016,7.541c-0.983,0.84-2.149,1.438-3.404,1.747
	c-0.892,0.202-1.805,0.301-2.72,0.294h-6.446V9.244h4.892c3.113,0,6.222,0.243,8.409,2.815c1.894,2.287,2.334,5.396,2.334,11.228
	v8.492c0,1.023,0,1.992-0.049,3.062 M108.254,23.238c0-2.43-0.047-6.513-1.214-8.698c-0.772-1.354-2.048-2.35-3.549-2.77
	c-0.798-0.189-1.611-0.305-2.43-0.344h-3.725v30.848h3.874c1.497,0.077,2.979-0.333,4.224-1.168c2.24-1.604,2.82-4.124,2.82-9.134
	V23.238z M136.585,43.929c-1.742-9.05-5.53-28.731-6.014-31.296c-0.033-0.166-0.255-1.5-0.389-2.263
	c-0.051-0.443-0.441-0.775-0.888-0.754c-0.139,0-0.398-0.009-0.628-0.018h-0.424c-0.23,0.009-0.491,0.018-0.629,0.018
	c-0.444-0.022-0.833,0.312-0.879,0.754c-0.146,0.762-0.363,2.096-0.396,2.263c-0.478,2.566-4.269,22.25-6.015,31.296h2.317
	c1.641-8.507,4.889-25.36,5.765-29.95c0.872,4.594,4.119,21.443,5.759,29.95H136.585z M161.976,19.498
	c0-2.615-0.157-5.671-1.813-7.647c-0.34-0.467-0.754-0.875-1.227-1.207c-0.955-0.765-2.291-1.4-4.797-1.4
	c-2.507,0-3.841,0.635-4.797,1.4c-0.472,0.333-0.888,0.74-1.229,1.207c-1.649,1.976-1.813,5.032-1.813,7.647v14.665
	c0,2.615,0.163,5.672,1.813,7.645c0.343,0.465,0.758,0.873,1.229,1.206c0.956,0.765,2.295,1.404,4.797,1.404
	c2.501,0,3.842-0.64,4.797-1.404c0.472-0.333,0.886-0.74,1.227-1.206c1.656-1.974,1.813-5.027,1.813-7.645v-6.928h-2.091v0.01
	h-4.868v2.315h4.646v4.603c0,2.411-0.152,4.822-1.271,6.158l-0.068,0.084c-0.2,0.282-0.446,0.529-0.729,0.729l-0.058,0.041
	l-0.038,0.032c-0.558,0.439-1.395,0.899-3.359,0.899c-1.966,0-2.8-0.458-3.355-0.899l-0.052-0.045l-0.05-0.028
	c-0.281-0.2-0.526-0.447-0.725-0.729l-0.072-0.085c-1.116-1.333-1.271-3.745-1.271-6.158V19.497c0-2.412,0.155-4.823,1.271-6.159
	l0.072-0.079c0.197-0.285,0.442-0.532,0.725-0.731l0.102-0.074c0.555-0.445,1.392-0.897,3.354-0.897s2.802,0.453,3.359,0.897
	l0.05,0.042l0.049,0.032c0.282,0.2,0.528,0.447,0.726,0.731l0.069,0.079c1.119,1.337,1.271,3.749,1.271,6.205h0.029l-0.029,0.026
	v1.293h2.313v-1.293l-0.042-0.026h0.042L161.976,19.498z"/>
<path fill="#221E1F" d="M53.471,51.996c-5.189,0.083-10.243-1.687-14.248-4.989c-0.018-0.018-0.029-0.042-0.032-0.067
	c0.006-0.09,0.044-0.175,0.109-0.238c0.083-0.094,0.171-0.183,0.259-0.271c0.07-0.07,0.14-0.137,0.208-0.209
	c0.184-0.18,0.365-0.371,0.541-0.565c0.04-0.048,0.101-0.074,0.163-0.071c0.064-0.001,0.127,0.018,0.18,0.054
	c3.628,2.917,8.166,4.474,12.82,4.398C64.981,50.037,74,39.856,74,26.861S64.981,3.686,53.47,3.686
	c-5.522-0.108-10.843,2.11-14.653,6.109l-0.133,0.13l-0.027,0.042c-2.186,2.124-3.424,5.042-3.431,8.089
	c-0.009,2.006,0.573,3.972,1.674,5.65c0.093,0.125,0.104,0.293,0.027,0.429c-0.251,0.358-0.551,0.733-0.889,1.147l-0.063,0.081
	c-0.026,0.039-0.056,0.076-0.089,0.109c-0.023,0.029-0.055,0.05-0.09,0.06c-0.04,0-0.122-0.119-0.147-0.158
	c-1.561-2.119-2.398-4.686-2.388-7.318c0.008-3.559,1.446-6.97,3.989-9.46l0.045-0.049c4.183-4.455,10.063-6.936,16.172-6.824
	c12.612,0,22.492,11.042,22.492,25.138c0,14.096-9.879,25.137-22.492,25.137"/>
<path fill="#0090D0" d="M35.962,42.87c-0.346-0.002-0.667-0.184-0.845-0.479c-1.211-2.035-1.852-4.36-1.854-6.729
	c0-3.798,1.514-6.423,3.955-9.423c2.228-2.735,3.519-4.952,3.519-8.184c-0.001-2.015-0.546-3.993-1.578-5.724
	c-0.274-0.463-0.12-1.069,0.342-1.345c0.151-0.09,0.323-0.138,0.499-0.139c0.346,0.001,0.668,0.183,0.847,0.48
	c1.21,2.035,1.85,4.36,1.853,6.728c0,3.797-1.515,6.421-3.959,9.426c-2.228,2.737-3.52,4.952-3.52,8.184
	c0.003,2.015,0.548,3.992,1.58,5.724c0.133,0.224,0.171,0.492,0.105,0.744c-0.063,0.252-0.224,0.47-0.448,0.603
	c-0.151,0.089-0.323,0.137-0.499,0.137"/>
<path fill="#221E1F" d="M22.493,51.996C9.881,51.996,0,40.955,0,26.858S9.88,1.721,22.493,1.721
	c5.188-0.084,10.239,1.685,14.242,4.986c0.099,0.08,0.103,0.126,0.103,0.129c-0.106,0.127-0.22,0.247-0.341,0.359
	c-0.109,0.105-0.217,0.21-0.319,0.321c-0.188,0.188-0.396,0.405-0.556,0.591c-0.029,0.04-0.076,0.064-0.125,0.066
	c-0.044,0-0.087-0.016-0.121-0.044c-3.638-2.948-8.201-4.523-12.883-4.446c-11.512,0-20.529,10.181-20.529,23.176
	s9.017,23.176,20.529,23.176c5.579,0.111,10.95-2.156,14.763-6.23l0.146-0.129l-0.006-0.008c2.132-2.116,3.336-4.998,3.343-8.002
	c0.006-2.052-0.601-4.059-1.745-5.762c-0.077-0.119-0.074-0.161,0.013-0.287c0.261-0.371,0.565-0.754,0.914-1.177
	c0.098-0.122,0.17-0.21,0.236-0.299c0.033,0.029,0.063,0.063,0.087,0.1c1.6,2.145,2.462,4.75,2.459,7.425
	c-0.006,3.509-1.404,6.875-3.886,9.355l-0.005-0.006l-0.147,0.157C34.48,49.627,28.601,52.108,22.493,51.996"/>
<path fill="none" stroke="#BBBDBF" stroke-width="0.1571" stroke-miterlimit="10" d="M44.004,26.86
	c0,16.011-10.061,24.159-21.51,24.159c-11.45,0-21.512-9.751-21.512-24.159s10.059-24.16,21.512-24.16S44.004,10.848,44.004,26.86z"
	/>
<path fill="none" stroke="#BBBDBF" stroke-width="0.1571" stroke-miterlimit="10" d="M74.981,26.86
	c0,14.408-10.059,24.159-21.509,24.159S31.96,42.871,31.96,26.86s10.059-24.16,21.512-24.16
	C64.925,2.701,74.981,12.452,74.981,26.86z"/>
</svg>
