<?xml version="1.0" encoding="utf-8"?>
<!-- Generator: Adobe Illustrator 16.0.0, SVG Export Plug-In . SVG Version: 6.00 Build 0)  -->
<!DOCTYPE svg PUBLIC "-//W3C//DTD SVG 1.1//EN" "http://www.w3.org/Graphics/SVG/1.1/DTD/svg11.dtd">
<svg version="1.1" id="圖層_1" xmlns="http://www.w3.org/2000/svg" xmlns:xlink="http://www.w3.org/1999/xlink" x="0px" y="0px"
	 width="140px" height="50px" viewBox="0 0 140 50" enable-background="new 0 0 140 50" xml:space="preserve">
<path fill="#0090D0" d="M35.709,40.188c-0.333,0-0.646-0.177-0.815-0.462c-1.171-1.969-1.791-4.216-1.791-6.494
	c0-3.668,1.462-6.198,3.82-9.096c2.151-2.641,3.396-4.781,3.396-7.9c0-1.941-0.527-3.851-1.523-5.525
	c-0.267-0.449-0.119-1.032,0.33-1.299c0.146-0.087,0.314-0.134,0.483-0.134c0.333,0,0.645,0.178,0.815,0.464
	c1.17,1.97,1.789,4.215,1.789,6.493c0,3.666-1.462,6.198-3.82,9.095c-2.152,2.643-3.396,4.782-3.396,7.9
	c0,1.938,0.527,3.849,1.523,5.525c0.129,0.217,0.167,0.472,0.104,0.718c-0.063,0.245-0.216,0.451-0.434,0.58
	C36.046,40.144,35.879,40.188,35.709,40.188"/>
<path fill="#231F20" d="M52.611,49c-5.238,0-9.994-1.665-13.752-4.815c-0.004-0.005-0.027-0.025-0.031-0.067
	c-0.005-0.062,0.033-0.142,0.105-0.228c0.078-0.092,0.165-0.177,0.25-0.263c0.068-0.065,0.135-0.132,0.199-0.201
	c0.177-0.174,0.354-0.357,0.523-0.548c0.042-0.046,0.093-0.068,0.159-0.068c0.074,0,0.145,0.03,0.171,0.052
	c3.393,2.777,7.673,4.245,12.376,4.245c11.112,0,19.817-9.827,19.817-22.371c0-12.544-8.705-22.372-19.817-22.372
	c-5.583,0-10.601,2.093-14.144,5.897l-0.129,0.126l-0.025,0.041C36.183,10.527,35,13.307,35,16.237c0,1.965,0.499,3.647,1.617,5.452
	c0.045,0.072,0.136,0.254,0.026,0.415c-0.242,0.348-0.531,0.708-0.857,1.109l-0.059,0.077c-0.027,0.037-0.054,0.074-0.086,0.106
	c-0.046,0.045-0.076,0.057-0.087,0.057c-0.039,0-0.118-0.115-0.144-0.151c-1.614-2.387-2.303-4.5-2.303-7.064
	c0-3.417,1.367-6.66,3.851-9.133l0.043-0.046c3.912-4.249,9.455-6.588,15.61-6.588c12.174,0,21.71,10.659,21.71,24.266
	C74.321,38.342,64.785,49,52.611,49 M22.709,49c6.155,0,11.699-2.34,15.61-6.589l0.142-0.151l0.006,0.006
	c2.419-2.454,3.749-5.653,3.749-9.031c0-2.593-0.71-4.735-2.373-7.165c-0.042-0.062-0.079-0.094-0.083-0.098
	c-0.065,0.087-0.136,0.173-0.229,0.287c-0.333,0.411-0.629,0.779-0.883,1.139c-0.084,0.119-0.086,0.16-0.013,0.276
	c1.166,1.847,1.686,3.563,1.686,5.561c0,2.886-1.146,5.624-3.228,7.725l0.005,0.008l-0.139,0.126
	c-3.551,3.878-8.611,6.014-14.251,6.014c-11.111,0-19.816-9.827-19.816-22.371c0-12.544,8.705-22.372,19.816-22.372
	c4.735,0,9.036,1.485,12.434,4.292C35.164,6.672,35.209,6.7,35.26,6.7c0.027,0,0.069-0.007,0.121-0.065
	c0.157-0.18,0.356-0.389,0.539-0.57c0.098-0.107,0.202-0.208,0.308-0.31c0.104-0.101,0.209-0.203,0.329-0.347
	c-0.001-0.005-0.007-0.048-0.1-0.126C32.7,2.134,27.947,0.47,22.709,0.47C10.535,0.47,1,11.128,1,24.735
	C1,38.342,10.535,49,22.709,49"/>
<path fill="#231F20" d="M104.624,30.524c-0.124,1.936-0.436,3.678-1.928,5.001c-0.341,0.288-1.085,0.9-2.176,1.158
	c-0.715,0.195-1.587,0.195-1.74,0.195h-4.126V13.545h3.13c1.991,0,3.98,0.162,5.377,1.869c1.213,1.517,1.494,3.58,1.494,7.449v5.631
	C104.655,29.172,104.655,29.814,104.624,30.524 M103.161,22.83c0-1.611-0.029-4.318-0.776-5.771c-0.653-1.26-1.832-1.707-2.27-1.837
	c-0.62-0.16-1.366-0.228-1.554-0.228H96.18v20.463h2.477c0.993,0,1.832-0.158,2.703-0.773c1.431-1.065,1.802-2.738,1.802-6.06V22.83
	z M122.988,36.879c-1.161-6.149-3.686-19.525-4.006-21.271c-0.021-0.112-0.169-1.019-0.262-1.538
	c-0.066-0.371-0.32-0.514-0.588-0.514c-0.094,0-0.267-0.006-0.421-0.012h-0.282c-0.153,0.005-0.326,0.012-0.42,0.012
	c-0.269,0-0.523,0.143-0.587,0.514c-0.096,0.519-0.241,1.426-0.261,1.538c-0.321,1.745-2.845,15.121-4.007,21.271h1.545
	c1.093-5.781,3.254-17.236,3.838-20.355c0.581,3.123,2.744,14.574,3.837,20.355H122.988z M139.655,20.349
	c0-1.736-0.104-3.763-1.158-5.073c-0.339-0.464-0.612-0.675-0.783-0.802c-0.611-0.507-1.462-0.929-3.059-0.929
	c-1.599,0-2.451,0.422-3.061,0.929c-0.172,0.126-0.442,0.338-0.784,0.802c-1.052,1.31-1.155,3.337-1.155,5.073v9.727
	c0,1.733,0.104,3.761,1.155,5.071c0.342,0.462,0.612,0.675,0.784,0.801c0.609,0.506,1.462,0.931,3.061,0.931
	c1.597,0,2.447-0.425,3.059-0.931c0.171-0.126,0.444-0.339,0.783-0.801c1.055-1.311,1.158-3.338,1.158-5.071v-4.595h-1.333v0.006
	h-3.106v1.536h2.961v3.053c0,1.6-0.097,3.199-0.81,4.085l-0.043,0.055c-0.222,0.302-0.374,0.416-0.465,0.483l-0.037,0.027
	l-0.025,0.022c-0.354,0.294-0.889,0.596-2.142,0.596c-1.252,0-1.786-0.302-2.142-0.596l-0.032-0.028l-0.03-0.021
	c-0.09-0.067-0.247-0.182-0.464-0.483l-0.043-0.057c-0.713-0.884-0.813-2.483-0.813-4.083v-9.727c0-1.599,0.101-3.2,0.813-4.088
	l0.043-0.052c0.217-0.302,0.371-0.415,0.464-0.483l0.063-0.049c0.355-0.294,0.89-0.595,2.142-0.595c1.253,0,1.787,0.301,2.142,0.595
	l0.032,0.03l0.03,0.02c0.093,0.069,0.243,0.182,0.465,0.483l0.043,0.054c0.713,0.887,0.81,2.488,0.81,4.115h0.02l-0.02,0.018v0.856
	h1.479v-0.856l-0.027-0.018h0.027V20.349z"/>
</svg>
