<?xml version="1.0" encoding="utf-8"?>
<!-- Generator: Adobe Illustrator 16.0.0, SVG Export Plug-In . SVG Version: 6.00 Build 0)  -->
<!DOCTYPE svg PUBLIC "-//W3C//DTD SVG 1.1//EN" "http://www.w3.org/Graphics/SVG/1.1/DTD/svg11.dtd">
<svg version="1.1" id="圖層_1" xmlns="http://www.w3.org/2000/svg" xmlns:xlink="http://www.w3.org/1999/xlink" x="0px" y="0px"
	 width="240px" height="108px" viewBox="0 -26 240 108" enable-background="new 0 -26 240 108" xml:space="preserve">
<g>
	<g>
		<path fill="#898989" stroke="#898989" stroke-width="0.1806" stroke-miterlimit="10" d="M141.3-21.912h0.75l3.237,7.152h-0.861
			l-0.833-1.877h-3.866l-0.843,1.877h-0.822L141.3-21.912z M143.278-17.367l-1.612-3.613l-1.625,3.613H143.278z"/>
		<path fill="#898989" stroke="#898989" stroke-width="0.1806" stroke-miterlimit="10" d="M146.556-20.005h0.78v0.913
			c0.176-0.284,0.406-0.526,0.691-0.726c0.284-0.199,0.651-0.298,1.104-0.298c0.319,0,0.602,0.051,0.847,0.152
			c0.248,0.1,0.459,0.245,0.63,0.431c0.173,0.186,0.305,0.407,0.396,0.664c0.092,0.258,0.137,0.542,0.137,0.852v3.257h-0.78v-3.064
			c0-0.487-0.126-0.872-0.377-1.157c-0.25-0.284-0.606-0.426-1.074-0.426c-0.224,0-0.432,0.04-0.625,0.117
			c-0.19,0.078-0.358,0.189-0.5,0.335c-0.144,0.145-0.253,0.32-0.329,0.521c-0.08,0.203-0.119,0.427-0.119,0.67v3.003h-0.78V-20.005
			z"/>
		<path fill="#898989" stroke="#898989" stroke-width="0.1806" stroke-miterlimit="10" d="M154.562-14.668
			c-0.211,0-0.406-0.027-0.59-0.082c-0.184-0.053-0.339-0.14-0.471-0.259c-0.134-0.118-0.235-0.271-0.31-0.46
			s-0.111-0.416-0.111-0.68v-3.166h-0.73v-0.69h0.73v-1.583h0.78v1.583h1.665v0.69h-1.665v3.064c0,0.325,0.082,0.551,0.243,0.68
			c0.163,0.127,0.376,0.192,0.639,0.192c0.137,0,0.263-0.014,0.382-0.04c0.118-0.027,0.245-0.076,0.381-0.143v0.67
			c-0.136,0.075-0.279,0.13-0.434,0.167C154.921-14.687,154.75-14.668,154.562-14.668z"/>
		<path fill="#898989" stroke="#898989" stroke-width="0.1806" stroke-miterlimit="10" d="M156.925-22.014h0.892v0.862h-0.892
			V-22.014z M156.974-20.005h0.783v5.245h-0.783V-20.005z"/>
		<path fill="#898989" stroke="#898989" stroke-width="0.1806" stroke-miterlimit="10" d="M159.356-18.219h2.821v0.821h-2.821
			V-18.219z"/>
		<path fill="#898989" stroke="#898989" stroke-width="0.1806" stroke-miterlimit="10" d="M166.471-21.912h0.751l3.234,7.152h-0.861
			l-0.833-1.877h-3.863l-0.843,1.877h-0.822L166.471-21.912z M168.447-17.367l-1.612-3.613l-1.622,3.613H168.447z"/>
		<path fill="#898989" stroke="#898989" stroke-width="0.1806" stroke-miterlimit="10" d="M174.048-13.116
			c-0.438,0-0.856-0.061-1.256-0.182c-0.401-0.123-0.775-0.305-1.127-0.548l0.354-0.608c0.305,0.216,0.622,0.381,0.953,0.497
			c0.332,0.115,0.687,0.172,1.065,0.172c0.582,0,1.046-0.157,1.393-0.471c0.344-0.314,0.515-0.78,0.515-1.396v-0.619
			c-0.228,0.305-0.51,0.565-0.842,0.782c-0.33,0.217-0.736,0.324-1.217,0.324c-0.316,0-0.624-0.057-0.919-0.172
			c-0.294-0.115-0.555-0.279-0.785-0.492c-0.23-0.213-0.413-0.471-0.552-0.772c-0.139-0.301-0.208-0.64-0.208-1.019v-0.021
			c0-0.385,0.069-0.729,0.208-1.034s0.321-0.563,0.552-0.777c0.23-0.213,0.493-0.376,0.79-0.492
			c0.298-0.115,0.603-0.172,0.914-0.172c0.243,0,0.469,0.028,0.674,0.085c0.208,0.058,0.395,0.134,0.561,0.229
			c0.163,0.094,0.314,0.206,0.45,0.334c0.134,0.129,0.258,0.264,0.364,0.406v-0.944h0.783v4.333c0,0.405-0.058,0.763-0.174,1.07
			c-0.114,0.307-0.28,0.57-0.498,0.787c-0.235,0.236-0.522,0.413-0.861,0.528C174.849-13.173,174.469-13.116,174.048-13.116z
			 M174.038-15.856c0.25,0,0.49-0.042,0.721-0.126c0.23-0.084,0.437-0.207,0.614-0.366c0.179-0.158,0.322-0.347,0.432-0.563
			c0.108-0.215,0.163-0.456,0.163-0.719v-0.021c0-0.27-0.055-0.514-0.163-0.731c-0.109-0.215-0.253-0.401-0.432-0.557
			c-0.178-0.156-0.384-0.276-0.614-0.361c-0.23-0.084-0.471-0.126-0.721-0.126s-0.485,0.042-0.703,0.126
			c-0.221,0.084-0.414,0.203-0.58,0.355s-0.295,0.337-0.389,0.553c-0.097,0.217-0.144,0.46-0.144,0.73v0.02
			c0,0.264,0.05,0.506,0.148,0.726c0.097,0.221,0.228,0.408,0.394,0.563c0.166,0.156,0.359,0.277,0.58,0.366
			C173.565-15.899,173.796-15.856,174.038-15.856z"/>
		<path fill="#898989" stroke="#898989" stroke-width="0.1806" stroke-miterlimit="10" d="M178.482-22.014h0.894v0.862h-0.894
			V-22.014z M178.534-20.005h0.78v5.245h-0.78V-20.005z"/>
		<path fill="#898989" stroke="#898989" stroke-width="0.1806" stroke-miterlimit="10" d="M181.13-20.005h0.78v0.913
			c0.176-0.284,0.406-0.526,0.691-0.726c0.284-0.199,0.651-0.298,1.104-0.298c0.319,0,0.602,0.051,0.847,0.152
			c0.248,0.1,0.459,0.245,0.63,0.431c0.173,0.186,0.305,0.407,0.396,0.664c0.091,0.258,0.136,0.542,0.136,0.852v3.257h-0.78v-3.064
			c0-0.487-0.126-0.872-0.376-1.157c-0.251-0.284-0.607-0.426-1.075-0.426c-0.224,0-0.432,0.04-0.624,0.117
			c-0.191,0.078-0.359,0.189-0.501,0.335c-0.144,0.145-0.253,0.32-0.329,0.521c-0.079,0.203-0.119,0.427-0.119,0.67v3.003h-0.78
			V-20.005z"/>
		<path fill="#898989" stroke="#898989" stroke-width="0.1806" stroke-miterlimit="10" d="M189.703-13.116
			c-0.441,0-0.859-0.061-1.259-0.182c-0.398-0.123-0.775-0.305-1.127-0.548l0.356-0.608c0.305,0.216,0.622,0.381,0.954,0.497
			s0.687,0.172,1.065,0.172c0.582,0,1.045-0.157,1.39-0.471c0.344-0.314,0.518-0.78,0.518-1.396v-0.619
			c-0.23,0.305-0.511,0.565-0.843,0.782s-0.737,0.324-1.219,0.324c-0.316,0-0.621-0.057-0.916-0.172s-0.558-0.279-0.788-0.492
			c-0.23-0.213-0.413-0.471-0.552-0.772c-0.139-0.301-0.208-0.64-0.208-1.019v-0.021c0-0.385,0.069-0.729,0.208-1.034
			s0.321-0.563,0.552-0.777c0.23-0.213,0.496-0.376,0.793-0.492c0.297-0.115,0.602-0.172,0.911-0.172
			c0.246,0,0.471,0.028,0.677,0.085c0.205,0.058,0.392,0.134,0.558,0.229c0.166,0.094,0.316,0.206,0.45,0.334
			c0.137,0.129,0.258,0.264,0.367,0.406v-0.944h0.78v4.333c0,0.405-0.058,0.763-0.171,1.07c-0.117,0.307-0.283,0.57-0.498,0.787
			c-0.238,0.236-0.525,0.413-0.862,0.528C190.501-13.173,190.121-13.116,189.703-13.116z M189.693-15.856
			c0.25,0,0.49-0.042,0.721-0.126c0.23-0.084,0.434-0.207,0.614-0.366c0.178-0.158,0.322-0.347,0.431-0.563
			c0.106-0.215,0.161-0.456,0.161-0.719v-0.021c0-0.27-0.055-0.514-0.161-0.731c-0.108-0.215-0.253-0.401-0.431-0.557
			c-0.181-0.156-0.384-0.276-0.614-0.361c-0.23-0.084-0.471-0.126-0.721-0.126s-0.485,0.042-0.706,0.126
			c-0.221,0.084-0.411,0.203-0.577,0.355s-0.298,0.337-0.392,0.553c-0.094,0.217-0.142,0.46-0.142,0.73v0.02
			c0,0.264,0.048,0.506,0.146,0.726c0.1,0.221,0.23,0.408,0.396,0.563c0.166,0.156,0.359,0.277,0.577,0.366
			C189.218-15.899,189.45-15.856,189.693-15.856z"/>
		<path fill="#898989" stroke="#898989" stroke-width="0.1806" stroke-miterlimit="10" d="M199.728-14.658
			c-0.569,0-1.088-0.093-1.558-0.279c-0.471-0.187-0.92-0.472-1.346-0.858l0.498-0.588c0.372,0.338,0.748,0.591,1.127,0.757
			c0.379,0.165,0.815,0.248,1.308,0.248c0.48,0,0.865-0.113,1.152-0.339s0.431-0.517,0.431-0.868v-0.02
			c0-0.162-0.027-0.31-0.081-0.441c-0.055-0.132-0.149-0.252-0.283-0.36c-0.136-0.107-0.324-0.207-0.564-0.294
			c-0.24-0.088-0.545-0.172-0.916-0.253c-0.406-0.088-0.761-0.189-1.061-0.305c-0.303-0.115-0.55-0.254-0.748-0.416
			c-0.195-0.162-0.34-0.352-0.437-0.568c-0.094-0.217-0.141-0.47-0.141-0.761v-0.021c0-0.277,0.057-0.534,0.173-0.771
			c0.114-0.236,0.278-0.442,0.486-0.614c0.21-0.172,0.458-0.307,0.74-0.406c0.285-0.098,0.597-0.146,0.934-0.146
			c0.521,0,0.977,0.072,1.365,0.218c0.389,0.145,0.766,0.363,1.132,0.654l-0.468,0.619c-0.332-0.27-0.664-0.467-0.999-0.588
			c-0.334-0.123-0.686-0.183-1.05-0.183c-0.468,0-0.835,0.11-1.107,0.331c-0.27,0.219-0.403,0.492-0.403,0.816v0.02
			c0,0.17,0.024,0.32,0.079,0.452c0.055,0.131,0.153,0.254,0.295,0.365c0.144,0.111,0.339,0.213,0.589,0.305
			c0.251,0.09,0.57,0.177,0.964,0.259c0.79,0.176,1.375,0.419,1.749,0.729c0.376,0.312,0.564,0.738,0.564,1.279v0.02
			c0,0.305-0.062,0.58-0.184,0.827c-0.121,0.247-0.289,0.458-0.502,0.634c-0.214,0.176-0.469,0.311-0.766,0.405
			C200.403-14.705,200.079-14.658,199.728-14.658z"/>
		<path fill="#898989" stroke="#898989" stroke-width="0.1806" stroke-miterlimit="10" d="M206.017-14.638
			c-0.384,0-0.74-0.072-1.07-0.218c-0.326-0.145-0.611-0.342-0.852-0.588c-0.24-0.247-0.429-0.537-0.563-0.867
			c-0.137-0.332-0.203-0.68-0.203-1.045v-0.021c0-0.372,0.066-0.723,0.203-1.055c0.134-0.331,0.322-0.622,0.563-0.872
			c0.24-0.25,0.525-0.448,0.852-0.593c0.33-0.146,0.687-0.218,1.07-0.218c0.25,0,0.479,0.023,0.682,0.071
			c0.203,0.047,0.389,0.112,0.557,0.198c0.169,0.084,0.325,0.185,0.469,0.299c0.141,0.115,0.272,0.238,0.394,0.365l-0.518,0.549
			c-0.208-0.217-0.437-0.403-0.684-0.559c-0.248-0.155-0.55-0.233-0.909-0.233c-0.263,0-0.511,0.052-0.74,0.157
			c-0.23,0.104-0.429,0.248-0.598,0.431c-0.171,0.182-0.302,0.397-0.396,0.644c-0.094,0.246-0.141,0.513-0.141,0.796v0.02
			c0,0.285,0.047,0.55,0.146,0.798c0.097,0.246,0.233,0.463,0.406,0.649c0.171,0.186,0.374,0.331,0.609,0.436
			c0.233,0.105,0.488,0.157,0.766,0.157c0.337,0,0.637-0.075,0.896-0.223c0.261-0.148,0.496-0.335,0.706-0.559l0.498,0.467
			c-0.265,0.297-0.564,0.542-0.899,0.731C206.926-14.732,206.512-14.638,206.017-14.638z"/>
		<path fill="#898989" stroke="#898989" stroke-width="0.1806" stroke-miterlimit="10" d="M209.467-22.014h0.895v0.862h-0.895
			V-22.014z M209.52-20.005h0.78v5.245h-0.78V-20.005z"/>
		<path fill="#898989" stroke="#898989" stroke-width="0.1806" stroke-miterlimit="10" d="M214.409-14.638
			c-0.359,0-0.699-0.066-1.016-0.197c-0.317-0.132-0.595-0.318-0.833-0.558c-0.234-0.241-0.423-0.528-0.562-0.862
			c-0.139-0.335-0.208-0.706-0.208-1.111v-0.021c0-0.379,0.062-0.733,0.188-1.065c0.124-0.331,0.3-0.62,0.523-0.867
			c0.223-0.248,0.487-0.442,0.795-0.583c0.307-0.142,0.644-0.213,1.011-0.213c0.384,0,0.73,0.072,1.035,0.218
			c0.302,0.145,0.56,0.343,0.771,0.593c0.208,0.25,0.369,0.542,0.476,0.878c0.108,0.334,0.163,0.695,0.163,1.08
			c0,0.055,0,0.098,0,0.133c0,0.033-0.005,0.074-0.01,0.121h-4.161c0.027,0.284,0.097,0.537,0.203,0.756
			c0.108,0.22,0.245,0.406,0.411,0.559s0.354,0.268,0.564,0.344c0.208,0.078,0.431,0.116,0.669,0.116
			c0.364,0,0.679-0.067,0.938-0.202c0.261-0.136,0.498-0.314,0.716-0.539l0.485,0.438c-0.262,0.297-0.564,0.536-0.901,0.714
			C215.328-14.728,214.909-14.638,214.409-14.638z M215.959-17.671c-0.02-0.237-0.069-0.463-0.146-0.68
			c-0.077-0.216-0.186-0.406-0.324-0.568s-0.308-0.292-0.508-0.39c-0.198-0.098-0.432-0.147-0.694-0.147
			c-0.23,0-0.443,0.046-0.639,0.138c-0.198,0.09-0.369,0.217-0.518,0.375c-0.148,0.159-0.272,0.347-0.367,0.563
			c-0.094,0.217-0.155,0.453-0.183,0.711H215.959z"/>
		<path fill="#898989" stroke="#898989" stroke-width="0.1806" stroke-miterlimit="10" d="M218.122-20.005h0.78v0.913
			c0.176-0.284,0.406-0.526,0.691-0.726c0.284-0.199,0.651-0.298,1.104-0.298c0.319,0,0.602,0.051,0.847,0.152
			c0.248,0.1,0.459,0.245,0.63,0.431c0.173,0.186,0.305,0.407,0.396,0.664c0.092,0.258,0.137,0.542,0.137,0.852v3.257h-0.78v-3.064
			c0-0.487-0.126-0.872-0.377-1.157c-0.25-0.284-0.606-0.426-1.075-0.426c-0.223,0-0.431,0.04-0.624,0.117
			c-0.19,0.078-0.358,0.189-0.5,0.335c-0.144,0.145-0.253,0.32-0.329,0.521c-0.08,0.203-0.119,0.427-0.119,0.67v3.003h-0.78V-20.005
			z"/>
		<path fill="#898989" stroke="#898989" stroke-width="0.1806" stroke-miterlimit="10" d="M226.734-14.638
			c-0.384,0-0.74-0.072-1.07-0.218c-0.326-0.145-0.611-0.342-0.852-0.588c-0.24-0.247-0.429-0.537-0.563-0.867
			c-0.136-0.332-0.203-0.68-0.203-1.045v-0.021c0-0.372,0.067-0.723,0.203-1.055c0.134-0.331,0.322-0.622,0.563-0.872
			c0.24-0.25,0.525-0.448,0.852-0.593c0.33-0.146,0.687-0.218,1.07-0.218c0.25,0,0.479,0.023,0.682,0.071
			c0.203,0.047,0.389,0.112,0.557,0.198c0.169,0.084,0.325,0.185,0.469,0.299c0.141,0.115,0.272,0.238,0.394,0.365l-0.518,0.549
			c-0.208-0.217-0.436-0.403-0.684-0.559c-0.248-0.155-0.55-0.233-0.909-0.233c-0.263,0-0.51,0.052-0.74,0.157
			c-0.23,0.104-0.429,0.248-0.598,0.431c-0.171,0.182-0.302,0.397-0.396,0.644c-0.094,0.246-0.141,0.513-0.141,0.796v0.02
			c0,0.285,0.047,0.55,0.146,0.798c0.096,0.246,0.232,0.463,0.406,0.649c0.171,0.186,0.374,0.331,0.609,0.436
			c0.232,0.105,0.487,0.157,0.765,0.157c0.337,0,0.637-0.075,0.897-0.223c0.26-0.148,0.495-0.335,0.705-0.559l0.498,0.467
			c-0.265,0.297-0.564,0.542-0.898,0.731C227.644-14.732,227.229-14.638,226.734-14.638z"/>
		<path fill="#898989" stroke="#898989" stroke-width="0.1806" stroke-miterlimit="10" d="M232.459-14.638
			c-0.359,0-0.698-0.066-1.016-0.197c-0.317-0.132-0.595-0.318-0.832-0.558c-0.235-0.241-0.424-0.528-0.563-0.862
			c-0.139-0.335-0.208-0.706-0.208-1.111v-0.021c0-0.379,0.062-0.733,0.188-1.065c0.124-0.331,0.3-0.62,0.522-0.867
			c0.223-0.248,0.488-0.442,0.795-0.583c0.308-0.142,0.645-0.213,1.011-0.213c0.384,0,0.73,0.072,1.035,0.218
			c0.303,0.145,0.56,0.343,0.771,0.593c0.208,0.25,0.369,0.542,0.476,0.878c0.109,0.334,0.164,0.695,0.164,1.08
			c0,0.055,0,0.098,0,0.133c0,0.033-0.006,0.074-0.011,0.121h-4.161c0.027,0.284,0.097,0.537,0.203,0.756
			c0.109,0.22,0.245,0.406,0.411,0.559s0.354,0.268,0.564,0.344c0.208,0.078,0.432,0.116,0.669,0.116
			c0.364,0,0.679-0.067,0.939-0.202c0.26-0.136,0.497-0.314,0.716-0.539l0.485,0.438c-0.263,0.297-0.565,0.536-0.901,0.714
			C233.378-14.728,232.959-14.638,232.459-14.638z M234.01-17.671c-0.02-0.237-0.069-0.463-0.146-0.68
			c-0.076-0.216-0.186-0.406-0.324-0.568s-0.308-0.292-0.508-0.39c-0.198-0.098-0.431-0.147-0.693-0.147
			c-0.23,0-0.443,0.046-0.64,0.138c-0.198,0.09-0.369,0.217-0.518,0.375c-0.148,0.159-0.272,0.347-0.366,0.563
			c-0.095,0.217-0.156,0.453-0.184,0.711H234.01z"/>
		<path fill="#898989" stroke="#898989" stroke-width="0.1806" stroke-miterlimit="10" d="M237.906-14.658
			c-0.379,0-0.761-0.069-1.145-0.208c-0.387-0.139-0.729-0.326-1.025-0.563l0.396-0.557c0.282,0.216,0.579,0.381,0.887,0.497
			c0.307,0.115,0.616,0.172,0.929,0.172c0.317,0,0.577-0.074,0.78-0.223c0.203-0.149,0.305-0.352,0.305-0.608v-0.021
			c0-0.127-0.035-0.239-0.106-0.334c-0.072-0.094-0.169-0.177-0.29-0.249c-0.121-0.07-0.263-0.133-0.421-0.187
			c-0.159-0.054-0.322-0.105-0.49-0.152c-0.203-0.061-0.409-0.127-0.614-0.198c-0.206-0.071-0.395-0.161-0.558-0.269
			c-0.166-0.107-0.303-0.244-0.406-0.406c-0.106-0.162-0.159-0.365-0.159-0.608v-0.021c0-0.223,0.045-0.427,0.134-0.613
			c0.087-0.186,0.211-0.346,0.369-0.477c0.159-0.133,0.35-0.234,0.567-0.305c0.221-0.071,0.458-0.106,0.716-0.106
			c0.325,0,0.654,0.052,0.983,0.157c0.332,0.105,0.635,0.245,0.904,0.421l-0.354,0.588c-0.245-0.155-0.5-0.279-0.768-0.371
			c-0.265-0.091-0.527-0.137-0.785-0.137c-0.313,0-0.558,0.073-0.74,0.219c-0.184,0.145-0.275,0.326-0.275,0.542v0.02
			c0,0.123,0.037,0.229,0.111,0.32c0.074,0.092,0.176,0.171,0.3,0.239c0.126,0.067,0.271,0.129,0.431,0.182
			c0.164,0.055,0.332,0.109,0.508,0.163c0.203,0.062,0.404,0.128,0.604,0.203c0.198,0.074,0.379,0.169,0.543,0.285
			c0.163,0.115,0.292,0.252,0.392,0.415c0.096,0.163,0.146,0.363,0.146,0.599v0.02c0,0.25-0.05,0.472-0.146,0.665
			c-0.1,0.192-0.23,0.356-0.396,0.492c-0.166,0.135-0.362,0.239-0.59,0.31C238.416-14.694,238.171-14.658,237.906-14.658z"/>
		<path fill="#898989" stroke="#898989" stroke-width="0.1806" stroke-miterlimit="10" d="M116.047-7.911h2.658
			c0.399,0,0.763,0.052,1.091,0.157c0.329,0.104,0.608,0.252,0.843,0.446c0.232,0.193,0.411,0.427,0.537,0.705
			c0.124,0.278,0.188,0.592,0.188,0.944v0.021c0,0.385-0.077,0.722-0.226,1.01c-0.148,0.287-0.35,0.529-0.603,0.724
			c-0.254,0.197-0.55,0.345-0.888,0.442c-0.338,0.098-0.696,0.147-1.075,0.147h-1.725v2.505h-0.801V-7.911z M118.603-4.045
			c0.291,0,0.557-0.037,0.796-0.111c0.24-0.074,0.447-0.181,0.619-0.319c0.172-0.139,0.305-0.304,0.396-0.493
			c0.09-0.189,0.137-0.402,0.137-0.639v-0.02c0-0.508-0.174-0.892-0.523-1.152c-0.348-0.26-0.81-0.39-1.384-0.39h-1.796v3.125
			H118.603z"/>
		<path fill="#898989" stroke="#898989" stroke-width="0.1806" stroke-miterlimit="10" d="M122.691-6.054h0.78v1.37
			c0.097-0.216,0.214-0.416,0.357-0.599c0.141-0.182,0.305-0.339,0.485-0.472c0.184-0.131,0.384-0.231,0.6-0.298
			c0.215-0.068,0.45-0.098,0.701-0.092v0.842h-0.063c-0.285,0-0.553,0.051-0.808,0.152c-0.252,0.102-0.473,0.254-0.664,0.456
			c-0.188,0.203-0.337,0.456-0.445,0.756c-0.109,0.301-0.164,0.648-0.164,1.04v2.09h-0.78V-6.054z"/>
		<path fill="#898989" stroke="#898989" stroke-width="0.1806" stroke-miterlimit="10" d="M129.196-0.688
			c-0.394,0-0.755-0.072-1.087-0.218c-0.33-0.145-0.617-0.342-0.862-0.588c-0.243-0.246-0.434-0.534-0.567-0.862
			c-0.136-0.328-0.203-0.679-0.203-1.05v-0.021c0-0.372,0.067-0.723,0.203-1.055c0.134-0.331,0.324-0.622,0.567-0.872
			c0.245-0.25,0.532-0.448,0.867-0.593c0.337-0.146,0.703-0.218,1.103-0.218c0.391,0,0.755,0.072,1.09,0.218
			c0.334,0.145,0.624,0.342,0.866,0.588c0.246,0.247,0.434,0.534,0.57,0.862c0.134,0.329,0.203,0.679,0.203,1.05v0.02
			c0,0.373-0.069,0.725-0.208,1.055c-0.139,0.332-0.33,0.623-0.575,0.873c-0.242,0.25-0.532,0.448-0.872,0.593
			C129.952-0.759,129.588-0.688,129.196-0.688z M129.217-1.387c0.284,0,0.545-0.055,0.78-0.163c0.237-0.107,0.44-0.254,0.609-0.436
			c0.168-0.183,0.299-0.396,0.396-0.639c0.095-0.244,0.142-0.504,0.142-0.782v-0.021c0-0.284-0.05-0.549-0.146-0.796
			c-0.099-0.247-0.235-0.463-0.411-0.649c-0.176-0.186-0.381-0.333-0.619-0.441c-0.237-0.109-0.493-0.162-0.771-0.162
			c-0.284,0-0.545,0.053-0.782,0.162c-0.235,0.108-0.438,0.254-0.603,0.436c-0.166,0.182-0.297,0.397-0.391,0.644
			c-0.095,0.248-0.142,0.509-0.142,0.786v0.02c0,0.285,0.047,0.55,0.146,0.797c0.097,0.247,0.232,0.461,0.406,0.644
			c0.171,0.182,0.376,0.329,0.614,0.436C128.682-1.442,128.939-1.387,129.217-1.387z"/>
		<path fill="#898989" stroke="#898989" stroke-width="0.1806" stroke-miterlimit="10" d="M133.355-6.054h0.78v1.055
			c0.109-0.156,0.23-0.305,0.361-0.447c0.132-0.142,0.277-0.265,0.441-0.371c0.163-0.104,0.344-0.189,0.542-0.254
			c0.201-0.063,0.422-0.095,0.664-0.095c0.313,0,0.619,0.061,0.919,0.182c0.303,0.121,0.57,0.3,0.808,0.532
			c0.235,0.234,0.426,0.518,0.567,0.852c0.141,0.336,0.213,0.72,0.213,1.152v0.02c0,0.427-0.072,0.809-0.213,1.147
			c-0.142,0.338-0.329,0.624-0.563,0.857c-0.232,0.234-0.5,0.414-0.803,0.539c-0.3,0.125-0.609,0.187-0.929,0.187
			c-0.242,0-0.466-0.03-0.669-0.091c-0.203-0.061-0.386-0.141-0.547-0.243c-0.164-0.102-0.31-0.221-0.441-0.355
			c-0.134-0.135-0.25-0.278-0.352-0.426v2.628h-0.78V-6.054z M136.004-1.397c0.25,0,0.487-0.046,0.716-0.137
			c0.225-0.09,0.421-0.223,0.587-0.395c0.166-0.172,0.3-0.384,0.396-0.634c0.099-0.25,0.148-0.535,0.148-0.852v-0.021
			c0-0.311-0.05-0.592-0.148-0.842c-0.097-0.25-0.23-0.463-0.401-0.639c-0.169-0.176-0.364-0.311-0.587-0.405
			c-0.224-0.096-0.461-0.143-0.711-0.143c-0.243,0-0.479,0.049-0.706,0.147c-0.226,0.098-0.429,0.236-0.607,0.416
			c-0.181,0.178-0.322,0.392-0.426,0.639c-0.106,0.247-0.158,0.519-0.158,0.816v0.02c0,0.305,0.052,0.582,0.158,0.832
			c0.104,0.25,0.245,0.463,0.426,0.639c0.179,0.176,0.382,0.313,0.607,0.411C135.525-1.447,135.761-1.397,136.004-1.397z"/>
		<path fill="#898989" stroke="#898989" stroke-width="0.1806" stroke-miterlimit="10" d="M142.021-0.698
			c-0.32,0-0.603-0.051-0.848-0.152c-0.247-0.102-0.458-0.245-0.629-0.431c-0.174-0.186-0.305-0.408-0.396-0.665
			c-0.092-0.256-0.136-0.54-0.136-0.852v-3.256h0.78v3.064c0,0.487,0.126,0.872,0.376,1.157c0.25,0.284,0.607,0.426,1.075,0.426
			c0.223,0,0.431-0.04,0.624-0.118c0.193-0.077,0.356-0.188,0.495-0.334c0.139-0.145,0.251-0.319,0.332-0.522
			c0.079-0.203,0.122-0.426,0.122-0.669v-3.003h0.77v5.245h-0.77v-0.913c-0.176,0.284-0.406,0.525-0.691,0.725
			C142.843-0.798,142.474-0.698,142.021-0.698z"/>
		<path fill="#898989" stroke="#898989" stroke-width="0.1806" stroke-miterlimit="10" d="M146.412-8.215h0.782v7.406h-0.782V-8.215
			z"/>
		<path fill="#898989" stroke="#898989" stroke-width="0.1806" stroke-miterlimit="10" d="M150.744-0.708
			c-0.379,0-0.761-0.069-1.146-0.208c-0.387-0.139-0.726-0.326-1.025-0.563l0.396-0.558c0.285,0.217,0.58,0.382,0.89,0.497
			c0.308,0.115,0.617,0.172,0.927,0.172c0.319,0,0.579-0.074,0.782-0.223c0.203-0.149,0.305-0.352,0.305-0.608V-2.22
			c0-0.127-0.037-0.239-0.106-0.334c-0.071-0.094-0.168-0.177-0.29-0.249c-0.121-0.07-0.262-0.134-0.421-0.187
			c-0.158-0.054-0.324-0.105-0.493-0.152c-0.203-0.061-0.406-0.127-0.614-0.198c-0.205-0.071-0.391-0.161-0.557-0.269
			s-0.3-0.244-0.406-0.406c-0.104-0.162-0.156-0.365-0.156-0.608v-0.021c0-0.223,0.045-0.427,0.131-0.613
			c0.087-0.186,0.211-0.346,0.372-0.477c0.158-0.133,0.347-0.234,0.567-0.305c0.22-0.071,0.458-0.107,0.716-0.107
			c0.324,0,0.651,0.052,0.983,0.158c0.332,0.105,0.631,0.245,0.903,0.421l-0.356,0.588c-0.242-0.155-0.498-0.279-0.766-0.371
			c-0.267-0.091-0.529-0.137-0.787-0.137c-0.31,0-0.558,0.073-0.741,0.219c-0.181,0.145-0.272,0.326-0.272,0.542v0.02
			c0,0.123,0.037,0.229,0.112,0.32c0.074,0.091,0.173,0.171,0.299,0.239c0.124,0.067,0.268,0.129,0.432,0.182
			c0.161,0.055,0.332,0.109,0.508,0.162c0.203,0.062,0.403,0.129,0.602,0.203c0.201,0.075,0.382,0.17,0.543,0.285
			c0.163,0.115,0.295,0.252,0.391,0.415c0.1,0.163,0.149,0.363,0.149,0.599v0.02c0,0.25-0.05,0.472-0.149,0.665
			c-0.096,0.192-0.229,0.356-0.396,0.492c-0.164,0.135-0.362,0.239-0.588,0.31C151.252-0.743,151.007-0.708,150.744-0.708z"/>
		<path fill="#898989" stroke="#898989" stroke-width="0.1806" stroke-miterlimit="10" d="M154.083-8.063h0.892v0.862h-0.892V-8.063
			z M154.133-6.054h0.783v5.245h-0.783V-6.054z"/>
		<path fill="#898989" stroke="#898989" stroke-width="0.1806" stroke-miterlimit="10" d="M159.124-0.688
			c-0.392,0-0.753-0.072-1.085-0.218c-0.332-0.145-0.619-0.342-0.862-0.588c-0.245-0.246-0.434-0.534-0.569-0.862
			c-0.134-0.328-0.203-0.679-0.203-1.05v-0.021c0-0.372,0.069-0.723,0.203-1.055c0.136-0.331,0.324-0.622,0.569-0.872
			c0.243-0.25,0.533-0.448,0.867-0.593c0.335-0.146,0.701-0.218,1.1-0.218c0.395,0,0.758,0.072,1.093,0.218
			c0.334,0.145,0.624,0.342,0.867,0.588c0.242,0.247,0.434,0.534,0.567,0.862c0.136,0.329,0.203,0.679,0.203,1.05v0.02
			c0,0.373-0.07,0.725-0.209,1.055c-0.139,0.332-0.329,0.623-0.571,0.873c-0.246,0.25-0.535,0.448-0.872,0.593
			C159.882-0.759,159.516-0.688,159.124-0.688z M159.144-1.387c0.285,0,0.545-0.055,0.783-0.163
			c0.235-0.107,0.438-0.254,0.609-0.436c0.168-0.183,0.3-0.396,0.394-0.639c0.094-0.244,0.144-0.504,0.144-0.782v-0.021
			c0-0.284-0.05-0.549-0.148-0.796c-0.097-0.247-0.235-0.463-0.411-0.649c-0.176-0.186-0.382-0.333-0.619-0.441
			c-0.235-0.109-0.493-0.162-0.771-0.162c-0.285,0-0.545,0.053-0.78,0.162c-0.237,0.108-0.438,0.254-0.604,0.436
			s-0.295,0.397-0.392,0.644c-0.094,0.248-0.141,0.509-0.141,0.786v0.02c0,0.285,0.05,0.55,0.146,0.797
			c0.1,0.247,0.235,0.461,0.406,0.644c0.174,0.182,0.377,0.329,0.614,0.436C158.611-1.442,158.866-1.387,159.144-1.387z"/>
		<path fill="#898989" stroke="#898989" stroke-width="0.1806" stroke-miterlimit="10" d="M163.285-6.054h0.78v0.913
			c0.176-0.283,0.406-0.526,0.688-0.726c0.285-0.199,0.654-0.298,1.107-0.298c0.317,0,0.6,0.051,0.848,0.152
			c0.247,0.1,0.455,0.245,0.629,0.431c0.171,0.186,0.305,0.407,0.396,0.664c0.089,0.258,0.136,0.541,0.136,0.852v3.257h-0.78v-3.064
			c0-0.487-0.126-0.872-0.376-1.157c-0.25-0.284-0.609-0.426-1.075-0.426c-0.223,0-0.431,0.04-0.624,0.117
			c-0.193,0.078-0.362,0.189-0.503,0.335c-0.142,0.145-0.253,0.319-0.33,0.521c-0.076,0.203-0.116,0.427-0.116,0.67v3.003h-0.78
			V-6.054z"/>
		<path fill="#898989" stroke="#898989" stroke-width="0.1806" stroke-miterlimit="10" d="M172.711-7.911h0.8v6.361h3.998v0.741
			h-4.798V-7.911z"/>
		<path fill="#898989" stroke="#898989" stroke-width="0.1806" stroke-miterlimit="10" d="M180.422-0.698
			c-0.245,0-0.483-0.033-0.716-0.102c-0.233-0.067-0.443-0.171-0.63-0.31c-0.186-0.139-0.334-0.31-0.445-0.511
			c-0.111-0.203-0.169-0.44-0.169-0.711v-0.02c0-0.277,0.055-0.521,0.164-0.73c0.106-0.209,0.263-0.385,0.46-0.528
			c0.201-0.143,0.437-0.25,0.711-0.324c0.272-0.075,0.577-0.112,0.907-0.112c0.339,0,0.634,0.02,0.884,0.061
			c0.251,0.041,0.493,0.094,0.731,0.162v-0.182c0-0.474-0.139-0.831-0.411-1.071c-0.275-0.24-0.659-0.36-1.152-0.36
			c-0.313,0-0.595,0.036-0.847,0.106c-0.253,0.072-0.503,0.165-0.746,0.28l-0.232-0.639c0.289-0.136,0.584-0.243,0.882-0.319
			c0.297-0.078,0.639-0.118,1.025-0.118c0.743,0,1.308,0.193,1.694,0.579c0.356,0.359,0.537,0.869,0.537,1.532v3.207h-0.75v-0.792
			c-0.184,0.237-0.429,0.446-0.736,0.629C181.273-0.789,180.888-0.698,180.422-0.698z M180.572-1.317
			c0.246,0,0.474-0.035,0.687-0.106c0.213-0.071,0.398-0.168,0.558-0.293c0.158-0.125,0.284-0.274,0.376-0.447
			c0.09-0.172,0.137-0.363,0.137-0.572v-0.508c-0.196-0.054-0.421-0.105-0.677-0.152c-0.252-0.047-0.542-0.07-0.866-0.07
			c-0.493,0-0.872,0.098-1.138,0.293c-0.263,0.197-0.394,0.461-0.394,0.792v0.021c0,0.162,0.034,0.308,0.106,0.441
			c0.069,0.131,0.166,0.241,0.287,0.33c0.124,0.088,0.263,0.156,0.421,0.203C180.23-1.34,180.396-1.317,180.572-1.317z"/>
		<path fill="#898989" stroke="#898989" stroke-width="0.1806" stroke-miterlimit="10" d="M187.523-0.698
			c-0.243,0-0.469-0.03-0.669-0.091c-0.203-0.061-0.387-0.141-0.55-0.243c-0.161-0.102-0.31-0.221-0.441-0.355
			c-0.131-0.135-0.247-0.278-0.349-0.426v1.004h-0.78v-7.406h0.78v3.216c0.108-0.156,0.228-0.305,0.358-0.447
			c0.134-0.142,0.28-0.265,0.441-0.371c0.163-0.104,0.344-0.189,0.545-0.254c0.198-0.063,0.421-0.095,0.664-0.095
			c0.31,0,0.616,0.061,0.919,0.182c0.3,0.121,0.569,0.3,0.805,0.532c0.238,0.234,0.426,0.518,0.57,0.852
			c0.141,0.336,0.213,0.72,0.213,1.152v0.02c0,0.427-0.072,0.809-0.213,1.147c-0.145,0.338-0.332,0.624-0.565,0.857
			c-0.232,0.234-0.5,0.414-0.8,0.539C188.149-0.759,187.84-0.698,187.523-0.698z M187.382-1.397c0.25,0,0.488-0.046,0.714-0.137
			c0.228-0.09,0.423-0.223,0.589-0.395c0.166-0.172,0.298-0.384,0.396-0.634c0.097-0.25,0.146-0.535,0.146-0.852v-0.021
			c0-0.311-0.05-0.592-0.146-0.842c-0.099-0.25-0.232-0.463-0.401-0.639c-0.168-0.176-0.366-0.311-0.589-0.405
			c-0.224-0.096-0.459-0.143-0.709-0.143c-0.245,0-0.48,0.049-0.706,0.147c-0.228,0.098-0.431,0.236-0.609,0.416
			c-0.178,0.178-0.321,0.392-0.426,0.639c-0.104,0.247-0.156,0.519-0.156,0.816v0.02c0,0.305,0.052,0.582,0.156,0.832
			c0.104,0.25,0.248,0.463,0.426,0.639c0.179,0.176,0.382,0.313,0.609,0.411C186.901-1.447,187.137-1.397,187.382-1.397z"/>
		<path fill="#898989" stroke="#898989" stroke-width="0.1806" stroke-miterlimit="10" d="M193.203-0.708
			c-0.379,0-0.761-0.069-1.145-0.208c-0.387-0.139-0.729-0.326-1.025-0.563l0.396-0.558c0.282,0.217,0.579,0.382,0.887,0.497
			c0.307,0.115,0.616,0.172,0.929,0.172c0.317,0,0.577-0.074,0.78-0.223c0.203-0.149,0.305-0.352,0.305-0.608V-2.22
			c0-0.127-0.035-0.239-0.106-0.334c-0.072-0.094-0.169-0.177-0.29-0.249c-0.121-0.07-0.263-0.134-0.421-0.187
			c-0.158-0.054-0.322-0.105-0.49-0.152c-0.203-0.061-0.409-0.127-0.614-0.198c-0.206-0.071-0.395-0.161-0.558-0.269
			c-0.166-0.108-0.302-0.244-0.406-0.406c-0.106-0.162-0.158-0.365-0.158-0.608v-0.021c0-0.223,0.044-0.427,0.134-0.613
			c0.086-0.186,0.21-0.346,0.369-0.477c0.158-0.133,0.349-0.234,0.566-0.305c0.221-0.071,0.459-0.107,0.716-0.107
			c0.325,0,0.654,0.052,0.983,0.158c0.332,0.105,0.635,0.245,0.904,0.421l-0.354,0.588c-0.246-0.155-0.501-0.279-0.769-0.371
			c-0.265-0.091-0.527-0.137-0.785-0.137c-0.312,0-0.558,0.073-0.74,0.219c-0.184,0.145-0.275,0.326-0.275,0.542v0.02
			c0,0.123,0.037,0.229,0.111,0.32c0.074,0.091,0.176,0.171,0.3,0.239c0.127,0.067,0.271,0.129,0.432,0.182
			c0.163,0.055,0.331,0.109,0.508,0.162c0.203,0.062,0.403,0.129,0.604,0.203c0.198,0.075,0.38,0.17,0.543,0.285
			s0.292,0.252,0.392,0.415c0.097,0.163,0.146,0.363,0.146,0.599v0.02c0,0.25-0.049,0.472-0.146,0.665
			c-0.1,0.192-0.23,0.356-0.396,0.492c-0.166,0.135-0.361,0.239-0.59,0.31C193.713-0.743,193.468-0.708,193.203-0.708z"/>
		<path fill="#898989" stroke="#898989" stroke-width="0.1806" stroke-miterlimit="10" d="M202.942-0.688
			c-0.513,0-0.985-0.094-1.419-0.284s-0.808-0.448-1.127-0.777c-0.317-0.328-0.564-0.714-0.746-1.162
			c-0.178-0.446-0.268-0.922-0.268-1.43v-0.02c0-0.5,0.09-0.975,0.268-1.42c0.182-0.447,0.429-0.837,0.746-1.172
			c0.319-0.335,0.698-0.6,1.137-0.792c0.441-0.193,0.919-0.29,1.441-0.29c0.325,0,0.617,0.027,0.877,0.082
			c0.261,0.055,0.503,0.13,0.726,0.228c0.224,0.098,0.429,0.217,0.62,0.355c0.188,0.139,0.371,0.292,0.547,0.462l-0.547,0.588
			c-0.305-0.285-0.632-0.518-0.979-0.701c-0.35-0.182-0.769-0.273-1.254-0.273c-0.394,0-0.755,0.074-1.092,0.224
			c-0.335,0.148-0.625,0.354-0.872,0.618c-0.248,0.264-0.438,0.574-0.577,0.929s-0.208,0.735-0.208,1.141v0.021
			c0,0.413,0.069,0.796,0.208,1.152c0.139,0.354,0.329,0.664,0.577,0.928c0.247,0.264,0.537,0.472,0.872,0.624
			c0.337,0.152,0.698,0.228,1.092,0.228c0.485,0,0.906-0.089,1.259-0.269c0.352-0.178,0.695-0.431,1.032-0.755l0.528,0.518
			c-0.182,0.19-0.374,0.361-0.572,0.512c-0.201,0.152-0.414,0.282-0.645,0.392c-0.23,0.107-0.478,0.192-0.74,0.253
			C203.562-0.717,203.27-0.688,202.942-0.688z"/>
		<path fill="#898989" stroke="#898989" stroke-width="0.1806" stroke-miterlimit="10" d="M209.447-0.688
			c-0.392,0-0.753-0.072-1.085-0.218c-0.332-0.145-0.619-0.342-0.862-0.588c-0.245-0.246-0.433-0.534-0.569-0.862
			c-0.134-0.328-0.203-0.679-0.203-1.05v-0.021c0-0.372,0.069-0.723,0.203-1.055c0.137-0.331,0.324-0.622,0.569-0.872
			c0.243-0.25,0.533-0.448,0.867-0.593c0.335-0.146,0.701-0.218,1.1-0.218c0.395,0,0.759,0.072,1.093,0.218
			c0.334,0.145,0.624,0.342,0.867,0.588c0.242,0.247,0.434,0.534,0.567,0.862c0.136,0.329,0.203,0.679,0.203,1.05v0.02
			c0,0.373-0.069,0.725-0.208,1.055c-0.14,0.332-0.33,0.623-0.572,0.873c-0.245,0.25-0.535,0.448-0.872,0.593
			C210.205-0.759,209.839-0.688,209.447-0.688z M209.467-1.387c0.285,0,0.545-0.055,0.783-0.163
			c0.235-0.107,0.438-0.254,0.609-0.436c0.168-0.183,0.3-0.396,0.394-0.639c0.095-0.244,0.144-0.504,0.144-0.782v-0.021
			c0-0.284-0.049-0.549-0.148-0.796c-0.097-0.247-0.235-0.463-0.411-0.649c-0.176-0.186-0.382-0.333-0.619-0.441
			c-0.235-0.109-0.493-0.162-0.771-0.162c-0.285,0-0.545,0.053-0.78,0.162c-0.237,0.108-0.438,0.254-0.604,0.436
			s-0.295,0.397-0.392,0.644c-0.094,0.248-0.141,0.509-0.141,0.786v0.02c0,0.285,0.05,0.55,0.146,0.797
			c0.099,0.247,0.234,0.461,0.405,0.644c0.174,0.182,0.377,0.329,0.615,0.436C208.935-1.442,209.189-1.387,209.467-1.387z"/>
		<path fill="#898989" stroke="#898989" stroke-width="0.1806" stroke-miterlimit="10" d="M213.518-1.874h0.931v1.065h-0.931V-1.874
			z"/>
		<path fill="#898989" stroke="#898989" stroke-width="0.1806" stroke-miterlimit="10" d="M215.688,0.074
			c0.257-0.096,0.44-0.212,0.547-0.351c0.109-0.139,0.153-0.316,0.134-0.533h-0.366v-1.065h0.934v0.913
			c0,0.413-0.092,0.726-0.275,0.939c-0.181,0.213-0.466,0.363-0.852,0.451L215.688,0.074z"/>
		<path fill="#898989" stroke="#898989" stroke-width="0.1806" stroke-miterlimit="10" d="M221.756-7.911h0.8v6.361h3.998v0.741
			h-4.798V-7.911z"/>
		<path fill="#898989" stroke="#898989" stroke-width="0.1806" stroke-miterlimit="10" d="M229.66-0.717
			c-0.211,0-0.406-0.027-0.59-0.082c-0.184-0.053-0.339-0.14-0.471-0.259c-0.134-0.118-0.235-0.271-0.31-0.46
			s-0.111-0.417-0.111-0.68v-3.166h-0.73v-0.69h0.73v-1.583h0.78v1.583h1.664v0.69h-1.664V-2.3c0,0.325,0.082,0.551,0.243,0.68
			c0.163,0.127,0.376,0.192,0.639,0.192c0.136,0,0.263-0.014,0.382-0.04c0.118-0.027,0.245-0.076,0.381-0.143v0.67
			c-0.136,0.074-0.279,0.13-0.434,0.167C230.02-0.736,229.849-0.717,229.66-0.717z"/>
		<path fill="#898989" stroke="#898989" stroke-width="0.1806" stroke-miterlimit="10" d="M234.203-0.698
			c-0.317,0-0.625-0.061-0.922-0.182c-0.3-0.123-0.564-0.3-0.803-0.533c-0.237-0.234-0.426-0.518-0.567-0.854
			c-0.144-0.334-0.213-0.718-0.213-1.15v-0.021c0-0.426,0.069-0.808,0.213-1.146c0.142-0.338,0.33-0.624,0.567-0.858
			c0.238-0.233,0.503-0.413,0.803-0.538c0.297-0.125,0.604-0.187,0.922-0.187c0.245,0,0.468,0.03,0.671,0.09
			c0.203,0.062,0.384,0.143,0.548,0.244c0.16,0.102,0.31,0.219,0.44,0.355c0.132,0.135,0.248,0.277,0.35,0.426v-3.166h0.782v7.406
			h-0.782v-1.055c-0.106,0.156-0.229,0.305-0.359,0.446c-0.131,0.143-0.28,0.268-0.441,0.376c-0.163,0.108-0.344,0.192-0.542,0.253
			C234.669-0.728,234.448-0.698,234.203-0.698z M234.347-1.397c0.242,0,0.478-0.049,0.703-0.147
			c0.228-0.098,0.431-0.236,0.609-0.416c0.179-0.178,0.322-0.391,0.426-0.639c0.104-0.246,0.159-0.522,0.159-0.827v-0.02
			c0-0.305-0.055-0.58-0.159-0.827c-0.104-0.247-0.247-0.457-0.426-0.634c-0.179-0.176-0.382-0.312-0.609-0.41
			c-0.226-0.098-0.461-0.147-0.703-0.147c-0.258,0-0.498,0.046-0.721,0.136c-0.224,0.092-0.419,0.224-0.585,0.396
			c-0.166,0.172-0.297,0.384-0.394,0.634c-0.1,0.25-0.148,0.534-0.148,0.852v0.02c0,0.312,0.052,0.592,0.153,0.842
			c0.102,0.251,0.235,0.464,0.403,0.639c0.171,0.177,0.367,0.312,0.59,0.406C233.868-1.444,234.102-1.397,234.347-1.397z"/>
		<path fill="#898989" stroke="#898989" stroke-width="0.1806" stroke-miterlimit="10" d="M238.646-1.874h0.934v1.065h-0.934V-1.874
			z"/>
	</g>
	<g>
		<g>
			<path fill="#3789CA" d="M180.345,57.862c-1.008-1.033-2.36-1.611-3.805-1.628c-1.445-0.018-2.809,0.53-3.845,1.54
				c-2.133,2.083-2.172,5.515-0.088,7.647c1.01,1.033,2.361,1.612,3.807,1.629c1.443,0.017,2.809-0.53,3.842-1.54
				C182.389,63.428,182.428,59.996,180.345,57.862z"/>
			<path fill="#3789CA" d="M148.711,69.019c-0.806-0.824-1.883-1.284-3.035-1.298c-1.151-0.014-2.238,0.423-3.063,1.228
				c-1.699,1.662-1.731,4.397-0.069,6.098c0.805,0.824,1.883,1.285,3.034,1.298c1.151,0.014,2.239-0.422,3.062-1.227
				C150.341,73.456,150.373,70.72,148.711,69.019z"/>
			<path fill="#3789CA" d="M117.004,72.172c-0.663-0.679-1.55-1.06-2.499-1.07c-0.95-0.011-1.845,0.348-2.525,1.011
				c-1.401,1.37-1.427,3.624-0.058,5.024c0.663,0.679,1.551,1.06,2.5,1.07c0.949,0.011,1.845-0.348,2.523-1.012
				C118.347,75.826,118.373,73.572,117.004,72.172z"/>
			<path fill="#3789CA" d="M89.017,69.875c-0.52-0.532-1.218-0.831-1.963-0.839c-0.746-0.009-1.45,0.273-1.983,0.794
				c-1.101,1.076-1.122,2.847-0.045,3.948c0.521,0.532,1.218,0.831,1.964,0.84c0.745,0.008,1.45-0.274,1.982-0.794
				C90.072,72.748,90.093,70.977,89.017,69.875z"/>
			<path fill="#3789CA" d="M68.192,63.681c-0.391-0.401-0.914-0.624-1.473-0.632c-0.56-0.006-1.088,0.205-1.489,0.597
				c-0.826,0.807-0.842,2.136-0.034,2.962c0.391,0.399,0.914,0.624,1.474,0.631s1.088-0.205,1.488-0.597
				C68.984,65.835,69,64.505,68.192,63.681z"/>
			<path fill="#3789CA" d="M52.754,55.509c-0.285-0.291-0.665-0.453-1.071-0.458c-0.407-0.005-0.791,0.148-1.083,0.434
				c-0.6,0.587-0.611,1.553-0.025,2.152c0.285,0.291,0.665,0.454,1.072,0.458c0.406,0.005,0.791-0.148,1.082-0.433
				C53.33,57.075,53.341,56.109,52.754,55.509z"/>
		</g>
		<g>
			<linearGradient id="SVGID_1_" gradientUnits="userSpaceOnUse" x1="37.8633" y1="39.7207" x2="37.8633" y2="51.2731">
				<stop  offset="0" style="stop-color:#3789CA"/>
				<stop  offset="0.2679" style="stop-color:#2C6AA2"/>
				<stop  offset="0.5912" style="stop-color:#214B79"/>
				<stop  offset="0.8465" style="stop-color:#1A3760"/>
				<stop  offset="1" style="stop-color:#173056"/>
			</linearGradient>
			<polygon fill="url(#SVGID_1_)" points="37.863,40.258 31.889,50.605 43.837,50.605 			"/>
			<linearGradient id="SVGID_2_" gradientUnits="userSpaceOnUse" x1="46.1465" y1="42.6113" x2="12.8534" y2="65.3481">
				<stop  offset="0" style="stop-color:#3789CA"/>
				<stop  offset="0.2679" style="stop-color:#2C6AA2"/>
				<stop  offset="0.5912" style="stop-color:#214B79"/>
				<stop  offset="0.8465" style="stop-color:#1A3760"/>
				<stop  offset="1" style="stop-color:#173056"/>
			</linearGradient>
			<polygon fill="url(#SVGID_2_)" points="13.3,58.626 31.889,50.605 43.837,50.605 12.951,64.151 			"/>
			<linearGradient id="SVGID_3_" gradientUnits="userSpaceOnUse" x1="52.7061" y1="-4.1548" x2="52.7061" y2="50.3128">
				<stop  offset="0" style="stop-color:#3789CA"/>
				<stop  offset="0.2679" style="stop-color:#2C6AA2"/>
				<stop  offset="0.5912" style="stop-color:#214B79"/>
				<stop  offset="0.8465" style="stop-color:#1A3760"/>
				<stop  offset="1" style="stop-color:#173056"/>
			</linearGradient>
			<polygon fill="url(#SVGID_3_)" points="54.956,50.605 67.549,50.605 37.863,-0.814 37.863,21 			"/>
			<linearGradient id="SVGID_4_" gradientUnits="userSpaceOnUse" x1="-12.77" y1="31.6709" x2="40.6653" y2="31.6709">
				<stop  offset="0" style="stop-color:#3789CA"/>
				<stop  offset="0.2679" style="stop-color:#2C6AA2"/>
				<stop  offset="0.5912" style="stop-color:#214B79"/>
				<stop  offset="0.8465" style="stop-color:#1A3760"/>
				<stop  offset="1" style="stop-color:#173056"/>
			</linearGradient>
			<polygon fill="url(#SVGID_4_)" points="37.863,21 37.863,-0.814 0.354,64.156 12.947,64.156 			"/>
		</g>
		<path fill="#173056" d="M90.162,18.71L76.284,50.473h6.427l3.161-7.417h13.986l3.117,7.417h6.604L95.702,18.71H90.162z
			 M97.531,37.452h-9.334l4.647-10.845L97.531,37.452z"/>
		<path fill="#173056" d="M128.618,18.71l-13.879,31.763h6.427l3.161-7.417h13.987l3.116,7.417h6.603L134.158,18.71H128.618z
			 M135.987,37.452h-9.335l4.647-10.845L135.987,37.452z"/>
		<path fill="#173056" d="M166.778,31.845h-0.003c-5.917-1.412-6.972-2.4-6.972-4.474c0-1.961,1.847-3.278,4.597-3.278
			c2.669,0,5.316,1.008,8.094,3.079l0.335,0.251l3.364-4.738l-0.301-0.241c-3.313-2.661-7.044-3.955-11.406-3.955
			c-6.418,0-10.898,3.851-10.898,9.365c0,5.913,3.864,8.003,10.542,9.617c5.663,1.307,6.619,2.396,6.619,4.341
			c0,2.159-1.929,3.498-5.033,3.498c-3.456,0-6.277-1.165-9.433-3.896l-0.313-0.271l-3.772,4.484l0.296,0.264
			c3.68,3.286,8.206,5.02,13.091,5.02c6.913,0,11.382-3.777,11.382-9.624C176.966,36.34,174.015,33.604,166.778,31.845z"/>
		<polygon fill="#3789CA" points="224.2,44.738 224.2,18.93 217.982,18.93 217.982,50.473 240.354,50.473 240.354,44.738 		"/>
		<path fill="#3789CA" d="M197.672,18.93h-12.524v31.542h6.218v-9.876h5.692c7.713,0,12.697-4.295,12.697-10.943
			C209.755,23.139,205.014,18.93,197.672,18.93z M201.287,33.624c-2.109,2.109-5.54,2.11-7.648,0.001
			c-2.107-2.108-2.107-5.541,0-7.648c1.055-1.056,2.438-1.582,3.823-1.582s2.771,0.526,3.825,1.581
			C203.395,28.084,203.395,31.517,201.287,33.624z"/>
		<path fill="#3E8EDE" d="M180.345,57.862c-1.008-1.033-2.36-1.611-3.805-1.628c-1.445-0.018-2.809,0.53-3.845,1.54
			c-2.133,2.083-2.172,5.515-0.088,7.647c1.01,1.033,2.361,1.612,3.807,1.629c1.443,0.017,2.809-0.53,3.842-1.54
			C182.389,63.428,182.428,59.996,180.345,57.862z"/>
		<path fill="#3789CA" d="M148.711,69.019c-0.806-0.824-1.883-1.284-3.035-1.298c-1.151-0.014-2.238,0.423-3.063,1.228
			c-1.699,1.662-1.731,4.397-0.069,6.098c0.805,0.824,1.883,1.285,3.034,1.298c1.151,0.014,2.239-0.422,3.062-1.227
			C150.341,73.456,150.373,70.72,148.711,69.019z"/>
		<path fill="#3789CA" d="M117.004,72.172c-0.663-0.679-1.55-1.06-2.499-1.07c-0.95-0.011-1.845,0.348-2.525,1.011
			c-1.401,1.37-1.427,3.624-0.058,5.024c0.663,0.679,1.551,1.06,2.5,1.07c0.949,0.011,1.845-0.348,2.523-1.012
			C118.347,75.826,118.373,73.572,117.004,72.172z"/>
		<path fill="#3789CA" d="M89.017,69.875c-0.52-0.532-1.218-0.831-1.963-0.839c-0.746-0.009-1.45,0.273-1.983,0.794
			c-1.101,1.076-1.122,2.847-0.045,3.948c0.521,0.532,1.218,0.831,1.964,0.84c0.745,0.008,1.45-0.274,1.982-0.794
			C90.072,72.748,90.093,70.977,89.017,69.875z"/>
		<path fill="#3E8EDE" d="M68.192,63.681c-0.391-0.401-0.914-0.624-1.473-0.632c-0.56-0.006-1.088,0.205-1.489,0.597
			c-0.826,0.807-0.842,2.136-0.034,2.962c0.391,0.399,0.914,0.624,1.474,0.631s1.088-0.205,1.488-0.597
			C68.984,65.835,69,64.505,68.192,63.681z"/>
		<path fill="#3E8EDE" d="M52.754,55.509c-0.285-0.291-0.665-0.453-1.071-0.458c-0.407-0.005-0.791,0.148-1.083,0.434
			c-0.6,0.587-0.611,1.553-0.025,2.152c0.285,0.291,0.665,0.454,1.072,0.458c0.406,0.005,0.791-0.148,1.082-0.433
			C53.33,57.075,53.341,56.109,52.754,55.509z"/>
	</g>
</g>
</svg>
