<?xml version="1.0" encoding="utf-8"?>
<!-- Generator: Adobe Illustrator 16.0.0, SVG Export Plug-In . SVG Version: 6.00 Build 0)  -->
<!DOCTYPE svg PUBLIC "-//W3C//DTD SVG 1.1//EN" "http://www.w3.org/Graphics/SVG/1.1/DTD/svg11.dtd">
<svg version="1.1" id="圖層_1" xmlns="http://www.w3.org/2000/svg" xmlns:xlink="http://www.w3.org/1999/xlink" x="0px" y="0px"
	 width="48px" height="48px" viewBox="0 0 48 48" enable-background="new 0 0 48 48" xml:space="preserve">
<path fill="#86D2F7" d="M43.351,26.974v-2.947H39.08v-9.069h-9.108v9.069h-1.89v-9.069h-9.108v9.069h-1.891v-9.069H7.975v9.069
	h-4.27v2.947H2v2.178h1.705V46h39.646V29.151h1.704v-2.178H43.351z M12.528,40.664c2.512,0,4.555-2.044,4.555-4.555v-9.905h1.891
	v9.905c0,2.511,2.043,4.555,4.553,4.555c2.512,0,4.555-2.044,4.555-4.555v-9.905h1.89v9.905c0,2.511,2.043,4.555,4.556,4.555
	c2.51,0,4.553-2.044,4.553-4.555v-9.905h2.093v17.618H5.882V26.204h2.092v9.905C7.975,38.62,10.018,40.664,12.528,40.664
	 M36.902,36.109c0,1.31-1.065,2.377-2.375,2.377c-1.312,0-2.377-1.067-2.377-2.377V17.135h4.752V36.109z M25.904,36.109
	c0,1.31-1.066,2.377-2.377,2.377c-1.31,0-2.375-1.067-2.375-2.377V17.135h4.753V36.109z M14.905,36.109
	c0,1.31-1.065,2.377-2.376,2.377c-1.31,0-2.375-1.067-2.375-2.377V17.135h4.752V36.109z M23.527,3.47
	c-1.622,0-2.941,1.32-2.941,2.942c0,1.623,1.32,2.941,2.941,2.941c1.622,0,2.941-1.318,2.941-2.941
	C26.469,4.79,25.149,3.47,23.527,3.47 M23.527,5.648c0.421,0,0.764,0.342,0.764,0.764c0,0.421-0.343,0.764-0.764,0.764
	c-0.421,0-0.764-0.343-0.764-0.764C22.764,5.99,23.106,5.648,23.527,5.648 M12.529,7.547c-1.624,0-2.943,1.32-2.943,2.942
	c0,1.622,1.32,2.94,2.943,2.94c1.622,0,2.94-1.318,2.94-2.94C15.469,8.867,14.151,7.547,12.529,7.547 M13.292,10.489
	c0,0.421-0.341,0.762-0.762,0.762c-0.421,0-0.765-0.341-0.765-0.762c0-0.421,0.344-0.764,0.765-0.764
	C12.95,9.725,13.292,10.067,13.292,10.489 M35.063,7.061c-1.58,0-2.863,1.285-2.863,2.865s1.283,2.865,2.863,2.865
	c1.579,0,2.864-1.285,2.864-2.865S36.643,7.061,35.063,7.061 M35.75,9.926c0,0.379-0.308,0.687-0.687,0.687
	c-0.378,0-0.686-0.308-0.686-0.687s0.308-0.687,0.686-0.687C35.442,9.239,35.75,9.547,35.75,9.926 M23.791,11.219
	c0.6,0,1.089,0.489,1.089,1.089c0,0.608-0.5,1.123-1.089,1.123c-0.611,0-1.089-0.463-1.089-1.056
	C22.702,11.708,23.191,11.219,23.791,11.219 M31.829,1.97c0.6,0,1.089,0.489,1.089,1.089c0,0.608-0.499,1.121-1.089,1.121
	c-0.611,0-1.089-0.463-1.089-1.054C30.74,2.459,31.229,1.97,31.829,1.97 M39.904,5.256c0.6,0,1.089,0.489,1.089,1.089
	c0,0.608-0.499,1.121-1.089,1.121c-0.611,0-1.089-0.463-1.089-1.054C38.815,5.746,39.305,5.256,39.904,5.256 M15.354,3.824
	c0.6,0,1.089,0.489,1.089,1.089c0,0.608-0.499,1.121-1.089,1.121c-0.611,0-1.089-0.463-1.089-1.054
	C14.266,4.313,14.755,3.824,15.354,3.824 M6.745,7.029c0.6,0,1.089,0.489,1.089,1.089c0,0.608-0.5,1.121-1.089,1.121
	c-0.611,0-1.089-0.463-1.089-1.054C5.656,7.518,6.145,7.029,6.745,7.029"/>
</svg>
