<?xml version="1.0" encoding="utf-8"?>
<!-- Generator: Adobe Illustrator 16.0.0, SVG Export Plug-In . SVG Version: 6.00 Build 0)  -->
<!DOCTYPE svg PUBLIC "-//W3C//DTD SVG 1.1//EN" "http://www.w3.org/Graphics/SVG/1.1/DTD/svg11.dtd">
<svg version="1.1" id="圖層_1" xmlns="http://www.w3.org/2000/svg" xmlns:xlink="http://www.w3.org/1999/xlink" x="0px" y="0px"
	 width="48px" height="48px" viewBox="0 0 48 48" enable-background="new 0 0 48 48" xml:space="preserve">
<path fill="#1B478E" d="M17.26,44c-1.22,0-2.315-0.526-3.06-1.358C13.455,43.474,12.359,44,11.14,44c-2.239,0-4.06-1.773-4.06-3.954
	v-8.197C4.673,31.025,3,28.791,3,26.261v-6.892c0-3.266,2.736-5.923,6.1-5.923h1.688C9.167,12.379,8.1,10.577,8.1,8.538
	c0-3.266,2.736-5.923,6.1-5.923c3.364,0,6.1,2.657,6.1,5.923c0,2.04-1.067,3.842-2.688,4.908H19.3c3.364,0,6.101,2.657,6.101,5.923
	v6.892c0,2.53-1.674,4.765-4.081,5.588v8.197C21.32,42.227,19.499,44,17.26,44z M15.2,31.184v8.862c0,1.077,0.924,1.954,2.06,1.954
	s2.06-0.877,2.06-1.954V19.369c0-0.552,0.448-1,1-1s1,0.448,1,1v10.303c1.254-0.684,2.08-1.977,2.08-3.411v-6.892
	c0-2.164-1.839-3.923-4.1-3.923H9.1c-2.261,0-4.1,1.76-4.1,3.923v6.892c0,1.435,0.826,2.728,2.08,3.411V19.369c0-0.552,0.448-1,1-1
	s1,0.448,1,1v11.515c0.013,0.064,0.02,0.132,0.02,0.2s-0.007,0.136-0.02,0.2v8.762c0,1.077,0.924,1.954,2.06,1.954
	s2.06-0.877,2.06-1.954v-8.862c0-0.553,0.448-1,1-1S15.2,30.631,15.2,31.184z M14.2,4.614c-2.261,0-4.1,1.76-4.1,3.923
	s1.839,3.923,4.1,3.923s4.1-1.76,4.1-3.923S16.46,4.614,14.2,4.614z M23.943,43.999c-0.997,0-1.808-0.798-1.808-1.779
	c0-0.896,0.677-1.641,1.555-1.762c5.853-2.667,9.626-8.389,9.626-14.624v-1.462h-1.332c-0.674,0-1.274-0.372-1.567-0.97
	c-0.287-0.586-0.217-1.271,0.185-1.787l6.047-7.51c0.644-0.828,2.09-0.842,2.755,0.013l6.026,7.483
	c0.411,0.529,0.483,1.214,0.196,1.8c-0.293,0.599-0.894,0.971-1.568,0.971h-1.332v1.462C42.726,35.851,34.3,43.999,23.943,43.999z
	 M32.56,22.372h1.757c0.553,0,1,0.448,1,1v2.462c0,6.778-3.945,13.009-10.127,16.121c8.674-0.616,15.536-7.611,15.536-16.121v-2.462
	c0-0.552,0.447-1,1-1h1.758l-5.463-6.783L32.56,22.372z"/>
</svg>
