<?xml version="1.0" encoding="utf-8"?>
<!-- Generator: Adobe Illustrator 16.0.0, SVG Export Plug-In . SVG Version: 6.00 Build 0)  -->
<!DOCTYPE svg PUBLIC "-//W3C//DTD SVG 1.1//EN" "http://www.w3.org/Graphics/SVG/1.1/DTD/svg11.dtd">
<svg version="1.1" id="圖層_1" xmlns="http://www.w3.org/2000/svg" xmlns:xlink="http://www.w3.org/1999/xlink" x="0px" y="0px"
	 width="48px" height="48px" viewBox="0 0 48 48" enable-background="new 0 0 48 48" xml:space="preserve">
<path fill="#ADADAD" d="M44.111,21.952l3.322-4.983c0.187-0.281,0.205-0.641,0.046-0.94c-0.16-0.297-0.471-0.483-0.808-0.483h-7.321
	c-0.307,0-0.592,0.153-0.761,0.407l-3.358,5.038h-0.505c-0.503-9.14-8.076-16.427-17.339-16.427C7.8,4.564,0,12.364,0,21.952
	C0,31.54,7.8,39.34,17.388,39.34c3.471,0,6.7-1.033,9.418-2.793l5.385,5.384C32.879,42.62,33.798,43,34.778,43
	s1.899-0.38,2.589-1.069c1.427-1.427,1.427-3.75,0-5.177l-5.385-5.385c1.595-2.462,2.573-5.353,2.744-8.456h0.505l3.358,5.037
	c0.169,0.255,0.454,0.407,0.761,0.407h7.321c0.337,0,0.647-0.186,0.808-0.482c0.159-0.299,0.141-0.659-0.046-0.94L44.111,21.952z
	 M36.073,38.048c0.713,0.714,0.713,1.875,0,2.589c-0.688,0.688-1.901,0.688-2.589,0l-5.175-5.173
	c0.004-0.003,0.007-0.007,0.011-0.009c0.945-0.767,1.807-1.627,2.573-2.574c0.002-0.002,0.003-0.004,0.005-0.006L36.073,38.048z
	 M27.972,20.991c-0.477-5.11-4.786-9.125-10.019-9.125c-5.55,0-10.066,4.516-10.066,10.066c0,5.551,4.516,10.066,10.066,10.066
	c5.219,0,9.521-3.993,10.017-9.085h4.927c-0.19,3.094-1.284,5.939-3.027,8.285c-0.195,0.266-0.394,0.529-0.604,0.78
	c-0.029,0.034-0.063,0.066-0.093,0.101c-0.499,0.58-1.04,1.122-1.618,1.622c-0.048,0.042-0.094,0.089-0.144,0.13
	c-0.241,0.204-0.496,0.394-0.75,0.584c-2.594,1.934-5.796,3.094-9.272,3.094c-8.579,0-15.558-6.979-15.558-15.557
	c0-8.579,6.979-15.558,15.558-15.558c8.254,0,15.008,6.465,15.509,14.597H27.972z M14.642,21.952c0,1.514,1.232,2.745,2.746,2.745
	c1.175,0,2.17-0.745,2.563-1.784h6.175c-0.487,4.08-3.963,7.255-8.172,7.255c-4.541,0-8.236-3.694-8.236-8.236
	c0-4.542,3.695-8.236,8.236-8.236c4.223,0,7.71,3.196,8.179,7.295H19.95c-0.391-1.04-1.388-1.785-2.563-1.785
	C15.874,19.206,14.642,20.438,14.642,21.952z M16.735,21.313c-0.156,0.181-0.251,0.42-0.258,0.66c0-0.007-0.004-0.014-0.004-0.021
	C16.473,21.703,16.574,21.478,16.735,21.313z M39.841,17.376h5.121l-2.41,3.615h-5.121L39.841,17.376z M39.841,26.527l-2.41-3.614
	h5.121l2.41,3.614H39.841z"/>
</svg>
