<?xml version="1.0" encoding="utf-8"?>
<!-- Generator: Adobe Illustrator 16.0.0, SVG Export Plug-In . SVG Version: 6.00 Build 0)  -->
<!DOCTYPE svg PUBLIC "-//W3C//DTD SVG 1.1//EN" "http://www.w3.org/Graphics/SVG/1.1/DTD/svg11.dtd">
<svg version="1.1" id="圖層_1" xmlns="http://www.w3.org/2000/svg" xmlns:xlink="http://www.w3.org/1999/xlink" x="0px" y="0px"
	 width="16px" height="16px" viewBox="0 0 16 16" enable-background="new 0 0 16 16" xml:space="preserve">
<path opacity="0.9122" fill-rule="evenodd" clip-rule="evenodd" fill="#FFFFFF" d="M6.222,6.222V1.778C6.222,0.796,7.019,0,8,0
	c0.981,0,1.777,0.796,1.777,1.778v4.444h4.445C15.203,6.222,16,7.019,16,8c0,0.981-0.797,1.777-1.777,1.777H9.777v4.445
	C9.777,15.203,8.981,16,8,16c-0.981,0-1.778-0.797-1.778-1.777V9.777H1.778C0.796,9.777,0,8.981,0,8
	c0-0.981,0.796-1.778,1.778-1.778H6.222z"/>
</svg>
