<?xml version="1.0" standalone="no"?>
<!DOCTYPE svg PUBLIC "-//W3C//DTD SVG 1.1//EN" "http://www.w3.org/Graphics/SVG/1.1/DTD/svg11.dtd" >
<svg xmlns="http://www.w3.org/2000/svg">
<metadata>Generated by IcoMoon</metadata>
<defs>
<font id="icomoon" horiz-adv-x="1024">
<font-face units-per-em="1024" ascent="870.4" descent="-153.6" />
<missing-glyph horiz-adv-x="1024" />
<glyph unicode="&#x20;" horiz-adv-x="0" d="" />
<glyph unicode="&#xe900;" glyph-name="chevron-up" d="M792.781 215.791c-22.323-22.835-53.402-24.627-80.691 0l-200.090 191.846-200.090-191.846c-27.29-24.627-58.419-22.835-80.589 0-22.323 22.784-20.89 61.286 0 82.688 20.787 21.402 240.384 230.502 240.384 230.502 11.11 11.418 25.702 17.152 40.294 17.152s29.184-5.734 40.397-17.152c0 0 219.494-209.101 240.384-230.502 20.941-21.402 22.323-59.904 0-82.688z" />
<glyph unicode="&#xe901;" glyph-name="chevron-down" d="M231.219 466.875c22.323 22.835 53.402 24.627 80.691 0l200.090-191.846 200.090 191.846c27.29 24.627 58.419 22.835 80.589 0 22.323-22.784 20.89-61.286 0-82.688-20.787-21.402-240.384-230.502-240.384-230.502-11.11-11.418-25.702-17.152-40.294-17.152s-29.184 5.734-40.397 17.152c0 0-219.494 209.101-240.384 230.502-20.941 21.402-22.323 59.904 0 82.688z" />
<glyph unicode="&#xe902;" glyph-name="chevron-left" d="M637.542 622.114c22.835-22.323 24.627-53.402 0-80.691l-191.846-200.090 191.846-200.090c24.627-27.29 22.835-58.419 0-80.589-22.784-22.323-61.286-20.89-82.688 0-21.402 20.787-230.502 240.384-230.502 240.384-11.418 11.11-17.152 25.702-17.152 40.294s5.734 29.184 17.152 40.397c0 0 209.101 219.494 230.502 240.384 21.402 20.941 59.904 22.323 82.688 0z" />
<glyph unicode="&#xe903;" glyph-name="chevron-right" d="M469.146 622.114c21.402-20.89 230.502-240.384 230.502-240.384 11.418-11.213 17.152-25.805 17.152-40.397s-5.734-29.184-17.152-40.294c0 0-209.101-219.597-230.502-240.384-21.402-20.89-59.904-22.323-82.688 0-22.835 22.221-24.627 53.299 0 80.589l191.846 200.090-191.846 200.090c-24.627 27.29-22.835 58.419 0 80.691 22.784 22.323 61.286 20.941 82.688 0z" />
<glyph unicode="&#xe904;" glyph-name="chevron-small-up" d="M336.998 231.714c-13.875-13.722-36.301-13.722-50.074 0s-13.926 35.891 0 49.613l200.090 196.096c13.824 13.722 36.198 13.722 50.125 0l200.090-196.096c13.824-13.67 13.824-35.891 0-49.613-13.875-13.722-36.301-13.722-50.125 0l-175.104 160.819-175.002-160.819z" />
<glyph unicode="&#xe905;" glyph-name="chevron-small-down" d="M687.002 450.952c13.875 13.722 36.301 13.722 50.074 0 13.824-13.722 13.926-35.891 0-49.613l-200.090-196.096c-13.824-13.722-36.198-13.722-50.125 0l-200.090 196.096c-13.824 13.67-13.824 35.891 0 49.613 13.875 13.722 36.301 13.722 50.074 0l175.155-160.819 175.002 160.819z" />
<glyph unicode="&#xe906;" glyph-name="chevron-small-left" d="M621.619 166.331c13.722-13.875 13.722-36.301 0-50.074-13.722-13.824-35.891-13.926-49.613 0l-196.096 200.090c-13.722 13.824-13.722 36.198 0 50.125l196.096 200.090c13.67 13.824 35.891 13.824 49.613 0 13.722-13.875 13.722-36.301 0-50.074l-160.819-175.155 160.819-175.002z" />
<glyph unicode="&#xe907;" glyph-name="chevron-small-right" d="M563.2 341.333l-160.819 175.104c-13.722 13.824-13.722 36.198 0 50.074 13.722 13.824 35.891 13.824 49.613 0l196.096-200.090c13.722-13.875 13.722-36.301 0-50.125l-196.096-200.090c-13.67-13.926-35.891-13.824-49.613 0-13.722 13.773-13.722 36.198 0 50.074l160.819 175.053z" />
<glyph unicode="&#xe908;" glyph-name="file-text" d="M273.067 366.933h473.6v-55.467h-473.6v55.467zM273.067 533.333h473.6v-55.467h-473.6v55.467zM273.067 204.8h81.067v-55.467h-81.067v55.467zM401.067 204.8h85.333v-55.467h-85.333v55.467zM529.067 204.8h81.067v-55.467h-81.067v55.467zM183.467 721.066h657.067v-712.533c0-25.6-21.333-51.2-51.2-51.2h-605.867v763.733zM153.6-93.867h635.733c59.733 0 106.667 46.933 106.667 102.4v742.4c0 17.067-12.8 25.6-25.6 25.6h-712.533c-8.533 0-17.067 0-21.333-8.533-4.267-4.267-8.533-8.533-8.533-17.067v-819.2c0-12.8 12.8-25.6 25.6-25.6z" />
<glyph unicode="&#xe909;" glyph-name="coupon" d="M904.533 8.533h-785.067c-59.733 0-106.667 51.2-106.667 119.467v426.667c0 64 46.933 119.467 106.667 119.467h789.333c59.733 0 106.667-51.2 106.667-119.467v-426.667c0-64-51.2-119.467-110.933-119.467zM119.467 605.866c-25.6 0-42.667-25.6-42.667-55.467v-426.667c0-29.867 21.333-55.467 42.667-55.467h789.333c25.6 0 42.667 25.6 42.667 55.467v430.933c0 29.867-21.333 55.467-42.667 55.467h-789.333zM371.2 115.2c-12.8 0-21.333 12.8-21.333 21.333v21.333c-46.933 8.533-85.333 42.667-85.333 89.6 0 12.8 12.8 21.333 21.333 21.333s21.333-12.8 21.333-21.333c0-25.6 29.867-42.667 59.733-42.667 34.133 0 59.733 21.333 59.733 42.667s-21.333 38.4-46.933 42.667l-29.867 8.533c-42.667 8.533-76.8 42.667-76.8 81.067s34.133 72.533 76.8 81.067v25.6c0 12.8 12.8 21.333 21.333 21.333s21.333-12.8 21.333-21.333v-21.333c42.667-8.533 76.8-42.667 76.8-81.067 0-12.8-12.8-21.333-21.333-21.333s-25.6 8.533-25.6 21.333c0 21.333-25.6 38.4-55.467 38.4s-51.2-21.333-51.2-38.4c0-17.067 17.067-34.133 42.667-38.4l34.133-8.533c46.933-8.533 85.333-46.933 85.333-89.6s-34.133-76.8-85.333-89.6v-21.333c0-8.533-12.8-21.333-21.333-21.333zM725.333 584.533h85.333v-85.333h-85.333v85.333zM725.333 456.533h85.333v-85.333h-85.333v85.333zM725.333 328.533h85.333v-85.333h-85.333v85.333zM725.333 200.533h85.333v-85.333h-85.333v85.333z" />
<glyph unicode="&#xe90a;" glyph-name="coin" d="M512-140.8c-264.533 0-482.133 213.333-482.133 482.133s217.6 477.867 482.133 477.867 482.133-213.333 482.133-482.133-217.6-477.867-482.133-477.867zM512 755.2c-230.4 0-418.133-187.733-418.133-418.133s187.733-418.133 418.133-418.133 418.133 187.733 418.133 418.133-187.733 418.133-418.133 418.133zM512 106.666c-17.067 0-34.133 17.067-34.133 34.133v25.6c-59.733 12.8-106.667 59.733-106.667 115.2 0 17.067 17.067 34.133 34.133 34.133s34.133-17.067 34.133-34.133c0-25.6 34.133-51.2 72.533-51.2s72.533 21.333 72.533 51.2c0 21.333-25.6 42.667-55.467 51.2l-42.667 8.533c-59.733 4.267-102.4 51.2-102.4 102.4s38.4 93.867 93.867 106.667v25.6c0 17.067 17.067 34.133 34.133 34.133s34.133-17.067 34.133-34.133v-25.6c55.467-12.8 93.867-55.467 93.867-106.667 0-17.067-17.067-34.133-34.133-34.133s-34.133 17.067-34.133 34.133c0 21.333-29.867 42.667-64 42.667s-64-21.333-64-42.667c0-17.067 21.333-38.4 46.933-42.667l42.667-8.533c64-8.533 110.933-59.733 110.933-115.2s-42.667-102.4-106.667-115.2v-25.6c8.533-17.067-8.533-29.867-25.6-29.867z" />
<glyph unicode="&#xe90b;" glyph-name="start-o" d="M512-140.8c-264.533 0-482.133 213.333-482.133 482.133s217.6 477.867 482.133 477.867 482.133-213.333 482.133-482.133-217.6-477.867-482.133-477.867zM512 755.2c-230.4 0-418.133-187.733-418.133-418.133s187.733-418.133 418.133-418.133 418.133 187.733 418.133 418.133-187.733 418.133-418.133 418.133zM371.2 76.8c-12.8 0-25.6 4.267-34.133 12.8-17.067 12.8-29.867 34.133-25.6 59.733l21.333 123.733-89.6 85.333c-17.067 17.067-21.333 38.4-17.067 64 8.533 21.333 25.6 38.4 46.933 42.667l128 17.067 55.467 110.933c12.8 21.333 34.133 34.133 55.467 34.133 0 0 0 0 0 0 21.333 0 42.667-12.8 55.467-34.133 0 0 0 0 0 0l55.467-115.2 123.733-17.067c21.333-4.267 42.667-17.067 46.933-42.667 8.533-21.333 0-46.933-17.067-64l-89.6-89.6 21.333-123.733c4.267-21.333-4.267-46.933-25.6-59.733-17.067-12.8-42.667-17.067-64-4.267l-106.667 68.267-110.933-59.733c-8.533-4.267-17.067-8.533-29.867-8.533zM512 209.066c8.533 0 21.333-4.267 29.867-8.533l106.667-55.467-21.333 119.467c-4.267 21.333 4.267 38.4 17.067 55.467l85.333 85.333-119.467 17.067c-21.333 4.267-38.4 17.067-46.933 34.133l-51.2 106.667-51.2-110.933c-8.533-17.067-25.6-29.867-46.933-34.133l-119.467-17.067 85.333-85.333c12.8-12.8 21.333-34.133 17.067-55.467l-21.333-119.467 106.667 55.467c8.533 8.533 21.333 12.8 29.867 12.8zM285.867 401.066v0 0zM507.733 567.466v0 0z" />
<glyph unicode="&#xe90c;" glyph-name="log-out" d="M652.8 209.066c-17.067 0-34.133-17.067-34.133-34.133v-110.933c0-42.667-25.6-76.8-51.2-76.8h-426.667c-29.867 0-51.2 34.133-51.2 76.8v550.4c0 42.667 25.6 76.8 51.2 76.8h426.667c29.867 0 51.2-34.133 51.2-76.8v-110.933c0-17.067 17.067-34.133 34.133-34.133s29.867 17.067 29.867 34.133v110.933c0 76.8-51.2 140.8-119.467 140.8h-426.667c-64 0-119.467-64-119.467-140.8v-546.133c0-76.8 51.2-140.8 119.467-140.8h426.667c64 0 119.467 64 119.467 140.8v110.933c0 17.067-12.8 29.867-29.867 29.867zM989.867 362.666l-162.133 162.133c-4.267 8.533-12.8 12.8-25.6 12.8-8.533 0-17.067-4.267-25.6-8.533-12.8-12.8-12.8-34.133 0-46.933l106.667-106.667h-413.867c-17.067 0-34.133-17.067-34.133-34.133s17.067-34.133 34.133-34.133h413.867l-106.667-106.667c-4.267-4.267-8.533-17.067-8.533-25.6s4.267-17.067 12.8-25.6c4.267-4.267 12.8-8.533 21.333-8.533s17.067 4.267 21.333 8.533l162.133 162.133c4.267 4.267 8.533 12.8 8.533 21.333 8.533 17.067 4.267 25.6-4.267 29.867z" />
<glyph unicode="&#xe90d;" glyph-name="play" d="M343.081 761.216c-6.528 4.267-14.507 6.784-23.083 6.784-23.552 0-42.667-19.115-42.667-42.667v-768c-0.043-7.765 2.133-15.872 6.784-23.083 12.757-19.84 39.125-25.557 58.965-12.8l597.333 384c4.864 3.072 9.344 7.424 12.8 12.8 12.757 19.84 6.997 46.208-12.8 58.965zM362.665 647.168l475.776-305.835-475.776-305.835z" />
<glyph unicode="&#xe90e;" glyph-name="facebook" d="M614.4 468.309h200.704v-192.512h-200.704v-446.464h-204.8v446.464h-200.704v192.512h200.704v81.92c0 77.824 24.576 172.032 73.728 225.28 53.248 53.248 114.688 77.824 188.416 77.824h139.264v-192.512h-139.264c-32.768 0-61.44-24.576-61.44-57.344v-135.168z" />
<glyph unicode="&#xe90f;" glyph-name="instagram" d="M512 761.133c136.8 0 153-0.6 206.8-3 50-2.2 77-10.6 95-17.6 23.8-9.2 41-20.4 58.8-38.2 18-18 29-35 38.4-58.8 7-18 15.4-45.2 17.6-95 2.4-54 3-70.2 3-206.8s-0.6-153-3-206.8c-2.2-50-10.6-77-17.6-95-9.2-23.8-20.4-41-38.2-58.8-18-18-35-29-58.8-38.4-18-7-45.2-15.4-95-17.6-54-2.4-70.2-3-206.8-3s-153 0.6-206.8 3c-50 2.2-77 10.6-95 17.6-23.8 9.2-41 20.4-58.8 38.2-18 18-29 35-38.4 58.8-7 18-15.4 45.2-17.6 95-2.4 54-3 70.2-3 206.8s0.6 153 3 206.8c2.2 50 10.6 77 17.6 95 9.2 23.8 20.4 41 38.2 58.8 18 18 35 29 58.8 38.4 18 7 45.2 15.4 95 17.6 53.8 2.4 70 3 206.8 3zM512 853.333c-139 0-156.4-0.6-211-3-54.4-2.4-91.8-11.2-124.2-23.8-33.8-13.2-62.4-30.6-90.8-59.2-28.6-28.4-46-57-59.2-90.6-12.6-32.6-21.4-69.8-23.8-124.2-2.4-54.8-3-72.2-3-211.2s0.6-156.4 3-211c2.4-54.4 11.2-91.8 23.8-124.2 13.2-33.8 30.6-62.4 59.2-90.8 28.4-28.4 57-46 90.6-59 32.6-12.6 69.8-21.4 124.2-23.8 54.6-2.4 72-3 211-3s156.4 0.6 211 3c54.4 2.4 91.8 11.2 124.2 23.8 33.6 13 62.2 30.6 90.6 59s46 57 59 90.6c12.6 32.6 21.4 69.8 23.8 124.2 2.4 54.6 3 72 3 211s-0.6 156.4-3 211c-2.4 54.4-11.2 91.8-23.8 124.2-12.6 34-30 62.6-58.6 91-28.4 28.4-57 46-90.6 59-32.6 12.6-69.8 21.4-124.2 23.8-54.8 2.6-72.2 3.2-211.2 3.2v0zM512 604.333c-145.2 0-263-117.8-263-263s117.8-263 263-263 263 117.8 263 263c0 145.2-117.8 263-263 263zM512 170.733c-94.2 0-170.6 76.4-170.6 170.6s76.4 170.6 170.6 170.6c94.2 0 170.6-76.4 170.6-170.6s-76.4-170.6-170.6-170.6zM846.8 614.733c0-33.91-27.49-61.4-61.4-61.4s-61.4 27.49-61.4 61.4c0 33.91 27.49 61.4 61.4 61.4s61.4-27.49 61.4-61.4z" />
<glyph unicode="&#xe910;" glyph-name="youtube" d="M1013.8 546.133c0 0-10 70.6-40.8 101.6-39 40.8-82.6 41-102.6 43.4-143.2 10.4-358.2 10.4-358.2 10.4h-0.4c0 0-215 0-358.2-10.4-20-2.4-63.6-2.6-102.6-43.4-30.8-31-40.6-101.6-40.6-101.6s-10.2-82.8-10.2-165.8v-77.6c0-82.8 10.2-165.8 10.2-165.8s10-70.6 40.6-101.6c39-40.8 90.2-39.4 113-43.8 82-7.8 348.2-10.2 348.2-10.2s215.2 0.4 358.4 10.6c20 2.4 63.6 2.6 102.6 43.4 30.8 31 40.8 101.6 40.8 101.6s10.2 82.8 10.2 165.8v77.6c-0.2 82.8-10.4 165.8-10.4 165.8zM406.2 208.533v287.8l276.6-144.4-276.6-143.4z" />
<glyph unicode="&#xe911;" glyph-name="line" d="M826.24 432.512c14.891 0 26.88-12.16 26.88-26.923 0-14.72-11.989-26.88-26.88-26.88h-74.88v-48h74.88c14.891 0 26.88-12.075 26.88-26.88 0-14.677-11.989-26.837-26.88-26.837h-101.803c-14.72 0-26.752 12.16-26.752 26.837v203.563c0 14.72 12.032 26.88 26.88 26.88h101.803c14.763 0 26.752-12.16 26.752-26.88 0-14.891-11.989-26.88-26.88-26.88h-74.88v-48zM661.76 303.829c0-11.52-7.424-21.76-18.432-25.429-2.731-0.896-5.675-1.323-8.491-1.323-9.003 0-16.683 3.84-21.76 10.667l-104.235 141.525v-125.44c0-14.677-11.904-26.837-26.923-26.837-14.763 0-26.709 12.16-26.709 26.837v203.563c0 11.52 7.381 21.76 18.347 25.387 2.56 0.981 5.803 1.408 8.277 1.408 8.32 0 16-4.437 21.12-10.837l105.045-142.080v126.123c0 14.72 12.032 26.88 26.88 26.88 14.72 0 26.88-12.16 26.88-26.88zM416.811 303.829c0-14.677-12.032-26.837-26.923-26.837-14.72 0-26.752 12.16-26.752 26.837v203.563c0 14.72 12.032 26.88 26.88 26.88 14.763 0 26.795-12.16 26.795-26.88zM311.595 276.992h-101.803c-14.72 0-26.88 12.16-26.88 26.837v203.563c0 14.72 12.16 26.88 26.88 26.88 14.848 0 26.88-12.16 26.88-26.88v-176.683h74.923c14.848 0 26.837-12.075 26.837-26.88 0-14.677-12.032-26.837-26.837-26.837zM1024 413.269c0 229.163-229.76 415.659-512 415.659s-512-186.496-512-415.659c0-205.269 182.187-377.259 428.16-409.941 16.683-3.499 39.381-11.008 45.141-25.173 5.12-12.843 3.371-32.683 1.621-46.080l-6.997-43.52c-1.92-12.843-10.24-50.603 44.757-27.52 55.083 22.997 295.083 173.995 402.603 297.6 73.557 80.597 108.715 163.157 108.715 254.635z" />
<glyph unicode="&#xe912;" glyph-name="send" d="M194.56 382.293l675.84 317.44-322.56-680.96-66.56 256c-5.12 20.48-20.48 30.72-35.84 35.84l-250.88 71.68zM25.6 407.893c-10.24-5.12-20.48-15.36-25.6-30.72-5.12-25.6 10.24-51.2 35.84-61.44l363.52-92.16 92.16-363.52c5.12-15.36 10.24-25.6 25.6-30.72 25.6-10.24 51.2 0 66.56 25.6l440.32 926.72c5.12 15.36 5.12 25.6 0 40.96-10.24 25.6-40.96 35.84-66.56 25.6l-931.84-440.32z" />
<glyph unicode="&#xe913;" glyph-name="cart" d="M468.677-40.698c0-47.853-38.793-86.646-86.646-86.646s-86.646 38.793-86.646 86.646c0 47.853 38.793 86.646 86.646 86.646s86.646-38.793 86.646-86.646zM941.292-40.698c0-47.853-38.793-86.646-86.646-86.646s-86.646 38.793-86.646 86.646c0 47.853 38.793 86.646 86.646 86.646s86.646-38.793 86.646-86.646zM1008.246 581.579c-3.938 7.877-15.754 11.815-23.631 11.815h-704.985l-39.385 192.985c-3.938 11.815-15.754 23.631-27.569 23.631h-173.292c-15.754 0-31.508-11.815-31.508-31.508s15.754-27.569 31.508-27.569h145.723l39.385-189.046c0 0 0-3.938 0-3.938l70.892-358.4c11.815-55.138 59.077-94.523 114.215-94.523 0 0 0 0 3.938 0h417.477c0 0 0 0 3.938 0 55.138 0 102.4 39.385 114.215 94.523l66.954 362.338c0 3.938-3.938 15.754-7.877 19.692zM886.154 211.364c-3.938-27.569-27.569-43.323-55.138-47.262h-417.477c0 0 0 0 0 0-27.569 0-51.2 19.692-55.138 47.262l-66.954 322.954h657.723l-63.015-322.954z" />
<glyph unicode="&#xe914;" glyph-name="heart" d="M271.754 735.179c-118.154 0-212.677-94.523-212.677-212.677 0-157.538 98.462-259.938 456.862-551.385 358.4 295.385 456.862 397.785 456.862 551.385 0 118.154-94.523 212.677-212.677 212.677-114.215 0-169.354-66.954-216.615-118.154l-31.508-35.446-31.508 35.446c-47.262 51.2-102.4 118.154-208.738 118.154zM512-107.652l-15.754 15.754c-389.908 319.015-496.246 429.292-496.246 610.462 0 149.662 122.092 271.754 271.754 271.754 126.031 0 192.985-70.892 240.246-126.031 47.262 55.138 118.154 126.031 240.246 126.031 153.6 0 271.754-122.092 271.754-271.754 0-181.169-106.338-295.385-496.246-610.462l-15.754-15.754z" />
<glyph unicode="&#xe915;" glyph-name="play-filled" d="M342 639.333l468-298-468-298v596z" />
<glyph unicode="&#xe916;" glyph-name="delete" d="M847.872 587.093c-16.384 0-32.768-12.288-32.768-32.768v-598.016c0-16.384-12.288-32.768-32.768-32.768h-503.808c-16.384 0-32.768 12.288-32.768 32.768v602.112c0 16.384-12.288 32.768-32.768 32.768s-28.672-16.384-28.672-32.768v-598.016c0-53.248 40.96-94.208 94.208-94.208h503.808c53.248 0 94.208 40.96 94.208 94.208v598.016c0 16.384-12.288 28.672-28.672 28.672zM909.312 681.301h-221.184v98.304c0 16.384-12.288 32.768-32.768 32.768h-249.856c-16.384 0-32.768-12.288-32.768-32.768v-94.208h-221.184c-16.384-4.096-28.672-16.384-28.672-32.768s12.288-32.768 32.768-32.768h757.76c16.384 0 32.768 12.288 32.768 32.768s-20.48 28.672-36.864 28.672zM438.272 746.837h188.416v-61.44h-188.416v61.44zM561.152 54.613v438.272c0 20.48-12.288 32.768-28.672 32.768s-32.768-12.288-32.768-32.768v-442.368c0-16.384 12.288-32.768 32.768-32.768s28.672 16.384 28.672 36.864zM720.896 116.053v315.392c0 16.384-12.288 32.768-32.768 32.768-16.384 0-32.768-12.288-32.768-32.768v-315.392c0-16.384 12.288-32.768 32.768-32.768 16.384 0 32.768 16.384 32.768 32.768zM405.504 116.053v315.392c0 16.384-12.288 32.768-32.768 32.768-16.384 0-32.768-12.288-32.768-32.768v-315.392c0-16.384 12.288-32.768 32.768-32.768s32.768 16.384 32.768 32.768z" />
<glyph unicode="&#xe917;" glyph-name="star" horiz-adv-x="951" d="M950.857 483.619c0-10.286-7.429-20-14.857-27.429l-207.429-202.286 49.143-285.714c0.571-4 0.571-7.429 0.571-11.429 0-14.857-6.857-28.571-23.429-28.571-8 0-16 2.857-22.857 6.857l-256.571 134.857-256.571-134.857c-7.429-4-14.857-6.857-22.857-6.857-16.571 0-24 13.714-24 28.571 0 4 0.571 7.429 1.143 11.429l49.143 285.714-208 202.286c-6.857 7.429-14.286 17.143-14.286 27.429 0 17.143 17.714 24 32 26.286l286.857 41.714 128.571 260c5.143 10.857 14.857 23.429 28 23.429s22.857-12.571 28-23.429l128.571-260 286.857-41.714c13.714-2.286 32-9.143 32-26.286z" />
<glyph unicode="&#xe918;" glyph-name="star-o" horiz-adv-x="951" d="M649.714 279.619l174.857 169.714-241.143 35.429-108 218.286-108-218.286-241.143-35.429 174.857-169.714-41.714-240.571 216 113.714 215.429-113.714zM950.857 483.619c0-10.286-7.429-20-14.857-27.429l-207.429-202.286 49.143-285.714c0.571-4 0.571-7.429 0.571-11.429 0-15.429-6.857-28.571-23.429-28.571-8 0-16 2.857-22.857 6.857l-256.571 134.857-256.571-134.857c-7.429-4-14.857-6.857-22.857-6.857-16.571 0-24 13.714-24 28.571 0 4 0.571 7.429 1.143 11.429l49.143 285.714-208 202.286c-6.857 7.429-14.286 17.143-14.286 27.429 0 17.143 17.714 24 32 26.286l286.857 41.714 128.571 260c5.143 10.857 14.857 23.429 28 23.429s22.857-12.571 28-23.429l128.571-260 286.857-41.714c13.714-2.286 32-9.143 32-26.286z" />
<glyph unicode="&#xe919;" glyph-name="plus" d="M768 277.333h-192v-192h-128v192h-192v128h192v192h128v-192h192v-128z" />
<glyph unicode="&#xe91a;" glyph-name="minus" d="M768 405.333v-128h-512v128h512z" />
<glyph unicode="&#xe91b;" glyph-name="grid" d="M0 853.333h438.857v-438.857h-438.857v438.857zM585.143 853.333h438.857v-438.857h-438.857v438.857zM0 268.19h438.857v-438.857h-438.857v438.857zM585.143 268.19h438.857v-438.857h-438.857v438.857z" />
<glyph unicode="&#xe91c;" glyph-name="list" d="M0 853.333h292.571v-146.286h-292.571v146.286zM438.857 853.333h585.143v-146.286h-585.143v146.286zM0 560.762h292.571v-146.286h-292.571v146.286zM438.857 560.762h585.143v-146.286h-585.143v146.286zM0 268.19h292.571v-146.286h-292.571v146.286zM438.857 268.19h585.143v-146.286h-585.143v146.286zM0-24.381h292.571v-146.286h-292.571v146.286zM438.857-24.381h585.143v-146.286h-585.143v146.286z" />
<glyph unicode="&#xe91d;" glyph-name="sort" d="M1016.686 838.704v-109.714c0-7.314 0-7.314-7.314-14.629s-7.314-7.314-14.629-7.314h-475.429c0 0-7.314 0-14.629 7.314 0 0-7.314 7.314-7.314 14.629v109.714c0 7.314 0 7.314 7.314 14.629 7.314 0 14.629 0 14.629 0h475.429c7.314 0 7.314 0 14.629-7.314 7.314 0 7.314-7.314 7.314-7.314zM906.971 546.133v-109.714c0-7.314 0-7.314-7.314-14.629 0 0-7.314-7.314-14.629-7.314h-365.714c0 0-7.314 0-14.629 7.314 0 0-7.314 7.314-7.314 14.629v109.714c0 7.314 0 7.314 7.314 14.629 7.314 0 14.629 0 14.629 0h365.714c7.314 0 7.314 0 14.629-7.314 7.314 0 7.314-7.314 7.314-7.314zM797.257 246.247v-109.714c0-7.314 0-7.314-7.314-14.629 0 0-7.314-7.314-14.629-7.314h-256c0 7.314-7.314 7.314-14.629 14.629 0 0-7.314 7.314-7.314 14.629v102.4c0 7.314 0 7.314 7.314 14.629s14.629 7.314 14.629 7.314h256c7.314 0 7.314 0 14.629-7.314 7.314 0 7.314-7.314 7.314-14.629zM409.6 34.133c0-7.314 0-7.314-7.314-14.629l-182.857-182.857c0-7.314-7.314-7.314-7.314-7.314-7.314 0-7.314 0-14.629 7.314l-182.857 182.857c-7.314 7.314-7.314 14.629-7.314 21.943s7.314 14.629 14.629 14.629h109.714v782.629c0 7.314 0 7.314 7.314 14.629 7.314 0 14.629 0 14.629 0h109.714c7.314 0 7.314 0 14.629-7.314 0 0 7.314-7.314 7.314-14.629v-782.629h109.714c7.314 0 7.314 0 14.629-7.314 0 0 0-7.314 0-7.314zM687.543-46.324v-109.714c0-7.314 0-7.314-7.314-14.629s-7.314 0-14.629 0h-146.286c-7.314 0-7.314 0-14.629 7.314 0 0-7.314 7.314-7.314 14.629v109.714c0 7.314 0 7.314 7.314 14.629 7.314 0 14.629 0 14.629 0h146.286c7.314 0 7.314 0 14.629-7.314s7.314-7.314 7.314-14.629z" />
<glyph unicode="&#xe91e;" glyph-name="link" d="M604.16 157.013c-87.040 0-168.96 40.96-220.16 112.64-15.36 20.48-10.24 51.2 10.24 66.56s51.2 10.24 66.56-10.24c35.84-46.080 92.16-76.8 148.48-76.8 51.2 0 97.28 20.48 133.12 56.32l133.12 138.24c30.72 35.84 51.2 81.92 51.2 128 0 102.4-81.92 184.32-184.32 184.32-46.080 0-92.16-20.48-128-51.2l-76.8-76.8c-20.48-20.48-46.080-20.48-66.56 0s-20.48 46.080 0 66.56l81.92 76.8c51.2 51.2 122.88 76.8 194.56 76.8 153.6 0 276.48-122.88 276.48-276.48 0-71.68-25.6-143.36-76.8-194.56l-143.36-138.24c-56.32-51.2-128-81.92-199.68-81.92zM281.6-165.547c-153.6 0-276.48 122.88-276.48 276.48 0 71.68 25.6 143.36 76.8 194.56l138.24 138.24c51.2 51.2 122.88 81.92 194.56 81.92 87.040 0 168.96-40.96 220.16-112.64 15.36-20.48 10.24-51.2-10.24-66.56s-51.2-10.24-66.56 10.24c-35.84 46.080-92.16 76.8-148.48 76.8-51.2 0-97.28-20.48-133.12-56.32l-128-138.24c-30.72-35.84-51.2-81.92-51.2-128 0-102.4 81.92-184.32 184.32-184.32 46.080 0 92.16 20.48 128 51.2l76.8 76.8c20.48 20.48 46.080 20.48 66.56 0s20.48-46.080 0-66.56l-76.8-76.8c-51.2-51.2-122.88-76.8-194.56-76.8z" />
<glyph unicode="&#xe91f;" glyph-name="time" d="M512-170.667c-282.77 0-512 229.23-512 512s229.23 512 512 512v0c282.77 0 512-229.23 512-512s-229.23-512-512-512v0zM512-68.267c226.216 0 409.6 183.384 409.6 409.6s-183.384 409.6-409.6 409.6v0c-226.216 0-409.6-183.384-409.6-409.6s183.384-409.6 409.6-409.6v0zM460.8 320.341v328.192h102.4v-286.208l202.24-202.24-72.192-72.192-232.448 232.448z" />
<glyph unicode="&#xe920;" glyph-name="close" d="M1024 750.933l-102.4 102.4-409.6-409.6-409.6 409.6-102.4-102.4 409.6-409.6-409.6-409.6 102.4-102.4 409.6 409.6 409.6-409.6 102.4 102.4-409.6 409.6z" />
<glyph unicode="&#xe921;" glyph-name="chevrons-left" d="M940.8 846.933l83.2-76.8-428.8-428.8 428.8-428.8-83.2-76.8-505.6 505.6zM505.6 846.933l83.2-76.8-422.4-428.8 422.4-428.8-83.2-76.8-505.6 505.6z" />
<glyph unicode="&#xe922;" glyph-name="chevrons-right" d="M83.2 846.933l-83.2-76.8 428.8-428.8-428.8-428.8 83.2-76.8 505.6 505.6zM518.4 846.933l-83.2-76.8 422.4-428.8-422.4-428.8 83.2-76.8 505.6 505.6z" />
<glyph unicode="&#xe923;" glyph-name="checkmark, tick" d="M1014.592 625.077l-90.848 90.848c-12.576 12.576-32.832 12.576-45.408 0l-464.48-490.368-266.24 266.368c-12.704 12.704-33.312 12.704-46.016 0l-92.032-92.096c-12.704-12.672-12.704-33.28 0-46.016l378.656-387.456c7.328-7.36 17.28-9.888 26.848-8.64 9.888-1.472 20.192 1.024 27.776 8.64l571.744 613.28c12.544 12.544 12.544 32.896 0 45.44z" />
<glyph unicode="&#xe924;" glyph-name="dots" d="M268.801 341.333c0-21.208-17.192-38.4-38.4-38.4s-38.4 17.192-38.4 38.4c0 21.208 17.192 38.4 38.4 38.4s38.4-17.192 38.4-38.4zM550.4 341.333c0-21.208-17.192-38.4-38.4-38.4s-38.4 17.192-38.4 38.4c0 21.208 17.192 38.4 38.4 38.4s38.4-17.192 38.4-38.4zM831.999 341.333c0-21.208-17.192-38.4-38.4-38.4s-38.4 17.192-38.4 38.4c0 21.208 17.192 38.4 38.4 38.4s38.4-17.192 38.4-38.4z" />
<glyph unicode="&#xe925;" glyph-name="alarm" d="M898.823 51.159c-65.078 48.865-102.394 123.555-102.394 204.845v170.657c0 142.954-96.365 263.837-227.543 301.039v40.276c0 47.044-38.285 85.329-85.329 85.329s-85.329-38.285-85.329-85.329v-40.276c-131.178-37.26-227.543-158.086-227.543-301.039v-170.657c0-81.29-37.317-155.924-102.394-204.845-9.784-7.338-13.766-20.138-9.898-31.743s14.734-19.454 26.964-19.454h258.83c-1.878-9.329-2.901-18.829-2.901-28.443 0-78.389 63.825-142.214 142.214-142.214s142.214 63.825 142.214 142.214c0 9.557-0.967 19.113-2.844 28.443h258.83c12.23 0 23.095 7.851 26.964 19.454s-0.113 24.404-9.898 31.743zM455.114 767.976c0 15.7 12.743 28.443 28.443 28.443s28.443-12.743 28.443-28.443v-29.752c-9.386 0.853-18.829 1.309-28.443 1.309s-19.057-0.456-28.443-1.309v29.752zM568.886-28.424c0-47.044-38.285-85.329-85.329-85.329s-85.329 38.285-85.329 85.329c0 9.727 1.707 19.341 4.892 28.443h160.873c3.185-9.102 4.892-18.716 4.892-28.443zM156.009 56.904c14.506 17.578 27.134 36.748 37.488 56.942 22.641 44.258 34.075 92.098 34.075 142.158v170.657c0 141.133 114.853 255.986 255.986 255.986s255.986-114.853 255.986-255.986v-170.657c0-50.059 11.49-97.9 34.075-142.158 10.353-20.251 22.982-39.364 37.488-56.942h-655.153z" />
<glyph unicode="&#xe926;" glyph-name="icon-shopping-bag" d="M925.538 660.348h-189.046v126.031c0 35.446-27.569 63.015-63.015 63.015h-319.015c-35.446 0-63.015-27.569-63.015-63.015v-126.031h-192.985c-15.754 0-31.508-15.754-31.508-31.508v-764.062c0-15.754 15.754-31.508 31.508-31.508h827.077c15.754 0 31.508 15.754 31.508 31.508v764.062c0 15.754-15.754 31.508-31.508 31.508zM354.462 786.379h315.077v-126.031h-315.077v126.031zM894.031-103.713h-764.062v701.046h157.538v-98.462h-63.015v-63.015h189.046v63.015h-59.077v98.462h315.077v-98.462h-63.015v-63.015h189.046v63.015h-63.015v98.462h157.538v-701.046z" />
<glyph unicode="&#xe927;" glyph-name="star-o-half" horiz-adv-x="951" d="M950.8 483.6v0c0 17.2-18.267 24-32 26.267l-286.8 41.733-128.533 260c-5.2 10.8-14.8 23.467-28 23.467s-22.8-12.533-28-23.467l-128.533-260-286.933-41.733c-14.267-2.267-32-9.2-32-26.267 0-10.267 7.467-20 14.267-27.467l208-202.267-49.2-285.733c-0.533-4-1.2-7.467-1.2-11.467 0-14.8 7.467-28.533 24-28.533 8 0 15.467 2.8 22.8 6.8l256.533 134.8 256.8-134.667c6.8-4 14.8-6.8 22.8-6.8 16.533 0 23.467 13.2 23.467 28.533 0 4 0 7.467-0.533 11.467l-49.2 285.733 207.467 202.133c7.467 7.467 14.8 17.2 14.8 27.467zM649.733 279.6l41.2-240.533-178.933 94.4v495.733l71.467-144.4 241.067-35.467-174.8-169.733z" />
<glyph unicode="&#xe928;" glyph-name="calendar" horiz-adv-x="951" d="M411.188 361.12h128.618v-128.618h-128.618v128.618zM614.010 361.12h128.618v-128.618h-128.618v128.618zM208.367 163.245h128.618v-128.618h-128.618v128.618zM411.188 163.245h128.618v-128.618h-128.618v128.618zM614.010 163.245h128.618v-128.618h-128.618v128.618zM277.623 603.516c-34.628 0-59.362 24.734-59.362 59.362v128.618c0 34.628 24.734 59.362 59.362 59.362s59.362-24.734 59.362-59.362v-128.618c-4.947-34.628-29.681-59.362-59.362-59.362zM806.937 19.787c0-34.628-29.681-64.309-59.362-64.309h-539.208c-34.628 0-59.362 29.681-59.362 64.309v356.174c0 34.628 29.681 64.309 59.362 64.309h539.208c34.628 0 59.362-29.681 59.362-64.309v-356.174zM826.725 727.188h-69.256v-79.15c0-49.469-39.575-89.043-89.043-89.043h-24.734c-49.469 0-89.043 39.575-89.043 89.043v79.15h-173.14v-79.15c0-49.469-39.575-89.043-89.043-89.043h-24.734c-49.469 0-89.043 39.575-89.043 89.043v79.15h-49.469c-54.415 0-98.937-44.522-98.937-98.937v-697.507c0-54.415 44.522-98.937 98.937-98.937h692.56c54.415 0 98.937 44.522 98.937 98.937v697.507c0 54.415-44.522 98.937-93.99 98.937zM658.531 603.516c-29.681 0-59.362 24.734-59.362 59.362v128.618c4.947 34.628 29.681 59.362 59.362 59.362s59.362-24.734 59.362-59.362v-128.618c0-34.628-24.734-59.362-59.362-59.362z" />
<glyph unicode="&#xe929;" glyph-name="clock" d="M-0.010 677.786l175.541 175.541 73.083-73.083-175.541-175.541-73.083 73.083zM775.366 780.239l73.083 73.083 175.541-175.541-73.083-73.083-175.541 175.541zM563.72 731.049v106.791h-103.439v-106.791c-215.506-25.611-382.725-208.679-382.725-431.092 0-101.309 34.962-194.301 93.116-268.196l-75.572-75.572 73.152-73.152 75.572 75.572c73.877-58.112 166.868-93.095 268.175-93.095s194.301 34.962 268.196 93.116l75.572-75.572 73.152 73.152-75.572 75.572c58.133 73.877 93.095 166.868 93.095 268.175 0 222.415-167.219 405.481-382.725 431.092zM180.995 299.957c0 182.509 148.477 331.005 331.005 331.005s331.005-148.477 331.005-331.005-148.477-331.005-331.005-331.005-331.005 148.496-331.005 331.005zM563.72 527.565h-103.439v-251.296l126.588-126.588 73.131 73.131-96.281 96.302z" />
<glyph unicode="&#xe92a;" glyph-name="help-circle" d="M981.333 341.333c0 129.579-52.565 246.997-137.472 331.861s-202.283 137.472-331.861 137.472-246.997-52.565-331.861-137.472-137.472-202.283-137.472-331.861 52.565-246.997 137.472-331.861 202.283-137.472 331.861-137.472 246.997 52.565 331.861 137.472 137.472 202.283 137.472 331.861zM896 341.333c0-106.069-42.923-201.984-112.469-271.531s-165.461-112.469-271.531-112.469-201.984 42.923-271.531 112.469-112.469 165.461-112.469 271.531 42.923 201.984 112.469 271.531 165.461 112.469 271.531 112.469 201.984-42.923 271.531-112.469 112.469-165.461 112.469-271.531zM428.075 455.168c7.808 22.229 23.851 39.168 43.605 48.64s42.965 11.392 65.195 3.541c19.541-6.869 34.944-20.053 44.8-36.651 7.808-13.099 12.117-28.373 12.203-44.245 0-6.613-1.664-13.184-4.992-19.797-3.413-6.827-8.661-13.867-15.701-20.907-30.251-30.251-78.123-46.592-78.123-46.592-22.357-7.467-34.432-31.616-26.965-53.973s31.616-34.432 53.973-26.965c0 0 65.877 21.589 111.488 67.2 11.904 11.904 23.253 26.197 31.701 43.093 8.533 17.067 13.995 36.608 13.995 58.411-0.171 31.189-8.704 61.312-24.192 87.424-19.755 33.195-50.773 59.819-89.813 73.557-44.459 15.616-91.093 11.733-130.432-7.125s-71.595-52.821-87.211-97.28c-7.851-22.229 3.84-46.592 26.069-54.4s46.592 3.883 54.4 26.069zM512 85.333c23.552 0 42.667 19.115 42.667 42.667s-19.115 42.667-42.667 42.667-42.667-19.115-42.667-42.667 19.115-42.667 42.667-42.667z" />
<glyph unicode="&#xe92b;" glyph-name="alert-circle" d="M981.333 341.333c0 129.579-52.565 246.997-137.472 331.861s-202.283 137.472-331.861 137.472-246.997-52.565-331.861-137.472-137.472-202.283-137.472-331.861 52.565-246.997 137.472-331.861 202.283-137.472 331.861-137.472 246.997 52.565 331.861 137.472 137.472 202.283 137.472 331.861zM896 341.333c0-106.069-42.923-201.984-112.469-271.531s-165.461-112.469-271.531-112.469-201.984 42.923-271.531 112.469-112.469 165.461-112.469 271.531 42.923 201.984 112.469 271.531 165.461 112.469 271.531 112.469 201.984-42.923 271.531-112.469 112.469-165.461 112.469-271.531zM469.333 512v-170.667c0-23.552 19.115-42.667 42.667-42.667s42.667 19.115 42.667 42.667v170.667c0 23.552-19.115 42.667-42.667 42.667s-42.667-19.115-42.667-42.667zM512 128c23.552 0 42.667 19.115 42.667 42.667s-19.115 42.667-42.667 42.667-42.667-19.115-42.667-42.667 19.115-42.667 42.667-42.667z" />
<glyph unicode="&#xe92c;" glyph-name="alert-circle-fill" d="M843.867 673.2c-84.933 84.8-202.267 137.467-331.867 137.467s-246.933-52.533-331.867-137.467-137.467-202.267-137.467-331.867 52.533-246.933 137.467-331.867 202.267-137.467 331.867-137.467 246.933 52.533 331.867 137.467 137.467 202.267 137.467 331.867-52.533 246.933-137.467 331.867zM512 128c-23.6 0-42.667 19.067-42.667 42.667s19.067 42.667 42.667 42.667 42.667-19.067 42.667-42.667-19.067-42.667-42.667-42.667zM554.667 341.333c0-23.6-19.067-42.667-42.667-42.667s-42.667 19.067-42.667 42.667v170.667c0 23.6 19.067 42.667 42.667 42.667s42.667-19.067 42.667-42.667v-170.667z" />
<glyph unicode="&#xe92d;" glyph-name="contact" d="M47.104 474.453h140.8c12.288 0 22.016 9.728 22.016 22.016v89.6c0 12.288-9.728 22.016-22.016 22.016h-140.8c-12.288 0-22.016-9.728-22.016-22.016v-89.088c-0.512-12.288 9.728-22.528 22.016-22.528zM47.104 274.261h140.8c12.288 0 22.016 9.728 22.016 22.016v89.088c0 12.288-9.728 22.016-22.016 22.016h-140.8c-12.288 0-22.016-9.728-22.016-22.016v-89.088c-0.512-12.288 9.728-22.016 22.016-22.016zM210.432 96.085v89.088c0 12.288-9.728 22.016-22.016 22.016h-141.312c-12.288 0-22.016-9.728-22.016-22.016v-89.088c0-12.288 9.728-22.016 22.016-22.016h140.8c12.288 0 22.528 9.728 22.528 22.016zM838.144 183.125l-78.336 54.784c-11.264 8.192-28.672 5.12-36.352-6.656l-25.088-35.84c-6.656-9.728-19.968-12.288-30.208-6.144-34.816 22.016-75.264 54.784-112.64 92.672-37.888 37.888-70.656 77.824-92.672 112.64-6.144 10.24-3.584 23.552 6.144 30.208l35.84 25.088c11.776 8.192 14.848 24.576 6.656 36.864l-55.296 78.848c-5.12 7.168-13.312 11.776-21.504 11.776-2.56 0-5.12-0.512-7.68-1.536-5.12-2.048-9.728-4.096-13.824-6.656l-9.216-6.656c-0.512-0.512-2.048-2.048-3.584-3.584-8.704-8.704-15.36-20.48-18.944-34.304-19.456-72.192 34.304-189.44 130.56-285.696 81.408-81.408 181.76-134.144 254.976-134.144v0c11.264 0 21.504 1.024 30.72 3.584 13.824 3.584 25.6 10.24 34.304 18.944 1.536 1.536 2.56 3.072 4.096 4.608l6.656 9.728c2.048 3.072 4.096 7.68 6.144 12.8 3.072 9.728-1.024 22.016-10.752 28.672zM890.368 138.581c-3.072-7.68-6.656-15.36-10.752-21.504l-7.68-11.264c-3.072-4.096-5.632-6.656-8.192-9.216-14.336-14.336-32.768-24.576-54.272-30.72-13.312-3.584-27.136-5.12-42.496-5.12v0c-85.504 0-195.584 56.32-286.208 147.456-108.544 108.544-165.376 240.64-141.824 328.704 5.632 21.504 15.872 39.936 30.72 54.272 2.56 2.56 5.632 5.12 8.704 7.68l11.264 8.192c7.68 4.608 14.848 8.192 22.528 11.264 28.16 9.728 62.464-1.536 80.384-27.136l54.784-78.336c22.528-32.256 14.336-76.288-17.408-98.816l-17.92-12.288c19.456-27.648 45.568-58.368 74.752-87.552s59.392-55.296 87.552-74.752l12.288 17.92c13.312 18.944 34.816 30.208 57.856 30.208 14.336 0 28.672-4.608 40.448-12.8l78.336-54.784c27.136-18.432 37.888-52.224 27.136-81.408zM914.432 852.821h-695.808c-61.44 0-111.104-50.176-111.104-111.104v-89.088h80.896c36.864 0 66.56-30.208 66.56-66.56v-89.088c0-23.040-11.776-43.52-30.208-55.808 17.92-11.776 30.208-32.256 30.208-55.808v-89.088c0-23.040-11.776-43.52-30.208-55.808 17.92-11.776 30.208-32.256 30.208-55.808v-89.088c0-36.864-30.208-66.56-66.56-66.56h-80.896v-89.088c0-61.44 50.176-111.104 111.104-111.104h695.808c61.44 0 111.104 50.176 111.104 111.104v801.792c0 61.44-50.176 111.104-111.104 111.104z" />
<glyph unicode="&#xe92e;" glyph-name="search" d="M684.416 176.81c-1.451-1.109-2.859-2.347-4.224-3.712s-2.56-2.731-3.712-4.224c-53.675-51.755-126.677-83.541-207.147-83.541-82.475 0-157.099 33.365-211.2 87.467s-87.467 128.725-87.467 211.2 33.365 157.099 87.467 211.2 128.725 87.467 211.2 87.467 157.099-33.365 211.2-87.467 87.467-128.725 87.467-211.2c0-80.469-31.787-153.472-83.584-207.189zM926.165-12.502l-156.8 156.8c52.523 65.707 83.968 149.035 83.968 239.701 0 106.027-43.008 202.069-112.469 271.531s-165.504 112.469-271.531 112.469-202.069-43.008-271.531-112.469-112.469-165.504-112.469-271.531 43.008-202.069 112.469-271.531 165.504-112.469 271.531-112.469c90.667 0 173.995 31.445 239.701 83.968l156.8-156.8c16.683-16.683 43.691-16.683 60.331 0s16.683 43.691 0 60.331z" />
<glyph unicode="&#xe92f;" glyph-name="checkmark-outline" d="M150.016-20.651c-96.436 93.233-156.308 223.762-156.308 368.276 0 282.77 229.23 512 512 512 144.514 0 275.043-59.872 368.137-156.164l0.138-0.144c88.925-91.979 143.724-217.436 143.724-355.692 0-282.77-229.23-512-512-512-138.256 0-263.713 54.799-355.836 143.863l0.144-0.138zM801.792 51.541c74.164 74.164 120.036 176.621 120.036 289.792 0 226.342-183.486 409.828-409.828 409.828-113.171 0-215.628-45.872-289.792-120.036v0c-74.164-74.164-120.036-176.621-120.036-289.792 0-226.342 183.486-409.828 409.828-409.828 113.171 0 215.628 45.872 289.792 120.036v0zM343.040 377.685l117.76-118.272 220.16 220.16 71.68-72.704-291.84-290.816-189.44 189.44 71.68 72.704z" />
<glyph unicode="&#xe930;" glyph-name="check-square" d="M353.835 353.834l128-128c16.683-16.683 43.691-16.683 60.331 0l426.667 426.667c16.683 16.683 16.683 43.691 0 60.331s-43.691 16.683-60.331 0l-396.501-396.501-97.835 97.835c-16.683 16.683-43.691 16.683-60.331 0s-16.683-43.691 0-60.331zM853.333 341.333v-298.667c0-11.776-4.736-22.4-12.501-30.165s-18.389-12.501-30.165-12.501h-597.333c-11.776 0-22.4 4.736-30.165 12.501s-12.501 18.389-12.501 30.165v597.333c0 11.776 4.736 22.4 12.501 30.165s18.389 12.501 30.165 12.501h469.333c23.552 0 42.667 19.115 42.667 42.667s-19.115 42.667-42.667 42.667h-469.333c-35.328 0-67.413-14.379-90.496-37.504s-37.504-55.168-37.504-90.496v-597.333c0-35.328 14.379-67.413 37.504-90.496s55.168-37.504 90.496-37.504h597.333c35.328 0 67.413 14.379 90.496 37.504s37.504 55.168 37.504 90.496v298.667c0 23.552-19.115 42.667-42.667 42.667s-42.667-19.115-42.667-42.667z" />
<glyph unicode="&#xe931;" glyph-name="pencil" horiz-adv-x="931" d="M870.278 746.020c-32.054 32.054-72.686 52.37-117.474 58.754-65.204 9.244-129.511-12.203-176.029-58.754-13.001-13.001-13.001-34.049 0-47.050 0.698-0.698 1.596-0.931 2.328-1.53 0.599-0.698 0.831-1.596 1.53-2.294l95.895-95.895-495.301-495.301-76.244 76.244 420.188 420.188c13.001 13.001 13.001 34.015 0 47.016s-34.015 13.001-47.016 0l-443.629-443.629c-0.033-0.033-0.067-0.033-0.1-0.067l-24.672-24.672c-3.126-3.126-5.553-6.85-7.215-10.873-1.629-4.057-2.494-8.346-2.494-12.635v-246.487c0-18.388 14.896-33.251 33.251-33.251h246.52c8.811 0 17.29 3.491 23.508 9.742l566.956 566.956c80.899 80.932 80.899 212.604 0 293.536zM743.46 738.904c30.391-4.323 57.989-18.122 79.768-39.901 46.85-46.883 53.4-118.605 20.416-172.87l-193.585 193.618c27.631 16.925 60.317 23.841 93.401 19.152zM66.545-57.713v182.28l91.107-91.107c0.033-0.033 0.033-0.067 0.033-0.067l0.067-0.033 91.073-91.073h-182.28zM228.243 56.935l495.267 495.301 76.244-76.244-495.301-495.301-76.21 76.244z" />
<glyph unicode="&#xe932;" glyph-name="plus-2" d="M1024 431.686h-421.647v421.647h-180.706v-421.647h-421.647v-180.706h421.647v-421.647h180.706v421.647h421.647z" />
<glyph unicode="&#xe933;" glyph-name="minus-2" d="M0 431.686h1024v-180.706h-1024v180.706z" />
</font>
</defs>
</svg>
