<?xml version="1.0" encoding="utf-8"?>
<!-- Generator: Adobe Illustrator 16.0.0, SVG Export Plug-In . SVG Version: 6.00 Build 0)  -->
<!DOCTYPE svg PUBLIC "-//W3C//DTD SVG 1.1//EN" "http://www.w3.org/Graphics/SVG/1.1/DTD/svg11.dtd">
<svg version="1.1" id="圖層_1" xmlns="http://www.w3.org/2000/svg" xmlns:xlink="http://www.w3.org/1999/xlink" x="0px" y="0px"
	 width="70px" height="70px" viewBox="0 0 70 70" enable-background="new 0 0 70 70" xml:space="preserve">
<path fill-rule="evenodd" clip-rule="evenodd" fill="#78C7F0" d="M70,35C70,15.683,54.317,0,35,0C15.683,0,0,15.683,0,35
	c0,19.317,15.683,35,35,35C54.317,70,70,54.317,70,35z"/>
<path fill="#FFFFFF" d="M35.294,52.585c-4.31,0-7.816-3.562-7.816-7.94c0-1.303,0.32-2.6,0.925-3.75l6.123-11.584
	c0.15-0.284,0.446-0.463,0.768-0.463c0.321,0,0.617,0.179,0.768,0.463l6.12,11.582c0.607,1.153,0.928,2.451,0.928,3.752
	C43.109,49.023,39.604,52.585,35.294,52.585 M35.294,31.575l-5.354,10.129c-0.474,0.901-0.725,1.919-0.725,2.94
	c0,3.42,2.727,6.203,6.079,6.203c3.352,0,6.078-2.783,6.078-6.203c0-1.021-0.251-2.038-0.727-2.941L35.294,31.575z"/>
<path fill="#FFFFFF" d="M35.294,49.442c-2.607,0-4.729-2.152-4.729-4.798c0-0.479,0.388-0.868,0.868-0.868s0.869,0.389,0.869,0.868
	c0,1.688,1.342,3.061,2.992,3.061c0.479,0,0.868,0.389,0.868,0.869C36.162,49.054,35.773,49.442,35.294,49.442"/>
<path fill="#FFFFFF" d="M46.872,37.532c-2.713,0-4.921-2.227-4.921-4.962c0-0.814,0.202-1.625,0.582-2.345l3.572-6.707
	c0.151-0.283,0.446-0.46,0.767-0.46c0.321,0,0.616,0.177,0.767,0.46l3.571,6.706c0.382,0.722,0.584,1.532,0.584,2.346
	C51.794,35.306,49.586,37.532,46.872,37.532 M46.872,25.774l-2.805,5.266c-0.251,0.475-0.379,0.99-0.379,1.53
	c0,1.778,1.428,3.225,3.184,3.225s3.185-1.446,3.185-3.225c0-0.539-0.128-1.055-0.381-1.532L46.872,25.774z"/>
<path fill="#FFFFFF" d="M46.872,35.216c-1.436,0-2.604-1.187-2.604-2.646c0-0.48,0.388-0.868,0.868-0.868
	c0.479,0,0.868,0.388,0.868,0.868c0,0.501,0.39,0.909,0.868,0.909c0.48,0,0.869,0.388,0.869,0.868S47.353,35.216,46.872,35.216"/>
<path fill="#FFFFFF" d="M23.715,37.532c-2.714,0-4.921-2.227-4.921-4.962c0-0.814,0.202-1.625,0.582-2.345l3.573-6.707
	c0.151-0.283,0.446-0.46,0.767-0.46c0.32,0,0.615,0.177,0.766,0.46l3.571,6.706c0.382,0.722,0.583,1.532,0.583,2.346
	C28.636,35.306,26.428,37.532,23.715,37.532 M23.715,25.774l-2.805,5.266c-0.251,0.475-0.379,0.99-0.379,1.53
	c0,1.778,1.428,3.225,3.185,3.225c1.756,0,3.184-1.446,3.184-3.225c0-0.539-0.128-1.055-0.381-1.532L23.715,25.774z"/>
<path fill="#FFFFFF" d="M23.715,35.216c-1.437,0-2.605-1.187-2.605-2.646c0-0.48,0.388-0.868,0.868-0.868s0.869,0.388,0.869,0.868
	c0,0.501,0.39,0.909,0.869,0.909c0.479,0,0.868,0.388,0.868,0.868S24.194,35.216,23.715,35.216"/>
</svg>
