<?xml version="1.0" encoding="utf-8"?>
<!-- Generator: Adobe Illustrator 16.0.0, SVG Export Plug-In . SVG Version: 6.00 Build 0)  -->
<!DOCTYPE svg PUBLIC "-//W3C//DTD SVG 1.1//EN" "http://www.w3.org/Graphics/SVG/1.1/DTD/svg11.dtd">
<svg version="1.1" id="圖層_1" xmlns="http://www.w3.org/2000/svg" xmlns:xlink="http://www.w3.org/1999/xlink" x="0px" y="0px"
	 width="70px" height="70px" viewBox="0 0 70 70" enable-background="new 0 0 70 70" xml:space="preserve">
<path fill-rule="evenodd" clip-rule="evenodd" fill="#78C7F0" d="M70,35C70,15.683,54.317,0,35,0C15.683,0,0,15.683,0,35
	c0,19.317,15.683,35,35,35C54.317,70,70,54.317,70,35z"/>
<path fill="#FFFFFF" d="M33.15,56.531c-3.919,0-5.31-3.318-5.31-6.16c0-1.953,0.442-3.39,0.87-4.779
	c0.426-1.385,0.829-2.693,0.829-4.565c0-1.025-0.869-1.486-1.487-1.486H10.212c-0.586,0-1.062-0.477-1.062-1.063
	s0.476-1.062,1.062-1.062h17.841c1.736,0,3.61,1.38,3.61,3.61c0,2.192-0.47,3.717-0.923,5.19c-0.399,1.297-0.775,2.521-0.775,4.154
	c0,0.947,0.23,4.036,3.186,4.036c2.956,0,3.186-3.089,3.186-4.036c0-1.633-0.376-2.857-0.775-4.154
	c-0.453-1.474-0.923-2.998-0.923-5.19c0-2.23,1.875-3.61,3.611-3.61h17.841c0.586,0,1.062,0.476,1.062,1.062
	s-0.476,1.063-1.062,1.063H38.248c-0.618,0-1.487,0.461-1.487,1.486c0,1.872,0.403,3.181,0.829,4.565
	c0.428,1.39,0.87,2.826,0.87,4.779C38.46,53.213,37.069,56.531,33.15,56.531"/>
<path fill="#FFFFFF" d="M28.053,32.743c-0.586,0-1.062-0.476-1.062-1.062c0-3.858-1.876-5.734-5.734-5.734
	c-0.586,0-1.062-0.476-1.062-1.062c0-0.586,0.476-1.062,1.062-1.062c3.858,0,5.734-1.876,5.734-5.734
	c0-0.586,0.476-1.062,1.062-1.062c0.587,0,1.062,0.476,1.062,1.062c0,3.858,1.875,5.734,5.734,5.734
	c0.587,0,1.062,0.476,1.062,1.062c0,0.586-0.475,1.062-1.062,1.062c-3.859,0-5.734,1.876-5.734,5.734
	C29.115,32.268,28.64,32.743,28.053,32.743 M25.758,24.885c0.966,0.558,1.737,1.329,2.295,2.295c0.558-0.966,1.33-1.737,2.294-2.295
	c-0.965-0.558-1.736-1.329-2.294-2.294C27.495,23.556,26.724,24.327,25.758,24.885"/>
<path fill="#FFFFFF" d="M39.947,36.142c-0.587,0-1.063-0.476-1.063-1.063c0-2.715-1.32-4.035-4.035-4.035
	c-0.587,0-1.062-0.476-1.062-1.062c0-0.586,0.475-1.062,1.062-1.062c2.715,0,4.035-1.32,4.035-4.036
	c0-0.586,0.476-1.062,1.063-1.062c0.586,0,1.062,0.476,1.062,1.062c0,2.715,1.32,4.036,4.035,4.036c0.587,0,1.063,0.476,1.063,1.062
	c0,0.586-0.476,1.062-1.063,1.062c-2.715,0-4.035,1.32-4.035,4.035C41.009,35.666,40.533,36.142,39.947,36.142 M38.739,29.982
	c0.475,0.331,0.877,0.733,1.208,1.208c0.33-0.475,0.733-0.878,1.208-1.208c-0.475-0.33-0.878-0.733-1.208-1.208
	C39.616,29.249,39.214,29.652,38.739,29.982"/>
</svg>
