<?xml version="1.0" encoding="utf-8"?>
<!-- Generator: Adobe Illustrator 16.0.0, SVG Export Plug-In . SVG Version: 6.00 Build 0)  -->
<!DOCTYPE svg PUBLIC "-//W3C//DTD SVG 1.1//EN" "http://www.w3.org/Graphics/SVG/1.1/DTD/svg11.dtd">
<svg version="1.1" id="圖層_1" xmlns="http://www.w3.org/2000/svg" xmlns:xlink="http://www.w3.org/1999/xlink" x="0px" y="0px"
	 width="70px" height="70px" viewBox="0 0 70 70" enable-background="new 0 0 70 70" xml:space="preserve">
<path fill-rule="evenodd" clip-rule="evenodd" fill="#78C7F0" d="M70,35C70,15.683,54.317,0,35,0C15.683,0,0,15.683,0,35
	c0,19.317,15.683,35,35,35C54.317,70,70,54.317,70,35z"/>
<path fill="#FFFFFF" d="M49.264,33.261c0.289,0.732,0.998,1.225,1.8,1.225c1.067,0,1.937-0.869,1.937-1.937
	c0-1.068-0.869-1.938-1.937-1.938c-0.802,0-1.511,0.493-1.8,1.226h-4.976V28.36h4.976c0.288,0.732,0.998,1.226,1.8,1.226
	c1.067,0,1.937-0.869,1.937-1.937c0-1.068-0.869-1.937-1.937-1.937c-0.802,0-1.511,0.493-1.8,1.225h-4.976v-0.513
	c0-0.393-0.319-0.712-0.712-0.712h-0.513v-4.976c0.731-0.289,1.225-0.998,1.225-1.799c0-1.068-0.869-1.937-1.937-1.937
	c-1.068,0-1.938,0.869-1.938,1.937c0,0.801,0.493,1.51,1.226,1.799v4.976h-3.478v-4.976c0.732-0.289,1.226-0.998,1.226-1.799
	c0-1.068-0.869-1.937-1.938-1.937s-1.937,0.869-1.937,1.937c0,0.801,0.493,1.511,1.225,1.799v4.976h-3.477v-4.976
	c0.732-0.289,1.225-0.998,1.225-1.799c0-1.068-0.869-1.937-1.937-1.937s-1.937,0.869-1.937,1.937c0,0.801,0.493,1.51,1.225,1.799
	v4.976h-3.477v-4.976c0.732-0.289,1.225-0.998,1.225-1.799c0-1.068-0.869-1.937-1.937-1.937c-1.068,0-1.937,0.869-1.937,1.937
	c0,0.801,0.493,1.511,1.225,1.799v4.976h-0.513c-0.393,0-0.712,0.319-0.712,0.712v0.513h-4.975c-0.289-0.732-0.998-1.225-1.8-1.225
	c-1.068,0-1.937,0.869-1.937,1.937c0,1.068,0.869,1.937,1.937,1.937c0.802,0,1.511-0.493,1.8-1.226h4.975v3.478h-4.975
	c-0.289-0.732-0.998-1.226-1.8-1.226c-1.068,0-1.937,0.869-1.937,1.938c0,1.068,0.869,1.937,1.937,1.937
	c0.802,0,1.511-0.493,1.8-1.225h4.975v3.477h-4.975c-0.289-0.731-0.998-1.225-1.8-1.225c-1.068,0-1.937,0.868-1.937,1.937
	s0.869,1.938,1.937,1.938c0.802,0,1.511-0.493,1.8-1.226h4.975v3.477h-4.975c-0.289-0.731-0.998-1.225-1.8-1.225
	c-1.068,0-1.937,0.869-1.937,1.937c0,1.068,0.869,1.938,1.937,1.938c0.802,0,1.511-0.493,1.8-1.226h4.975v0.514
	c0,0.393,0.319,0.712,0.712,0.712h0.513v4.975c-0.732,0.289-1.225,0.998-1.225,1.8c0,1.068,0.869,1.938,1.937,1.938
	c1.068,0,1.937-0.869,1.937-1.938c0-0.801-0.493-1.511-1.225-1.8v-4.975h3.477v4.975c-0.732,0.289-1.225,0.999-1.225,1.8
	c0,1.068,0.869,1.938,1.937,1.938s1.937-0.869,1.937-1.938c0-0.802-0.493-1.511-1.225-1.8v-4.975h3.477v4.975
	c-0.731,0.289-1.225,0.998-1.225,1.8c0,1.068,0.868,1.938,1.937,1.938s1.938-0.869,1.938-1.938c0-0.801-0.493-1.511-1.226-1.8
	v-4.975h3.478v4.975c-0.732,0.289-1.226,0.999-1.226,1.8c0,1.068,0.869,1.938,1.938,1.938c1.067,0,1.937-0.869,1.937-1.938
	c0-0.802-0.493-1.511-1.225-1.8v-4.975h0.513c0.393,0,0.712-0.319,0.712-0.712v-0.514h4.976c0.289,0.732,0.998,1.226,1.8,1.226
	c1.067,0,1.937-0.869,1.937-1.938c0-1.067-0.869-1.937-1.937-1.937c-0.802,0-1.511,0.493-1.8,1.225h-4.976v-3.477h4.976
	c0.288,0.732,0.998,1.226,1.8,1.226c1.067,0,1.937-0.869,1.937-1.938s-0.869-1.937-1.937-1.937c-0.802,0-1.511,0.493-1.8,1.225
	h-4.976v-3.477H49.264z M51.063,32.036c0.283,0,0.513,0.23,0.513,0.514c0,0.283-0.229,0.513-0.513,0.513s-0.514-0.23-0.514-0.513
	C50.55,32.267,50.78,32.036,51.063,32.036 M51.063,27.136c0.283,0,0.513,0.23,0.513,0.513c0,0.283-0.229,0.513-0.513,0.513
	s-0.514-0.23-0.514-0.513C50.55,27.366,50.78,27.136,51.063,27.136 M28.162,51.063c0,0.283-0.23,0.514-0.513,0.514
	c-0.283,0-0.513-0.23-0.513-0.514c0-0.282,0.23-0.513,0.513-0.513C27.932,50.55,28.162,50.78,28.162,51.063 M33.063,51.063
	c0,0.283-0.23,0.514-0.513,0.514s-0.513-0.23-0.513-0.514c0-0.282,0.23-0.513,0.513-0.513S33.063,50.78,33.063,51.063 M37.45,51.576
	c-0.282,0-0.513-0.23-0.513-0.514c0-0.282,0.23-0.513,0.513-0.513c0.283,0,0.514,0.23,0.514,0.513
	C37.964,51.346,37.733,51.576,37.45,51.576 M42.352,51.576c-0.283,0-0.514-0.23-0.514-0.514c0-0.282,0.23-0.513,0.514-0.513
	c0.282,0,0.513,0.23,0.513,0.513C42.864,51.346,42.634,51.576,42.352,51.576 M42.352,18.424c0.282,0,0.513,0.23,0.513,0.513
	s-0.23,0.513-0.513,0.513c-0.283,0-0.514-0.23-0.514-0.513S42.068,18.424,42.352,18.424 M37.45,18.424
	c0.283,0,0.514,0.23,0.514,0.513s-0.23,0.513-0.514,0.513c-0.282,0-0.513-0.23-0.513-0.513S37.168,18.424,37.45,18.424
	 M32.037,18.937c0-0.283,0.23-0.513,0.513-0.513s0.513,0.23,0.513,0.513s-0.23,0.513-0.513,0.513S32.037,19.22,32.037,18.937
	 M27.136,18.937c0-0.283,0.23-0.513,0.513-0.513c0.283,0,0.513,0.23,0.513,0.513s-0.23,0.513-0.513,0.513
	C27.366,19.45,27.136,19.22,27.136,18.937 M42.864,42.864H27.136V27.136h15.729V42.864z M19.45,27.649
	c0,0.283-0.23,0.513-0.513,0.513s-0.513-0.23-0.513-0.513c0-0.283,0.23-0.513,0.513-0.513S19.45,27.366,19.45,27.649 M19.45,32.55
	c0,0.283-0.23,0.513-0.513,0.513s-0.513-0.23-0.513-0.513c0-0.283,0.23-0.514,0.513-0.514S19.45,32.267,19.45,32.55 M19.45,37.45
	c0,0.283-0.23,0.514-0.513,0.514s-0.513-0.23-0.513-0.514s0.23-0.514,0.513-0.514S19.45,37.167,19.45,37.45 M19.45,42.351
	c0,0.283-0.23,0.514-0.513,0.514s-0.513-0.23-0.513-0.514c0-0.282,0.23-0.513,0.513-0.513S19.45,42.068,19.45,42.351 M51.063,41.838
	c0.283,0,0.513,0.23,0.513,0.513c0,0.283-0.229,0.514-0.513,0.514s-0.514-0.23-0.514-0.514C50.55,42.068,50.78,41.838,51.063,41.838
	 M51.063,36.937c0.283,0,0.513,0.23,0.513,0.514s-0.229,0.514-0.513,0.514s-0.514-0.23-0.514-0.514S50.78,36.937,51.063,36.937"/>
<path fill="#FFFFFF" d="M35,38.113c1.717,0,3.114-1.396,3.114-3.113c0-1.717-1.397-3.114-3.114-3.114S31.886,33.283,31.886,35
	C31.886,36.717,33.283,38.113,35,38.113 M35,33.31c0.932,0,1.69,0.758,1.69,1.69c0,0.932-0.759,1.69-1.69,1.69
	c-0.932,0-1.69-0.759-1.69-1.69C33.31,34.068,34.068,33.31,35,33.31"/>
</svg>
