<?xml version="1.0" encoding="utf-8"?>
<!-- Generator: Adobe Illustrator 16.0.0, SVG Export Plug-In . SVG Version: 6.00 Build 0)  -->
<!DOCTYPE svg PUBLIC "-//W3C//DTD SVG 1.1//EN" "http://www.w3.org/Graphics/SVG/1.1/DTD/svg11.dtd">
<svg version="1.1" id="圖層_1" xmlns="http://www.w3.org/2000/svg" xmlns:xlink="http://www.w3.org/1999/xlink" x="0px" y="0px"
	 width="70px" height="70px" viewBox="0 0 70 70" enable-background="new 0 0 70 70" xml:space="preserve">
<path fill-rule="evenodd" clip-rule="evenodd" fill="#78C7F0" d="M70,35C70,15.683,54.317,0,35,0C15.683,0,0,15.683,0,35
	c0,19.317,15.683,35,35,35C54.317,70,70,54.317,70,35z"/>
<path fill="#FFFFFF" d="M47.151,35.677c-0.096-0.245-0.282-0.439-0.523-0.545c-0.24-0.105-0.509-0.111-0.753-0.017
	c-0.507,0.197-0.759,0.771-0.562,1.277c1.031,2.647,1.281,3.498,1.342,3.761h-1.777c-0.501,0.001-0.923,0.379-0.979,0.878H43.9
	c-0.002,0.023-0.007,0.062-0.01,0.112c-0.187,2.834-0.492,4.438-0.68,4.938c-0.458,0.094-1.854,0.197-4.651,0.052l-0.008,0.269
	l-0.067-0.272c-0.268,0.001-0.515,0.087-0.715,0.283c-0.188,0.185-0.295,0.44-0.295,0.703v4.063c0,0.544,0.442,0.986,0.986,0.986
	c0.543,0,0.986-0.442,0.986-0.986v-3.031c4.162,0.155,4.729-0.269,5.002-0.476c0.339-0.254,0.965-0.722,1.347-5.547h1.307
	c0.386-0.001,0.938-0.051,1.287-0.476c0.313-0.379,0.381-0.96,0.211-1.83C48.486,39.242,48.026,37.925,47.151,35.677"/>
<path fill="#FFFFFF" d="M26.833,42.721l-0.224-0.157c-1.017-0.71-1.9-1.578-2.626-2.578c-0.318-0.441-0.937-0.539-1.378-0.221
	c-0.213,0.155-0.354,0.384-0.395,0.644c-0.042,0.261,0.021,0.521,0.175,0.734c0.808,1.114,1.782,2.088,2.896,2.897v7.14
	c0,0.544,0.443,0.986,0.986,0.986c0.544,0,0.986-0.442,0.986-0.986v-7.65C27.253,43.207,27.096,42.905,26.833,42.721"/>
<path fill="#FFFFFF" d="M29.361,35.365c-2.561,0.975-4.961,1.638-6.96,1.925c-0.226-0.616-0.396-1.243-0.506-1.866
	c-0.094-0.532-0.606-0.89-1.144-0.799c-0.534,0.096-0.893,0.608-0.798,1.143c0.097,0.553,0.239,1.116,0.419,1.681
	c-1.097-0.003-1.921-0.186-2.29-0.513c-0.485-0.43,0.034-1.396,0.387-1.935c0.298-0.454,0.171-1.066-0.283-1.365
	c-0.455-0.297-1.067-0.17-1.366,0.283c-1.638,2.494-0.732,3.885-0.047,4.492c0.753,0.668,1.962,1.006,3.596,1.006
	c0.388,0,0.823-0.024,1.317-0.076l0.083,0.01c0.067,0,0.122-0.016,0.168-0.031c2.31-0.246,5.195-0.995,8.127-2.111
	c0.508-0.193,0.763-0.765,0.57-1.273C30.441,35.429,29.869,35.173,29.361,35.365"/>
<path fill="#FFFFFF" d="M47.921,27.323c-0.225-0.14-0.489-0.183-0.744-0.124c-0.258,0.06-0.475,0.215-0.615,0.439
	c-0.287,0.462-0.146,1.071,0.315,1.358c0.561,0.35,1.465,1.019,1.22,1.572c-0.231,0.521-1.062,1.06-2.351,1.527l-0.044-0.107
	c-0.079-0.643-0.203-1.278-0.369-1.89c-0.141-0.522-0.684-0.833-1.209-0.694c-0.255,0.069-0.467,0.232-0.598,0.461
	c-0.132,0.228-0.165,0.494-0.098,0.748c0.153,0.565,0.264,1.147,0.329,1.73c0.01,0.089,0.031,0.175,0.064,0.259l0.02,0.046
	c-1.69,0.399-3.708,0.672-5.903,0.799c5.599-3.244,9.243-6.771,9.596-9.33c0.132-0.947-0.159-1.765-0.837-2.367
	c-0.962-0.852-2.637-1.171-4.983-0.944c-0.541,0.051-0.939,0.535-0.888,1.076c0.026,0.263,0.151,0.5,0.355,0.668
	c0.203,0.167,0.462,0.248,0.721,0.219c2.414-0.232,3.243,0.241,3.486,0.457c0.148,0.132,0.238,0.288,0.192,0.621
	c-0.274,1.981-4.556,6.037-11.955,9.66c-1.014-0.027-1.947-0.075-2.851-0.146c-3.377-0.266-6.449-0.815-8.904-1.592
	c0.365-2.29,1.458-4.441,3.094-6.077c1.033-1.034,2.238-1.841,3.582-2.4c2.582-1.073,5.564-1.112,8.183-0.11
	c1.754,0.673,3.316,1.79,4.518,3.229c0.169,0.203,0.406,0.328,0.668,0.351c0.261,0.027,0.519-0.056,0.721-0.225
	c0.202-0.168,0.327-0.406,0.351-0.668s-0.057-0.518-0.225-0.72c-1.418-1.698-3.259-3.014-5.325-3.806
	c-3.086-1.184-6.602-1.136-9.647,0.13c-1.582,0.657-3.001,1.608-4.219,2.826c-1.832,1.832-3.096,4.225-3.582,6.77
	c-1.283-0.561-2.16-1.162-2.484-1.708c-0.163-0.273-0.119-0.424-0.065-0.544c0.25-0.563,1.303-1.195,2.816-1.688
	c0.25-0.081,0.455-0.255,0.574-0.49c0.119-0.235,0.14-0.502,0.058-0.752c-0.168-0.517-0.726-0.8-1.243-0.632
	c-2.157,0.703-3.506,1.632-4.007,2.762c-0.345,0.772-0.284,1.586,0.173,2.354c1.439,2.418,7.254,4.365,14.812,4.959
	c0.908,0.072,1.922,0.119,3.088,0.147c0.042,0.008,0.085,0.015,0.129,0.015l0.086-0.011l0.332,0.008
	c0.262,0.007,0.525,0.014,0.787,0.014c6.293,0,13.501-1.085,14.856-4.132C50.266,30.546,50.493,28.926,47.921,27.323"/>
</svg>
