<?xml version="1.0" encoding="utf-8"?>
<!-- Generator: Adobe Illustrator 16.0.0, SVG Export Plug-In . SVG Version: 6.00 Build 0)  -->
<!DOCTYPE svg PUBLIC "-//W3C//DTD SVG 1.1//EN" "http://www.w3.org/Graphics/SVG/1.1/DTD/svg11.dtd">
<svg version="1.1" id="圖層_1" xmlns="http://www.w3.org/2000/svg" xmlns:xlink="http://www.w3.org/1999/xlink" x="0px" y="0px"
	 width="70px" height="70px" viewBox="0 0 70 70" enable-background="new 0 0 70 70" xml:space="preserve">
<path fill-rule="evenodd" clip-rule="evenodd" fill="#78C7F0" d="M70,35C70,15.683,54.317,0,35,0C15.683,0,0,15.683,0,35
	c0,19.317,15.683,35,35,35C54.317,70,70,54.317,70,35z"/>
<path fill="#FFFFFF" d="M56.091,40.147H45.704c-2.378,0-3.872-0.289-5.071-0.521c-0.773-0.149-1.441-0.279-2.119-0.279
	c-0.273,0-0.564,0.069-0.891,0.21c-1.146,0.497-1.755,1.736-1.447,2.946c0.113,0.44,0.294,0.709,0.438,0.924
	c0.409,0.606,1.024,1.521,1.024,3.187c0,3.483-2.29,4.719-4.251,4.719c-1.216,0-5.185-0.514-5.185-7.115
	c0-0.485,0.06-0.913,0.118-1.327c0.156-1.104,0.35-2.479-1.516-3.326c-0.316-0.143-0.62-0.215-0.904-0.215
	c-0.674,0-1.367,0.129-2.168,0.276c-1.252,0.232-2.812,0.521-5.193,0.521h-5.593c-0.483,0-0.874,0.392-0.874,0.874
	s0.391,0.874,0.874,0.874h5.593c2.542,0,4.259-0.318,5.512-0.55c0.746-0.138,1.336-0.248,1.846-0.248
	c0.017,0.002,0.083,0.014,0.186,0.06c0.658,0.299,0.662,0.39,0.507,1.489c-0.061,0.429-0.136,0.964-0.136,1.571
	c0,8.615,6.223,8.863,6.933,8.863c2.889,0,6-2.023,6-6.467c0-2.198-0.86-3.477-1.323-4.165c-0.119-0.176-0.159-0.238-0.194-0.378
	c-0.096-0.373,0.094-0.755,0.448-0.909c0.137-0.059,0.198-0.065,0.195-0.065c0.51,0,1.074,0.108,1.786,0.247
	c1.207,0.232,2.858,0.552,5.404,0.552h10.387c0.482,0,0.874-0.392,0.874-0.874S56.573,40.147,56.091,40.147"/>
<path fill="#FFFFFF" d="M33.335,47.21c1.481,0,2.366-1.025,2.366-2.743c0-1.019-0.344-1.528-0.646-1.978
	c-0.317-0.471-0.646-0.958-0.646-2.54c0-8.756,6.288-20.144,6.352-20.258c0.212-0.379,0.084-0.859-0.288-1.083
	s-0.855-0.114-1.092,0.25c-0.375,0.575-9.166,14.185-9.166,23.673C30.216,46.754,32.397,47.21,33.335,47.21 M33.363,34.72
	c-0.351,1.763-0.566,3.534-0.566,5.229c0,2.074,0.532,2.864,0.92,3.441c0.247,0.366,0.371,0.551,0.371,1.076
	c0,1.13-0.453,1.13-0.752,1.13c-1.245,0-1.506-1.667-1.506-3.065C31.829,40.141,32.449,37.424,33.363,34.72"/>
</svg>
