<?xml version="1.0" encoding="utf-8"?>
<!-- Generator: Adobe Illustrator 16.0.0, SVG Export Plug-In . SVG Version: 6.00 Build 0)  -->
<!DOCTYPE svg PUBLIC "-//W3C//DTD SVG 1.1//EN" "http://www.w3.org/Graphics/SVG/1.1/DTD/svg11.dtd">
<svg version="1.1" id="圖層_1" xmlns="http://www.w3.org/2000/svg" xmlns:xlink="http://www.w3.org/1999/xlink" x="0px" y="0px"
	 width="70px" height="70px" viewBox="0 0 70 70" enable-background="new 0 0 70 70" xml:space="preserve">
<path fill-rule="evenodd" clip-rule="evenodd" fill="#78C7F0" d="M70,35C70,15.683,54.317,0,35,0C15.683,0,0,15.683,0,35
	c0,19.317,15.683,35,35,35C54.317,70,70,54.317,70,35z"/>
<path fill="#FFFFFF" d="M53.972,37.132v1.736H40.369c-0.455,0-0.891,0.216-1.167,0.577l-2.06,2.699
	c-0.017,0.021-0.033,0.041-0.05,0.061l-3.33,3.618c-0.164,0.178-0.396,0.28-0.639,0.28c-0.131,0-0.257-0.029-0.375-0.086
	c-0.346-0.165-0.541-0.531-0.483-0.911l0.604-4.025l-0.943-1.52c-0.27-0.434-0.735-0.693-1.247-0.693H17.22v-1.736H30.68
	c1.116,0,2.133,0.566,2.722,1.514l1.112,1.791c0.108,0.174,0.151,0.383,0.121,0.586l-0.231,1.54l1.393-1.513l2.026-2.657
	c0.602-0.789,1.554-1.261,2.547-1.261H53.972z M49.06,41.785c-0.601,0.462-1.075,0.826-2.1,0.826c-1.023,0-1.499-0.364-2.1-0.826
	c-0.654-0.503-1.47-1.13-2.993-1.13h-0.244v1.467h0.244c1.024,0,1.499,0.364,2.1,0.826c0.655,0.503,1.471,1.129,2.993,1.129
	c1.523,0,2.338-0.626,2.993-1.129c0.601-0.462,1.076-0.826,2.1-0.826h0.244v-1.467h-0.244C50.53,40.655,49.715,41.282,49.06,41.785
	 M24.654,41.785c-0.601,0.462-1.075,0.826-2.099,0.826c-1.023,0-1.498-0.364-2.099-0.826c-0.655-0.503-1.471-1.13-2.993-1.13h-0.245
	v1.467h0.245c1.023,0,1.498,0.364,2.099,0.826c0.655,0.503,1.47,1.129,2.992,1.129c1.522,0,2.338-0.626,2.993-1.129
	c0.601-0.462,1.075-0.826,2.099-0.826h0.245v-1.467h-0.245C26.125,40.655,25.309,41.282,24.654,41.785 M25.543,50.641
	c-0.024-0.057-0.053-0.108-0.079-0.144c-0.032-0.051-0.069-0.096-0.108-0.136c-0.043-0.043-0.088-0.079-0.124-0.102
	c-0.048-0.034-0.099-0.063-0.158-0.088c-0.06-0.024-0.12-0.042-0.16-0.048c-0.282-0.061-0.584,0.031-0.784,0.235
	c-0.164,0.159-0.258,0.384-0.258,0.615s0.094,0.456,0.256,0.613c0.087,0.087,0.18,0.149,0.28,0.188
	c0.103,0.043,0.218,0.066,0.332,0.066c0.228,0,0.445-0.09,0.615-0.256c0.161-0.16,0.253-0.384,0.253-0.612
	c0-0.064-0.006-0.123-0.015-0.157C25.584,50.76,25.567,50.7,25.543,50.641 M28.358,46.497h-0.003
	c-0.233,0.001-0.456,0.091-0.61,0.247c-0.046,0.047-0.083,0.091-0.112,0.137c-0.029,0.046-0.054,0.096-0.074,0.144
	c-0.021,0.05-0.038,0.1-0.055,0.177c-0.008,0.052-0.015,0.104-0.015,0.156c0,0.122,0.024,0.238,0.068,0.334
	c0.045,0.107,0.107,0.202,0.187,0.281c0.164,0.163,0.381,0.253,0.613,0.253c0.057,0,0.109-0.004,0.187-0.018
	c0.048-0.013,0.1-0.028,0.147-0.048c0.051-0.021,0.097-0.047,0.143-0.075c0.045-0.029,0.087-0.065,0.139-0.112
	c0.08-0.08,0.142-0.175,0.187-0.281c0.043-0.104,0.066-0.217,0.066-0.334c0-0.229-0.092-0.452-0.252-0.613
	C28.815,46.587,28.591,46.497,28.358,46.497 M32.469,50.26c-0.045-0.033-0.096-0.061-0.161-0.088
	c-0.058-0.024-0.117-0.041-0.152-0.046c-0.118-0.028-0.242-0.027-0.341-0.005c-0.055,0.01-0.115,0.027-0.173,0.052
	c-0.063,0.026-0.113,0.054-0.155,0.084c-0.044,0.031-0.091,0.067-0.125,0.105c-0.162,0.162-0.255,0.386-0.255,0.612
	c0,0.231,0.094,0.455,0.255,0.613c0.165,0.164,0.384,0.255,0.615,0.255c0.23,0,0.448-0.091,0.613-0.255
	c0.165-0.165,0.255-0.383,0.255-0.613c0-0.227-0.093-0.45-0.245-0.602C32.557,50.324,32.51,50.288,32.469,50.26 M35.598,46.497
	h-0.003c-0.233,0-0.458,0.09-0.615,0.247c-0.036,0.036-0.069,0.076-0.112,0.137c-0.029,0.046-0.054,0.096-0.074,0.144
	c-0.025,0.062-0.042,0.118-0.047,0.154c-0.013,0.056-0.019,0.113-0.019,0.179c0,0.117,0.022,0.229,0.066,0.334
	c0.041,0.1,0.102,0.192,0.198,0.292c0.041,0.036,0.083,0.072,0.127,0.102c0.047,0.029,0.093,0.054,0.143,0.074
	c0.048,0.021,0.1,0.036,0.174,0.054c0.052,0.009,0.108,0.013,0.161,0.013c0.113,0,0.229-0.023,0.33-0.065
	c0.107-0.045,0.202-0.107,0.282-0.188c0.076-0.077,0.138-0.166,0.189-0.28c0.044-0.104,0.066-0.218,0.066-0.335
	c0-0.228-0.094-0.451-0.255-0.611C36.054,46.588,35.831,46.498,35.598,46.497 M39.705,50.261c-0.046-0.033-0.097-0.062-0.162-0.089
	c-0.063-0.026-0.118-0.042-0.163-0.049c-0.124-0.023-0.236-0.022-0.323-0.002c-0.059,0.009-0.118,0.025-0.18,0.052
	c-0.057,0.023-0.107,0.053-0.143,0.078c-0.056,0.036-0.104,0.076-0.132,0.108c-0.164,0.16-0.258,0.384-0.258,0.615
	s0.094,0.455,0.245,0.602c0.041,0.046,0.089,0.086,0.132,0.113c0.049,0.035,0.1,0.063,0.157,0.088
	c0.059,0.024,0.118,0.041,0.15,0.045c0.053,0.014,0.115,0.021,0.184,0.021c0.23,0,0.448-0.091,0.609-0.253
	c0.164-0.16,0.259-0.384,0.259-0.615c0-0.227-0.093-0.45-0.246-0.604C39.793,50.325,39.745,50.285,39.705,50.261 M42.22,46.742
	c-0.164,0.159-0.258,0.384-0.258,0.615c0,0.117,0.022,0.229,0.065,0.334c0.044,0.104,0.107,0.199,0.185,0.275
	c0.077,0.082,0.173,0.146,0.287,0.194c0.107,0.043,0.216,0.064,0.331,0.064c0.232,0,0.45-0.09,0.613-0.254
	c0.083-0.083,0.146-0.178,0.188-0.279c0.044-0.104,0.066-0.218,0.066-0.335c0-0.231-0.095-0.456-0.254-0.611
	C43.132,46.43,42.524,46.434,42.22,46.742 M46.291,50.121c-0.057,0.009-0.112,0.025-0.176,0.052
	c-0.063,0.026-0.113,0.054-0.146,0.078c-0.057,0.036-0.104,0.076-0.135,0.11c-0.163,0.163-0.256,0.387-0.256,0.613
	c0,0.23,0.091,0.448,0.245,0.602c0.041,0.046,0.089,0.086,0.132,0.113c0.046,0.033,0.099,0.063,0.16,0.088
	c0.061,0.025,0.116,0.041,0.153,0.047c0.055,0.013,0.113,0.019,0.178,0.019c0.067,0,0.126-0.006,0.164-0.016
	c0.055-0.01,0.113-0.026,0.17-0.05c0.058-0.024,0.109-0.054,0.143-0.078c0.05-0.031,0.095-0.067,0.139-0.112
	c0.161-0.16,0.253-0.384,0.253-0.612c0-0.229-0.092-0.452-0.253-0.613C46.859,50.159,46.56,50.067,46.291,50.121 M50.867,47.026
	c-0.021-0.05-0.046-0.1-0.086-0.162c-0.032-0.044-0.064-0.084-0.091-0.109c-0.052-0.058-0.11-0.098-0.138-0.114
	c-0.048-0.034-0.101-0.063-0.154-0.086c-0.047-0.02-0.097-0.033-0.162-0.049c-0.286-0.056-0.586,0.036-0.784,0.238
	c-0.162,0.162-0.255,0.386-0.255,0.613c0,0.113,0.022,0.226,0.067,0.333s0.108,0.203,0.188,0.282
	c0.041,0.042,0.089,0.08,0.128,0.104c0.044,0.03,0.095,0.058,0.153,0.082c0.049,0.021,0.099,0.037,0.174,0.054
	c0.052,0.009,0.104,0.013,0.16,0.013c0.053,0,0.105-0.004,0.184-0.018c0.048-0.013,0.1-0.028,0.147-0.048
	c0.061-0.025,0.11-0.053,0.143-0.075c0.044-0.028,0.085-0.063,0.14-0.112c0.08-0.08,0.143-0.175,0.187-0.28
	c0.043-0.105,0.065-0.218,0.065-0.335c0-0.053-0.004-0.105-0.016-0.179C50.904,47.125,50.888,47.075,50.867,47.026 M21.123,46.497
	H21.12c-0.233,0.001-0.456,0.091-0.61,0.247c-0.162,0.163-0.255,0.386-0.255,0.613c0,0.117,0.022,0.229,0.066,0.334
	c0.043,0.104,0.107,0.198,0.189,0.281c0.164,0.163,0.381,0.253,0.613,0.253c0.234,0,0.453-0.09,0.616-0.253
	c0.08-0.08,0.142-0.175,0.187-0.281c0.043-0.104,0.066-0.217,0.066-0.334c0-0.229-0.092-0.452-0.252-0.613
	C21.581,46.587,21.357,46.497,21.123,46.497 M34.702,34.597c-2.606,0-4.727-2.121-4.727-4.727c0-2.606,2.12-4.727,4.727-4.727
	s4.727,2.121,4.727,4.727C39.429,32.476,37.309,34.597,34.702,34.597 M34.702,26.879c-1.649,0-2.99,1.342-2.99,2.991
	c0,1.648,1.341,2.99,2.99,2.99c1.648,0,2.99-1.342,2.99-2.99C37.692,28.221,36.351,26.879,34.702,26.879 M24.744,25.492
	c-1.895,0-3.436-1.541-3.436-3.436c0-1.894,1.541-3.436,3.436-3.436c1.894,0,3.436,1.542,3.436,3.436
	C28.18,23.951,26.638,25.492,24.744,25.492 M23.044,22.056c0,0.937,0.762,1.699,1.7,1.699c0.937,0,1.699-0.762,1.699-1.699
	s-0.763-1.699-1.699-1.699C23.807,20.357,23.044,21.119,23.044,22.056 M46.448,25.492c-2.185,0-3.962-1.777-3.962-3.961
	c0-2.185,1.777-3.961,3.962-3.961s3.962,1.777,3.962,3.961C50.41,23.715,48.633,25.492,46.448,25.492 M44.223,21.531
	c0,1.227,0.998,2.225,2.226,2.225s2.226-0.998,2.226-2.225c0-1.227-0.998-2.225-2.226-2.225S44.223,20.304,44.223,21.531"/>
</svg>
