<?xml version="1.0" encoding="utf-8"?>
<!-- Generator: Adobe Illustrator 16.0.0, SVG Export Plug-In . SVG Version: 6.00 Build 0)  -->
<!DOCTYPE svg PUBLIC "-//W3C//DTD SVG 1.1//EN" "http://www.w3.org/Graphics/SVG/1.1/DTD/svg11.dtd">
<svg version="1.1" id="圖層_1" xmlns="http://www.w3.org/2000/svg" xmlns:xlink="http://www.w3.org/1999/xlink" x="0px" y="0px"
	 width="70px" height="70px" viewBox="0 0 70 70" enable-background="new 0 0 70 70" xml:space="preserve">
<path fill-rule="evenodd" clip-rule="evenodd" fill="#78C7F0" d="M70,35C70,15.683,54.317,0,35,0C15.683,0,0,15.683,0,35
	c0,19.317,15.683,35,35,35C54.317,70,70,54.317,70,35z"/>
<path fill="#FFFFFF" d="M40.233,47.908c0.474,0,0.858-0.385,0.858-0.858s-0.385-0.858-0.858-0.858H28.001
	c-1.769,0-3.208-1.439-3.208-3.209c0-1.769,1.439-3.208,3.208-3.208h15.764c0.474,0,0.858-0.386,0.858-0.858
	c0-0.474-0.385-0.858-0.858-0.858H24.426c-1.77,0-3.208-1.439-3.208-3.209c0-1.769,1.439-3.208,3.208-3.208h16.047
	c0.474,0,0.859-0.385,0.859-0.858c0-0.474-0.386-0.858-0.859-0.858H28.001c-1.769,0-3.208-1.439-3.208-3.208
	c0-1.77,1.439-3.208,3.208-3.208h3.626c1.959,0,3.554-1.594,3.554-3.553v-2.216c0-0.474-0.386-0.859-0.859-0.859
	c-0.474,0-0.858,0.385-0.858,0.859v2.216c0,1.012-0.824,1.836-1.836,1.836h-3.626c-2.716,0-4.925,2.209-4.925,4.926
	c0,1.189,0.427,2.323,1.193,3.211c-2.644,0.083-4.769,2.259-4.769,4.923c0,2.663,2.125,4.84,4.769,4.923
	c-0.766,0.889-1.193,2.021-1.193,3.211c0,2.716,2.209,4.926,4.925,4.926h4.069c-0.573,0.753-0.892,1.681-0.892,2.636v5.483
	c0,0.474,0.385,0.859,0.858,0.859c0.474,0,0.859-0.386,0.859-0.859v-5.483c0-1.453,1.182-2.636,2.635-2.636H40.233z"/>
<path fill="#FFFFFF" d="M49.5,38.916c0-2.664-2.125-4.84-4.769-4.923c0.766-0.888,1.192-2.021,1.192-3.211
	c0-2.716-2.209-4.926-4.925-4.926H36.93c0.573-0.753,0.892-1.68,0.892-2.636v-5.483c0-0.474-0.385-0.859-0.858-0.859
	s-0.858,0.385-0.858,0.859v5.483c0,1.454-1.183,2.636-2.636,2.636h-4.702c-0.473,0-0.858,0.385-0.858,0.859
	c0,0.473,0.385,0.858,0.858,0.858h12.232c1.769,0,3.208,1.439,3.208,3.208s-1.439,3.208-3.208,3.208H24.755
	c-0.473,0-0.858,0.385-0.858,0.858c0,0.474,0.385,0.858,0.858,0.858h19.819c1.77,0,3.209,1.439,3.209,3.209
	c0,1.769-1.439,3.208-3.209,3.208H28.527c-0.473,0-0.858,0.386-0.858,0.858c0,0.474,0.385,0.858,0.858,0.858h12.472
	c1.769,0,3.208,1.439,3.208,3.209s-1.439,3.208-3.208,3.208h-3.626c-1.959,0-3.553,1.595-3.553,3.554v2.216
	c0,0.474,0.385,0.859,0.858,0.859s0.859-0.386,0.859-0.859v-2.216c0-1.013,0.823-1.836,1.836-1.836h3.626
	c2.716,0,4.925-2.21,4.925-4.926c0-1.189-0.427-2.323-1.192-3.211C47.375,43.756,49.5,41.579,49.5,38.916"/>
</svg>
