<?xml version="1.0" encoding="utf-8"?>
<!-- Generator: Adobe Illustrator 16.0.0, SVG Export Plug-In . SVG Version: 6.00 Build 0)  -->
<!DOCTYPE svg PUBLIC "-//W3C//DTD SVG 1.1//EN" "http://www.w3.org/Graphics/SVG/1.1/DTD/svg11.dtd">
<svg version="1.1" id="圖層_1" xmlns="http://www.w3.org/2000/svg" xmlns:xlink="http://www.w3.org/1999/xlink" x="0px" y="0px"
	 width="70px" height="70px" viewBox="0 0 70 70" enable-background="new 0 0 70 70" xml:space="preserve">
<path fill-rule="evenodd" clip-rule="evenodd" fill="#78C7F0" d="M70,35C70,15.683,54.317,0,35,0C15.683,0,0,15.683,0,35
	c0,19.317,15.683,35,35,35C54.317,70,70,54.317,70,35z"/>
<g>
	<defs>
		<path id="SVGID_1_" d="M70,35C70,15.683,54.317,0,35,0C15.683,0,0,15.683,0,35c0,19.317,15.683,35,35,35
			C54.317,70,70,54.317,70,35z"/>
	</defs>
	<clipPath id="SVGID_2_">
		<use xlink:href="#SVGID_1_"  overflow="visible"/>
	</clipPath>
	<path clip-path="url(#SVGID_2_)" fill="#FFFFFF" d="M25.68,47.397c-6.186,2.368-7.3,2.795-7.512,7.353
		c-0.026,0.552,0.401,1.02,0.952,1.045c0.016,0.001,0.032,0.001,0.048,0.001c0.531,0,0.973-0.417,0.998-0.953
		c0.151-3.25,0.151-3.25,6.229-5.577c3.822-1.462,4.677-2.646,4.847-2.973c0.032-0.06,0.053-0.124,0.071-0.188
		c1.125,0.61,2.482,1.171,3.693,1.171c1.223,0,2.598-0.574,3.697-1.169c0.019,0.066,0.041,0.133,0.073,0.194
		c0.174,0.327,1.035,1.51,4.844,2.967c6.077,2.33,6.077,2.33,6.227,5.575c0.026,0.552,0.501,0.97,1.046,0.952
		c0.552-0.025,0.979-0.493,0.953-1.045c-0.211-4.552-1.326-4.979-7.51-7.35c-2.416-0.925-3.373-1.659-3.675-1.927v-0.462
		c0-0.105,0.033-0.205,0.098-0.29c0.335-0.445,1.632-2.812,2.045-5.409c0.377-1.12,0.966-3.016,0.904-3.757
		c-0.05-0.612-0.327-1.149-0.542-1.48l0.083-2.434c0.092-2.708-1.143-4.554-3.403-5.13c-0.646-0.809-1.85-1.657-4.917-1.713
		c-3.192-0.06-5.539,0.964-7.009,3.029c-0.797,1.118-1.194,2.436-1.147,3.811l0.082,2.434c-0.215,0.331-0.493,0.867-0.543,1.479
		c-0.062,0.744,0.526,2.639,0.903,3.758c0.412,2.596,1.708,4.965,2.043,5.41c0.064,0.084,0.098,0.187,0.098,0.29v0.449
		C29.023,45.765,28.06,46.487,25.68,47.397 M29.179,38.922c-0.009-0.059-0.022-0.115-0.042-0.172
		c-0.401-1.184-0.831-2.692-0.832-3.034c0.02-0.251,0.228-0.572,0.32-0.684c0.163-0.19,0.249-0.435,0.241-0.685l-0.094-2.777
		c-0.031-0.932,0.237-1.825,0.777-2.583c1.08-1.517,2.859-2.241,5.344-2.189c2.756,0.05,3.282,0.798,3.479,1.08
		c0.041,0.058,0.078,0.109,0.11,0.151c0.152,0.191,0.367,0.321,0.608,0.364c0.967,0.174,2.244,0.692,2.159,3.18l-0.095,2.775
		c-0.01,0.251,0.076,0.496,0.24,0.686c0.075,0.087,0.298,0.424,0.318,0.665c-0.001,0.359-0.431,1.869-0.832,3.054
		c-0.019,0.056-0.033,0.113-0.042,0.171c-0.332,2.202-1.398,4.152-1.638,4.528c-1.264,0.882-3.028,1.824-4.195,1.823
		c-1.129,0-2.876-0.921-4.135-1.782c-0.013-0.009-0.028-0.009-0.041-0.018C30.61,43.138,29.515,41.156,29.179,38.922"/>
	<path clip-path="url(#SVGID_2_)" fill="#FFFFFF" d="M19.331,36.112c0.085,0,0.17-0.011,0.253-0.032
		c0.263-0.069,0.486-0.241,0.619-0.479l0.855-1.523l1.492,0.907c0.471,0.285,1.088,0.136,1.372-0.336
		c0.287-0.473,0.137-1.087-0.335-1.374l-2.378-1.444c-0.231-0.141-0.512-0.182-0.772-0.112c-0.262,0.069-0.485,0.242-0.618,0.478
		l-0.853,1.522l-1.49-0.906c-0.472-0.286-1.087-0.136-1.374,0.335c-0.287,0.472-0.136,1.087,0.335,1.374l2.374,1.444
		C18.97,36.063,19.149,36.112,19.331,36.112"/>
	<path clip-path="url(#SVGID_2_)" fill="#FFFFFF" d="M20.701,24.977l-1.67,1.044l-1.137-1.606c-0.319-0.45-0.942-0.558-1.394-0.238
		c-0.451,0.319-0.558,0.943-0.239,1.394l1.683,2.376c0.307,0.433,0.895,0.552,1.346,0.27l1.671-1.044l1.141,1.608
		c0.195,0.275,0.503,0.421,0.816,0.421c0.2,0,0.403-0.059,0.578-0.184c0.451-0.32,0.556-0.944,0.237-1.395l-1.686-2.377
		C21.74,24.813,21.152,24.696,20.701,24.977"/>
	<path clip-path="url(#SVGID_2_)" fill="#FFFFFF" d="M24.301,19.91l-0.337-1.831c-0.1-0.542-0.621-0.901-1.164-0.802
		c-0.544,0.1-0.903,0.621-0.803,1.165l0.516,2.8c0.1,0.538,0.612,0.897,1.15,0.805l1.837-0.312l0.339,1.833
		c0.089,0.482,0.51,0.818,0.983,0.818c0.06,0,0.121-0.005,0.182-0.017c0.543-0.1,0.902-0.622,0.801-1.165l-0.517-2.801
		c-0.099-0.537-0.612-0.896-1.15-0.805L24.301,19.91z"/>
	<path clip-path="url(#SVGID_2_)" fill="#FFFFFF" d="M52.523,32.45l-1.489,0.906l-0.854-1.522c-0.133-0.236-0.355-0.409-0.618-0.478
		c-0.261-0.07-0.542-0.029-0.772,0.113l-2.377,1.442c-0.473,0.288-0.623,0.902-0.336,1.374c0.286,0.473,0.902,0.623,1.373,0.336
		l1.492-0.906l0.854,1.523c0.133,0.235,0.355,0.41,0.618,0.478c0.084,0.022,0.17,0.033,0.255,0.033c0.181,0,0.36-0.049,0.519-0.146
		l2.374-1.444c0.472-0.287,0.622-0.902,0.335-1.374C53.611,32.314,52.996,32.164,52.523,32.45"/>
	<path clip-path="url(#SVGID_2_)" fill="#FFFFFF" d="M45.638,27.26c-0.319,0.45-0.214,1.074,0.237,1.394
		c0.175,0.125,0.377,0.184,0.577,0.184c0.313,0,0.623-0.146,0.816-0.421l1.141-1.608l1.671,1.044
		c0.452,0.282,1.041,0.163,1.347-0.27l1.683-2.376c0.319-0.451,0.213-1.075-0.238-1.394c-0.452-0.32-1.075-0.212-1.395,0.239
		l-1.137,1.605l-1.67-1.044c-0.451-0.281-1.039-0.164-1.345,0.269L45.638,27.26z"/>
	<path clip-path="url(#SVGID_2_)" fill="#FFFFFF" d="M47.199,16.913c-0.542-0.1-1.063,0.261-1.164,0.803l-0.337,1.83l-1.836-0.312
		c-0.536-0.092-1.051,0.268-1.15,0.804l-0.518,2.802c-0.1,0.543,0.259,1.065,0.802,1.165c0.062,0.012,0.122,0.017,0.183,0.017
		c0.473,0,0.894-0.337,0.982-0.818l0.339-1.833l1.837,0.312c0.541,0.092,1.053-0.268,1.15-0.806l0.515-2.8
		C48.102,17.534,47.742,17.013,47.199,16.913"/>
</g>
</svg>
