<?xml version="1.0" encoding="utf-8"?>
<!-- Generator: Adobe Illustrator 16.0.0, SVG Export Plug-In . SVG Version: 6.00 Build 0)  -->
<!DOCTYPE svg PUBLIC "-//W3C//DTD SVG 1.1//EN" "http://www.w3.org/Graphics/SVG/1.1/DTD/svg11.dtd">
<svg version="1.1" id="圖層_1" xmlns="http://www.w3.org/2000/svg" xmlns:xlink="http://www.w3.org/1999/xlink" x="0px" y="0px"
	 width="70px" height="70px" viewBox="0 0 70 70" enable-background="new 0 0 70 70" xml:space="preserve">
<path fill-rule="evenodd" clip-rule="evenodd" fill="#78C7F0" d="M70,35C70,15.683,54.317,0,35,0C15.683,0,0,15.683,0,35
	c0,19.317,15.683,35,35,35C54.317,70,70,54.317,70,35z"/>
<path fill-rule="evenodd" clip-rule="evenodd" fill="#78C7F0" d="M70,35C70,15.683,54.317,0,35,0C15.683,0,0,15.683,0,35
	c0,19.317,15.683,35,35,35C54.317,70,70,54.317,70,35z"/>
<g>
	<defs>
		<path id="SVGID_1_" d="M70,35C70,15.683,54.317,0,35,0C15.683,0,0,15.683,0,35c0,19.317,15.683,35,35,35
			C54.317,70,70,54.317,70,35z"/>
	</defs>
	<clipPath id="SVGID_2_">
		<use xlink:href="#SVGID_1_"  overflow="visible"/>
	</clipPath>
	<path clip-path="url(#SVGID_2_)" fill="#FFFFFF" d="M35,17.614c-12.933,0-18.75,11.487-18.75,19.643v10.715
		c0,0.493,0.4,0.893,0.893,0.893c0.493,0,0.893-0.399,0.893-0.893V37.257C18.036,29.842,23.299,19.4,35,19.4
		c11.701,0,16.964,10.442,16.964,17.857v11.496c0,0.492,0.4,0.893,0.894,0.893c0.492,0,0.893-0.4,0.893-0.893V37.257
		C53.75,29.101,47.933,17.614,35,17.614"/>
	<path clip-path="url(#SVGID_2_)" fill="#FFFFFF" d="M17.143,64.936c0.493,0,0.893-0.399,0.893-0.893v-8.929
		c0-0.493-0.4-0.893-0.893-0.893c-0.493,0-0.893,0.399-0.893,0.893v8.929C16.25,64.536,16.65,64.936,17.143,64.936"/>
	<path clip-path="url(#SVGID_2_)" fill="#FFFFFF" d="M52.857,54.222c-0.493,0-0.894,0.399-0.894,0.893v8.929
		c0,0.493,0.4,0.893,0.894,0.893c0.492,0,0.893-0.399,0.893-0.893v-8.929C53.75,54.621,53.35,54.222,52.857,54.222"/>
	<path clip-path="url(#SVGID_2_)" fill="#FFFFFF" d="M30.84,50.174c-0.37,0.325-0.408,0.89-0.083,1.261
		c0.325,0.37,0.889,0.407,1.26,0.083c1.707-1.495,4.269-1.48,5.959,0.031c0.171,0.152,0.383,0.228,0.596,0.228
		c0.245,0,0.489-0.101,0.665-0.298c0.329-0.367,0.298-0.932-0.069-1.261C36.804,48.104,33.224,48.085,30.84,50.174"/>
	<path clip-path="url(#SVGID_2_)" fill="#FFFFFF" d="M52.857,65.829c-8.179,0-10.542-6.26-10.696-9.894
		c3.286-2.832,4.989-7.111,5.29-9.166c1.116-0.602,3.62-2.351,3.62-5.94c0-2.18-1.265-3.198-2.679-3.484v-4.324
		c0-1.864-0.593-3.633-1.714-5.116c-2.757-3.648-7.122-5.826-11.679-5.826c-5.1,0-8.593,1.742-11.679,5.825
		c-1.121,1.484-1.714,3.252-1.714,5.117v4.324c-1.414,0.286-2.678,1.305-2.678,3.484c0,3.59,2.504,5.339,3.621,5.94
		c0.301,2.055,2.003,6.334,5.29,9.166c-0.155,3.634-2.518,9.894-10.696,9.894c-0.493,0-0.893,0.399-0.893,0.893
		s0.4,0.893,0.893,0.893c8.723,0,11.778-6.144,12.377-10.458c1.553,0.934,3.373,1.529,5.479,1.529s3.927-0.596,5.479-1.529
		c0.599,4.314,3.654,10.458,12.378,10.458c0.492,0,0.893-0.399,0.893-0.893S53.35,65.829,52.857,65.829 M35,23.864
		c3.999,0,7.832,1.914,10.255,5.117c0.719,0.95,1.146,2.053,1.287,3.22C43.4,29.187,39.236,27.436,35,27.436
		c-4.237,0-8.4,1.75-11.542,4.766c0.142-1.167,0.569-2.271,1.289-3.22C27.493,25.347,30.463,23.864,35,23.864 M24.286,46.186
		c0-0.367-0.225-0.698-0.568-0.832c-0.03-0.012-3.003-1.211-3.003-4.524c0-0.442,0-1.786,1.786-1.786c0.493,0,0.893-0.4,0.893-0.893
		V34.9c2.899-3.558,7.213-5.678,11.607-5.678s8.708,2.121,11.607,5.678v3.25c0,0.492,0.399,0.893,0.893,0.893
		c1.786,0,1.786,1.344,1.786,1.786c0,3.275-2.875,4.474-3.008,4.526c-0.34,0.135-0.564,0.463-0.564,0.83
		C45.714,48.307,42.269,56.9,35,56.9S24.286,48.307,24.286,46.186"/>
	<path clip-path="url(#SVGID_2_)" fill="#FFFFFF" d="M44.633,39.455c0.303-0.39,0.233-0.95-0.154-1.254
		c-0.388-0.303-0.949-0.232-1.254,0.155c-0.494,0.633-1.212,1.001-1.971,1.011c-0.77,0.02-1.485-0.338-1.992-0.955
		c-0.313-0.38-0.875-0.436-1.257-0.123c-0.381,0.313-0.437,0.875-0.124,1.257c0.841,1.024,2.057,1.608,3.34,1.608
		c0.02,0,0.039-0.001,0.059-0.001C42.582,41.136,43.804,40.517,44.633,39.455"/>
	<path clip-path="url(#SVGID_2_)" fill="#FFFFFF" d="M32.119,39.546c0.313-0.382,0.258-0.944-0.123-1.257
		c-0.38-0.313-0.944-0.259-1.257,0.123c-0.507,0.617-1.23,0.981-1.993,0.956c-0.758-0.01-1.477-0.38-1.97-1.012
		c-0.304-0.39-0.866-0.458-1.254-0.154c-0.389,0.303-0.458,0.864-0.155,1.253c0.83,1.062,2.052,1.681,3.354,1.698h0.057
		C30.063,41.153,31.278,40.569,32.119,39.546"/>
	<path clip-path="url(#SVGID_2_)" fill="#FFFFFF" d="M27.07,43.938c-0.501,0-0.907,0.405-0.907,0.906
		c0,0.502,0.406,0.907,0.907,0.907c0.5,0,0.907-0.405,0.907-0.907C27.977,44.344,27.57,43.938,27.07,43.938"/>
	<path clip-path="url(#SVGID_2_)" fill="#FFFFFF" d="M28.784,46.505c-0.419,0.272-0.538,0.834-0.265,1.255
		c0.274,0.419,0.835,0.537,1.255,0.264c0.421-0.273,0.538-0.836,0.265-1.255C29.766,46.349,29.204,46.231,28.784,46.505"/>
	<path clip-path="url(#SVGID_2_)" fill="#FFFFFF" d="M31.494,43.462c-0.5,0-0.907,0.405-0.907,0.906s0.407,0.907,0.907,0.907
		c0.501,0,0.907-0.406,0.907-0.907S31.996,43.462,31.494,43.462"/>
	<path clip-path="url(#SVGID_2_)" fill="#FFFFFF" d="M39.344,44.412c-0.498,0-0.901,0.403-0.901,0.901s0.403,0.902,0.901,0.902
		s0.901-0.404,0.901-0.902S39.842,44.412,39.344,44.412"/>
	<path clip-path="url(#SVGID_2_)" fill="#FFFFFF" d="M41.048,46.963c-0.417,0.271-0.534,0.831-0.263,1.248s0.831,0.534,1.247,0.263
		c0.417-0.272,0.535-0.831,0.264-1.248C42.023,46.808,41.465,46.691,41.048,46.963"/>
	<path clip-path="url(#SVGID_2_)" fill="#FFFFFF" d="M43.742,43.938c-0.498,0-0.901,0.403-0.901,0.901s0.403,0.902,0.901,0.902
		c0.497,0,0.901-0.404,0.901-0.902S44.239,43.938,43.742,43.938"/>
</g>
</svg>
