<?xml version="1.0" encoding="utf-8"?>
<!-- Generator: Adobe Illustrator 16.0.0, SVG Export Plug-In . SVG Version: 6.00 Build 0)  -->
<!DOCTYPE svg PUBLIC "-//W3C//DTD SVG 1.1//EN" "http://www.w3.org/Graphics/SVG/1.1/DTD/svg11.dtd">
<svg version="1.1" id="圖層_1" xmlns="http://www.w3.org/2000/svg" xmlns:xlink="http://www.w3.org/1999/xlink" x="0px" y="0px"
	 width="70px" height="70px" viewBox="0 0 70 70" enable-background="new 0 0 70 70" xml:space="preserve">
<path fill-rule="evenodd" clip-rule="evenodd" fill="#78C7F0" d="M70,35C70,15.683,54.317,0,35,0C15.683,0,0,15.683,0,35
	c0,19.317,15.683,35,35,35C54.317,70,70,54.317,70,35z"/>
<path fill="#FFFFFF" d="M40.799,36.215c-0.834-0.742-1.695-1.106-2.524-1.211c0.892-0.113,1.738-0.519,2.52-1.215
	c0.079-0.068,1.902-1.699,1.196-4.244c-0.257-0.928-0.828-1.716-1.608-2.223l-0.084-0.056c-0.758-0.519-1.229-1.567-1.229-2.736
	v-7.343c0-0.546-0.443-0.99-0.989-0.99s-0.989,0.444-0.989,0.99v7.343c0,1.813,0.802,3.487,2.093,4.373L39.3,28.98
	c0.378,0.244,0.655,0.632,0.783,1.094c0.368,1.326-0.563,2.198-0.6,2.231c-1.688,1.503-3.163,0.383-3.721-0.169
	c-0.429-0.423-1.101-0.422-1.529,0.002c-0.557,0.551-2.032,1.668-3.716,0.169c-0.04-0.036-0.972-0.899-0.601-2.233
	c0.128-0.462,0.408-0.852,0.792-1.1l0.112-0.075c1.288-0.883,2.087-2.558,2.087-4.37v-7.343c0-0.546-0.444-0.99-0.989-0.99
	c-0.546,0-0.99,0.444-0.99,0.99v7.343c0,1.169-0.469,2.217-1.223,2.733l-0.081,0.055c-0.784,0.505-1.358,1.296-1.617,2.227
	c-0.704,2.538,1.114,4.173,1.191,4.239c0.842,0.75,1.711,1.115,2.547,1.215c-0.835,0.1-1.703,0.463-2.543,1.211
	c-0.078,0.068-1.901,1.698-1.195,4.243c0.259,0.932,0.832,1.722,1.607,2.223l0.085,0.057c0.757,0.519,1.228,1.568,1.228,2.737v7.343
	c0,0.546,0.444,0.99,0.99,0.99c0.545,0,0.989-0.444,0.989-0.99v-7.343c0-1.813-0.801-3.488-2.094-4.374l-0.116-0.077
	c-0.376-0.243-0.654-0.632-0.782-1.095c-0.371-1.334,0.561-2.196,0.599-2.231c1.688-1.502,3.164-0.382,3.72,0.171
	c0.43,0.419,1.102,0.42,1.53-0.004c0.556-0.551,2.029-1.67,3.718-0.165c0.04,0.036,0.969,0.897,0.599,2.229
	c-0.128,0.462-0.407,0.853-0.792,1.101l-0.112,0.075c-1.288,0.882-2.088,2.557-2.088,4.37v7.343c0,0.546,0.443,0.99,0.989,0.99
	s0.989-0.444,0.989-0.99v-7.343c0-1.169,0.47-2.218,1.223-2.733l0.083-0.056c0.783-0.508,1.357-1.299,1.615-2.228
	C42.692,37.928,40.891,36.296,40.799,36.215 M37.273,34.998c-0.849,0.099-1.631,0.451-2.274,0.92
	c-0.638-0.466-1.414-0.814-2.254-0.918c0.841-0.104,1.617-0.453,2.254-0.918C35.7,34.596,36.487,34.902,37.273,34.998"/>
<polygon fill="#FFFFFF" points="18.303,42.724 17.719,39.873 23.299,40.708 15.413,36.298 16.29,39.356 10.593,38.714 "/>
<polygon fill="#FFFFFF" points="19.129,28.812 14.254,25.65 19.559,32.762 20.205,29.926 24.893,33.211 19.596,25.655 "/>
<polygon fill="#FFFFFF" points="19.551,45.818 14.254,53.373 18.942,50.087 19.588,52.925 24.893,45.812 20.019,48.975 "/>
<polygon fill="#FFFFFF" points="51.696,36.298 52.281,39.149 46.701,38.313 54.586,42.724 53.71,39.666 59.407,40.308 "/>
<polygon fill="#FFFFFF" points="49.794,49.097 45.106,45.813 50.403,53.365 50.871,50.21 55.745,53.372 50.44,46.26 "/>
<polygon fill="#FFFFFF" points="50.448,33.203 55.745,25.649 51.057,28.933 50.411,26.098 45.106,33.21 49.98,30.048 "/>
</svg>
