<?xml version="1.0" encoding="utf-8"?>
<!-- Generator: Adobe Illustrator 16.0.0, SVG Export Plug-In . SVG Version: 6.00 Build 0)  -->
<!DOCTYPE svg PUBLIC "-//W3C//DTD SVG 1.1//EN" "http://www.w3.org/Graphics/SVG/1.1/DTD/svg11.dtd">
<svg version="1.1" id="圖層_1" xmlns="http://www.w3.org/2000/svg" xmlns:xlink="http://www.w3.org/1999/xlink" x="0px" y="0px"
	 width="70px" height="70px" viewBox="0 0 70 70" enable-background="new 0 0 70 70" xml:space="preserve">
<path fill-rule="evenodd" clip-rule="evenodd" fill="#78C7F0" d="M70,35C70,15.683,54.317,0,35,0C15.683,0,0,15.683,0,35
	c0,19.317,15.683,35,35,35C54.317,70,70,54.317,70,35z"/>
<path fill="#FFFFFF" d="M51.601,42.81l-1.317-0.74c1.421-2.526,2.172-5.404,2.172-8.321c0-9.377-7.629-17.006-17.006-17.006
	c-1.096,0-2.191,0.105-3.257,0.312l-0.288-1.484c1.161-0.225,2.353-0.339,3.545-0.339c10.21,0,18.518,8.307,18.518,18.518
	C53.967,36.924,53.148,40.058,51.601,42.81"/>
<path fill="#FFFFFF" d="M35.449,52.265c-10.21,0-18.517-8.307-18.517-18.517c0-7.962,5.066-15.017,12.607-17.554l0.482,1.433
	c-6.925,2.331-11.578,8.81-11.578,16.122c0,9.377,7.629,17.006,17.006,17.006c4.497,0,8.737-1.739,11.94-4.897l1.061,1.076
	C44.964,50.371,40.347,52.265,35.449,52.265"/>
<path fill="#FFFFFF" d="M49.367,45.962l-1.136-0.998c0.34-0.386,0.665-0.792,0.968-1.207l1.221,0.891
	C50.091,45.099,49.736,45.541,49.367,45.962"/>
<path fill="#FFFFFF" d="M51.584,37.746c-1.337,0-2.744-0.57-3.869-1.622c-1.632-1.526-2.25-3.625-1.652-5.617
	c0.251-0.839,0.212-1.489-0.117-1.932c-0.531-0.713-1.785-0.874-2.183-0.874c-1.568,0-4.534-0.948-4.534-4.535
	c0-1.186,0.269-2.318,0.8-3.365l1.348,0.684c-0.422,0.833-0.636,1.735-0.636,2.682c0,2.989,2.899,3.023,3.022,3.023
	c0.094,0,2.305,0.017,3.396,1.483c0.63,0.847,0.749,1.947,0.352,3.269c-0.429,1.429,0.034,2.953,1.237,4.078
	c1.148,1.074,2.648,1.484,3.82,1.044l0.53,1.415C52.618,37.658,52.106,37.746,51.584,37.746"/>
<path fill="#FFFFFF" d="M21.473,27.757c-0.916,0-1.799-0.164-2.571-0.495l0.595-1.39c2.288,0.98,5.993,0.029,7.341-2.667
	c1.057-2.114,2.369-1.816,3.327-1.6c0.766,0.174,1.32,0.299,2.105-0.486c1.987-1.987,1.676-5.02,1.672-5.051l1.502-0.167
	c0.018,0.153,0.39,3.791-2.106,6.286c-1.375,1.375-2.658,1.084-3.508,0.892c-0.834-0.189-1.115-0.252-1.641,0.802
	C26.908,26.445,24.063,27.757,21.473,27.757"/>
<path fill="#FFFFFF" d="M38.873,51.772l-0.801-1.282l0.4,0.641l-0.402-0.64c0.024-0.016,2.37-1.539,1.644-2.75
	c-0.422-0.702-0.973-0.923-1.61-1.177c-0.764-0.306-1.715-0.686-2.223-1.954c-0.525-1.313,0.047-2.265,0.506-3.029
	c0.388-0.646,0.724-1.205,0.584-2.04c-0.338-2.028-0.915-2.501-2.083-2.792c-0.494-0.124-0.784-0.026-1.265,0.136
	c-0.643,0.217-1.442,0.486-2.833,0.254c-1.349-0.225-1.906-1.083-2.354-1.773c-0.484-0.746-0.805-1.24-2.057-1.24
	c-2.082,0-2.55,1.226-2.638,1.557c0.046,0.546,0.128,2.439-0.777,3.451c-0.387,0.433-0.905,0.66-1.498,0.66h-3.023v-1.512h3.023
	c0.164,0,0.271-0.045,0.371-0.155c0.438-0.488,0.452-1.833,0.39-2.407l-0.011-0.104l0.017-0.103
	c0.167-1.003,1.249-2.899,4.146-2.899c2.074,0,2.797,1.114,3.325,1.928c0.422,0.651,0.674,0.996,1.334,1.105
	c1.02,0.17,1.545-0.008,2.103-0.195c0.559-0.188,1.19-0.401,2.114-0.17c1.931,0.482,2.801,1.569,3.207,4.01
	c0.23,1.385-0.329,2.317-0.779,3.067c-0.436,0.725-0.634,1.099-0.397,1.689c0.255,0.638,0.647,0.819,1.379,1.111
	c0.74,0.296,1.662,0.663,2.346,1.804C42.206,48.958,40.229,50.924,38.873,51.772"/>
<path fill="#FFFFFF" d="M35.042,51.717l-1.453-0.415c0.59-2.064-0.451-2.938-1.123-3.273c-1.098-0.549-1.973-2.421-1.537-4.603
	c0.3-1.5-0.613-2.656-1.387-2.914c-0.302-0.101-0.828-0.084-1.404,0.262c-0.447,0.268-1.057,0.816-1.419,1.905
	c-0.898,2.695-4.632,3.14-4.791,3.157l-0.167-1.502l0.083,0.751l-0.085-0.751c0.029-0.003,2.933-0.356,3.525-2.134
	c0.509-1.526,1.41-2.324,2.076-2.724c0.863-0.518,1.857-0.667,2.659-0.399c1.53,0.51,2.843,2.387,2.392,4.645
	c-0.335,1.677,0.377,2.778,0.731,2.955C33.828,47.02,35.991,48.396,35.042,51.717"/>
<rect x="40.635" y="24.471" fill-rule="evenodd" clip-rule="evenodd" fill="#78C7F0" width="23.809" height="16.116"/>
<path fill="#FFFFFF" d="M64.039,40.029h-23v-15h23V40.029z M42.085,39.146h20.909V25.912H42.085V39.146z"/>
<path fill="#FFFFFF" d="M52.174,36.704c-2.317,0-4.204-1.886-4.204-4.204s1.887-4.204,4.204-4.204c2.318,0,4.204,1.886,4.204,4.204
	S54.492,36.704,52.174,36.704 M52.174,29.808c-1.484,0-2.692,1.208-2.692,2.692s1.208,2.692,2.692,2.692
	c1.485,0,2.693-1.208,2.693-2.692S53.659,29.808,52.174,29.808"/>
</svg>
