<?xml version="1.0" encoding="utf-8"?>
<!-- Generator: Adobe Illustrator 16.0.0, SVG Export Plug-In . SVG Version: 6.00 Build 0)  -->
<!DOCTYPE svg PUBLIC "-//W3C//DTD SVG 1.1//EN" "http://www.w3.org/Graphics/SVG/1.1/DTD/svg11.dtd">
<svg version="1.1" id="圖層_1" xmlns="http://www.w3.org/2000/svg" xmlns:xlink="http://www.w3.org/1999/xlink" x="0px" y="0px"
	 width="70px" height="70px" viewBox="0 0 70 70" enable-background="new 0 0 70 70" xml:space="preserve">
<path fill-rule="evenodd" clip-rule="evenodd" fill="#78C7F0" d="M70,35C70,15.683,54.317,0,35,0C15.683,0,0,15.683,0,35
	c0,19.317,15.683,35,35,35C54.317,70,70,54.317,70,35z"/>
<path fill="#FFFFFF" d="M53,27.789c0-3.102-2.523-5.625-5.625-5.625s-5.625,2.523-5.625,5.625c0,0.413,0.051,0.813,0.136,1.2
	c-0.28-0.043-0.564-0.075-0.855-0.075H31.22c-2.674,0-4.994,1.902-5.515,4.521l-1.346,6.729h-3.983
	c-1.861,0-3.375,1.515-3.375,3.375c0,1.861,1.514,3.375,3.375,3.375h7.875c1.601,0,2.993-1.14,3.3-2.674l0.965-4.076h8.005
	l1.31,4.104c0.34,1.538,1.713,2.646,3.294,2.646c0.228,0,0.451-0.021,0.663-0.065c0.884-0.177,1.645-0.688,2.145-1.438
	c0.501-0.751,0.68-1.651,0.502-2.533l-1.889-9.438c-0.007-0.038-0.023-0.073-0.032-0.111c0.283,0.044,0.567,0.087,0.862,0.087
	C50.477,33.414,53,30.89,53,27.789 M47.375,24.414c1.861,0,3.375,1.514,3.375,3.375c0,1.861-1.514,3.375-3.375,3.375
	S44,29.649,44,27.789C44,25.927,45.514,24.414,47.375,24.414 M31.22,31.164h1.53v6.75h-5.647l0.808-4.038
	C28.224,32.304,29.616,31.164,31.22,31.164 M28.25,44.663h-7.875c-0.621,0-1.125-0.504-1.125-1.125c0-0.62,0.504-1.125,1.125-1.125
	h4.905c0.536,0,0.998-0.379,1.103-0.903l0.27-1.347h3.55l-0.85,3.595C29.248,44.282,28.784,44.663,28.25,44.663 M46.06,44.161
	c-0.167,0.251-0.421,0.421-0.719,0.481c-0.555,0.104-1.2-0.285-1.319-0.883c-0.008-0.042-0.019-0.083-0.03-0.122l-2.294-7.19
	c-0.153-0.479-0.596-0.784-1.072-0.784c-0.113,0-0.229,0.017-0.342,0.053c-0.592,0.189-0.918,0.822-0.73,1.414l0.25,0.783H35v-6.75
	h6.03c1.604,0,2.996,1.142,3.31,2.715l1.888,9.439C46.287,43.611,46.227,43.911,46.06,44.161"/>
</svg>
