<?xml version="1.0" encoding="utf-8"?>
<!-- Generator: Adobe Illustrator 16.0.0, SVG Export Plug-In . SVG Version: 6.00 Build 0)  -->
<!DOCTYPE svg PUBLIC "-//W3C//DTD SVG 1.1//EN" "http://www.w3.org/Graphics/SVG/1.1/DTD/svg11.dtd">
<svg version="1.1" id="圖層_1" xmlns="http://www.w3.org/2000/svg" xmlns:xlink="http://www.w3.org/1999/xlink" x="0px" y="0px"
	 width="70px" height="70px" viewBox="0 0 70 70" enable-background="new 0 0 70 70" xml:space="preserve">
<path fill-rule="evenodd" clip-rule="evenodd" fill="#78C7F0" d="M70,35C70,15.683,54.317,0,35,0C15.683,0,0,15.683,0,35
	c0,19.317,15.683,35,35,35C54.317,70,70,54.317,70,35z"/>
<g>
	<polygon fill="#FFFFFF" points="40.742,14.852 40.742,22.703 39.316,21.277 37.847,22.747 41.782,26.682 45.717,22.747 
		44.247,21.277 42.821,22.703 42.821,14.852 	"/>
	<polygon fill="#FFFFFF" points="29.702,23.073 28.232,21.604 26.806,23.029 26.806,15.178 24.728,15.178 24.728,23.029 
		23.301,21.604 21.832,23.073 25.767,27.008 	"/>
	<path fill="#FFFFFF" d="M43.815,35.908c-1.545,0-2.873-1.024-3.307-2.549c-1.055-3.715-3.609-6.115-6.508-6.115
		s-5.454,2.4-6.508,6.115c-0.433,1.524-1.762,2.549-3.306,2.549H12.001v2.078h12.185c2.445,0,4.627-1.669,5.306-4.06
		c0.794-2.796,2.564-4.604,4.509-4.604s3.715,1.807,4.509,4.604c0.679,2.391,2.86,4.06,5.306,4.06H56v-2.078H43.815z"/>
	<path fill="#FFFFFF" d="M21.969,51.958c-0.025-0.061-0.059-0.117-0.094-0.172c-0.038-0.061-0.082-0.115-0.133-0.166
		c-0.043-0.044-0.092-0.083-0.163-0.134c-0.062-0.04-0.12-0.069-0.173-0.089c-0.075-0.032-0.142-0.052-0.186-0.058
		c-0.141-0.032-0.283-0.031-0.399-0.005c-0.069,0.011-0.137,0.03-0.201,0.058c-0.068,0.026-0.125,0.057-0.201,0.105
		c-0.053,0.039-0.101,0.078-0.144,0.121c-0.052,0.052-0.096,0.106-0.136,0.17c-0.034,0.055-0.067,0.109-0.091,0.167
		c-0.03,0.07-0.05,0.142-0.055,0.183c-0.016,0.063-0.024,0.138-0.024,0.218c0,0.276,0.108,0.537,0.306,0.734
		c0.057,0.056,0.108,0.099,0.163,0.134s0.111,0.068,0.168,0.092c0.058,0.024,0.12,0.041,0.213,0.062
		c0.063,0.011,0.125,0.019,0.189,0.019c0.063,0,0.126-0.008,0.218-0.024c0.063-0.015,0.125-0.03,0.182-0.055
		c0.06-0.024,0.116-0.058,0.171-0.094c0.055-0.034,0.106-0.077,0.163-0.133c0.197-0.197,0.306-0.458,0.306-0.734
		c0-0.08-0.008-0.153-0.018-0.188C22.018,52.098,21.998,52.026,21.969,51.958"/>
	<path fill="#FFFFFF" d="M26.303,47.639c-0.028-0.072-0.063-0.138-0.098-0.184c-0.038-0.06-0.081-0.114-0.13-0.162
		c-0.188-0.188-0.457-0.297-0.736-0.297h-0.004c-0.279,0.001-0.546,0.109-0.73,0.297c-0.056,0.056-0.099,0.107-0.135,0.163
		c-0.036,0.058-0.066,0.114-0.089,0.175c-0.024,0.059-0.044,0.118-0.065,0.212c-0.009,0.062-0.017,0.122-0.017,0.184
		c0,0.138,0.025,0.267,0.079,0.4c0.054,0.128,0.135,0.245,0.215,0.32c0.054,0.06,0.11,0.104,0.175,0.15
		c0.055,0.034,0.115,0.064,0.172,0.089c0.075,0.031,0.143,0.051,0.185,0.057c0.066,0.016,0.136,0.022,0.214,0.022
		c0.141,0,0.275-0.026,0.4-0.078c0.124-0.052,0.238-0.129,0.337-0.228c0.096-0.095,0.173-0.211,0.226-0.338
		c0.052-0.129,0.077-0.259,0.077-0.396c0-0.077-0.008-0.146-0.018-0.188C26.35,47.771,26.33,47.703,26.303,47.639"/>
	<path fill="#FFFFFF" d="M30.63,51.958c-0.025-0.061-0.055-0.115-0.103-0.19c-0.035-0.048-0.07-0.091-0.122-0.148
		c-0.043-0.043-0.095-0.082-0.152-0.124c-0.052-0.037-0.112-0.069-0.182-0.098c-0.068-0.029-0.141-0.051-0.191-0.059
		c-0.337-0.071-0.699,0.036-0.956,0.294c-0.044,0.049-0.087,0.1-0.122,0.154s-0.064,0.109-0.089,0.17
		c-0.024,0.058-0.044,0.123-0.064,0.21c-0.01,0.058-0.018,0.126-0.018,0.189c0,0.132,0.028,0.269,0.08,0.393
		c0.052,0.13,0.125,0.24,0.226,0.342c0.197,0.197,0.458,0.306,0.734,0.306c0.277,0,0.539-0.108,0.737-0.307
		c0.1-0.101,0.174-0.212,0.224-0.336c0.051-0.124,0.079-0.261,0.079-0.397c0-0.08-0.008-0.153-0.018-0.188
		C30.68,52.098,30.659,52.026,30.63,51.958"/>
	<path fill="#FFFFFF" d="M34.964,47.639c-0.026-0.067-0.057-0.125-0.094-0.185c-0.035-0.054-0.078-0.106-0.133-0.161
		c-0.399-0.398-1.072-0.398-1.47,0c-0.043,0.043-0.083,0.091-0.135,0.163c-0.036,0.058-0.066,0.114-0.089,0.175
		c-0.031,0.073-0.05,0.14-0.056,0.183c-0.015,0.066-0.022,0.136-0.022,0.213c0,0.283,0.108,0.544,0.303,0.733
		c0.197,0.197,0.458,0.306,0.737,0.306c0.078,0,0.147-0.007,0.187-0.018c0.069-0.011,0.137-0.03,0.21-0.062
		c0.06-0.024,0.12-0.055,0.174-0.09l0.046-0.034c0.044-0.035,0.089-0.072,0.113-0.1c0.196-0.191,0.31-0.46,0.31-0.736
		c0-0.063-0.009-0.125-0.023-0.213C35.005,47.749,34.985,47.689,34.964,47.639"/>
	<path fill="#FFFFFF" d="M39.304,51.979l-0.019-0.044c-0.026-0.053-0.053-0.101-0.084-0.15c-0.035-0.054-0.078-0.104-0.135-0.166
		c-0.043-0.043-0.091-0.082-0.161-0.133c-0.055-0.035-0.115-0.065-0.173-0.09c-0.075-0.031-0.143-0.051-0.187-0.057
		c-0.141-0.032-0.283-0.031-0.398-0.005c-0.071,0.011-0.144,0.031-0.213,0.061c-0.061,0.025-0.116,0.056-0.188,0.103
		c-0.048,0.035-0.092,0.07-0.136,0.109l-0.025,0.025c-0.039,0.043-0.074,0.087-0.122,0.153c-0.035,0.056-0.064,0.11-0.09,0.171
		c-0.029,0.07-0.05,0.142-0.055,0.182c-0.016,0.064-0.023,0.138-0.023,0.218c0,0.273,0.106,0.532,0.317,0.748
		c0.048,0.044,0.098,0.086,0.15,0.119c0.056,0.035,0.111,0.069,0.17,0.093c0.053,0.023,0.109,0.038,0.164,0.052l0.045,0.01
		c0.063,0.01,0.13,0.019,0.192,0.019c0.063,0,0.126-0.009,0.214-0.023c0.064-0.015,0.125-0.031,0.183-0.056
		c0.06-0.024,0.12-0.059,0.175-0.093c0.07-0.045,0.126-0.098,0.162-0.135c0.197-0.196,0.306-0.457,0.306-0.733
		c0-0.081-0.008-0.155-0.022-0.212C39.338,52.088,39.32,52.031,39.304,51.979"/>
	<path fill="#FFFFFF" d="M43.629,47.638c-0.028-0.072-0.063-0.138-0.098-0.184c-0.039-0.06-0.082-0.114-0.13-0.161
		c-0.188-0.188-0.456-0.297-0.736-0.297h-0.004c-0.279,0.001-0.546,0.109-0.717,0.284c-0.055,0.05-0.103,0.106-0.147,0.176
		c-0.036,0.058-0.07,0.115-0.094,0.175c-0.024,0.059-0.04,0.118-0.055,0.183c-0.016,0.066-0.023,0.136-0.023,0.213
		c0,0.138,0.025,0.267,0.079,0.4c0.054,0.128,0.135,0.245,0.224,0.33c0.191,0.196,0.46,0.309,0.737,0.309s0.539-0.108,0.736-0.306
		c0.192-0.192,0.303-0.46,0.303-0.733c0-0.078-0.008-0.147-0.018-0.188C43.676,47.771,43.656,47.704,43.629,47.638"/>
	<path fill="#FFFFFF" d="M47.956,51.957c-0.025-0.061-0.055-0.116-0.103-0.189c-0.035-0.048-0.07-0.092-0.109-0.136l-0.025-0.024
		c-0.044-0.039-0.087-0.074-0.152-0.121c-0.056-0.035-0.11-0.065-0.169-0.089c-0.072-0.031-0.145-0.052-0.187-0.057
		c-0.138-0.033-0.286-0.033-0.402-0.006c-0.069,0.011-0.137,0.03-0.209,0.062c-0.061,0.024-0.12,0.055-0.192,0.102
		c-0.054,0.039-0.102,0.078-0.157,0.135c-0.044,0.049-0.087,0.099-0.123,0.154c-0.034,0.056-0.064,0.11-0.088,0.169
		c-0.025,0.059-0.046,0.124-0.064,0.209c-0.01,0.059-0.019,0.128-0.019,0.191c0,0.137,0.027,0.274,0.076,0.393
		c0.051,0.125,0.126,0.237,0.229,0.342c0.197,0.197,0.458,0.306,0.733,0.306c0.278,0,0.54-0.108,0.74-0.31
		c0.193-0.198,0.3-0.457,0.3-0.73c0-0.081-0.009-0.155-0.019-0.188C48.006,52.099,47.985,52.027,47.956,51.957"/>
	<path fill="#FFFFFF" d="M52.29,47.638c-0.026-0.067-0.057-0.125-0.105-0.201c-0.039-0.053-0.078-0.101-0.122-0.144
		c-0.398-0.398-1.071-0.398-1.47,0c-0.056,0.055-0.099,0.107-0.135,0.163c-0.036,0.058-0.066,0.115-0.089,0.174
		c-0.025,0.06-0.045,0.119-0.064,0.208c-0.01,0.063-0.019,0.126-0.019,0.188c0,0.144,0.028,0.277,0.083,0.4
		c0.056,0.134,0.134,0.248,0.224,0.333c0.1,0.099,0.213,0.176,0.336,0.227c0.124,0.052,0.261,0.079,0.397,0.079
		c0.081,0,0.149-0.007,0.19-0.018c0.069-0.011,0.137-0.03,0.209-0.061s0.133-0.063,0.188-0.102c0.053-0.039,0.101-0.078,0.142-0.119
		c0.098-0.093,0.175-0.207,0.233-0.345c0.052-0.129,0.076-0.258,0.076-0.396c0-0.078-0.007-0.147-0.018-0.188
		C52.337,47.771,52.318,47.704,52.29,47.638"/>
	<path fill="#FFFFFF" d="M17.641,47.639c-0.027-0.072-0.063-0.138-0.097-0.184c-0.038-0.06-0.082-0.114-0.13-0.162
		c-0.188-0.188-0.457-0.297-0.737-0.297h-0.003c-0.279,0.001-0.546,0.109-0.73,0.297c-0.056,0.056-0.099,0.107-0.134,0.163
		c-0.036,0.058-0.067,0.114-0.089,0.175c-0.025,0.059-0.044,0.118-0.065,0.212c-0.009,0.062-0.017,0.122-0.017,0.184
		c0,0.138,0.025,0.267,0.079,0.4c0.054,0.128,0.135,0.245,0.228,0.333c0.104,0.104,0.216,0.179,0.336,0.227
		c0.125,0.053,0.259,0.079,0.397,0.079c0.079,0,0.151-0.008,0.194-0.019c0.067-0.011,0.139-0.031,0.206-0.061
		c0.061-0.024,0.116-0.055,0.189-0.102c0.052-0.038,0.1-0.077,0.148-0.125c0.095-0.095,0.172-0.211,0.226-0.338
		c0.052-0.129,0.077-0.259,0.077-0.396c0-0.077-0.007-0.146-0.018-0.188C17.688,47.771,17.668,47.703,17.641,47.639"/>
	<path fill="#FFFFFF" d="M51.41,40.452c-0.852,0.653-1.524,1.17-2.976,1.17s-2.124-0.517-2.977-1.171
		c-0.928-0.713-2.084-1.601-4.242-1.601c-2.157,0-3.313,0.888-4.242,1.601c-0.852,0.654-1.524,1.171-2.975,1.171
		s-2.124-0.517-2.976-1.171c-0.929-0.713-2.084-1.601-4.242-1.601s-3.313,0.888-4.242,1.602c-0.852,0.653-1.524,1.17-2.975,1.17
		c-1.451,0-2.124-0.517-2.976-1.171c-0.928-0.713-2.083-1.601-4.241-1.601H12v2.079h0.347c1.451,0,2.123,0.516,2.975,1.17
		c0.929,0.713,2.084,1.602,4.242,1.602s3.313-0.889,4.242-1.602c0.851-0.654,1.524-1.17,2.975-1.17s2.124,0.516,2.976,1.17
		c0.928,0.713,2.084,1.602,4.242,1.602s3.313-0.889,4.242-1.602c0.852-0.654,1.524-1.17,2.976-1.17c1.452,0,2.124,0.516,2.977,1.17
		c0.929,0.713,2.085,1.602,4.242,1.602c2.158,0,3.314-0.889,4.243-1.602c0.852-0.654,1.524-1.17,2.976-1.17H56v-2.079h-0.347
		C53.495,38.851,52.34,39.738,51.41,40.452"/>
</g>
</svg>
