<?xml version="1.0" encoding="utf-8"?>
<!-- Generator: Adobe Illustrator 16.0.0, SVG Export Plug-In . SVG Version: 6.00 Build 0)  -->
<!DOCTYPE svg PUBLIC "-//W3C//DTD SVG 1.1//EN" "http://www.w3.org/Graphics/SVG/1.1/DTD/svg11.dtd">
<svg version="1.1" id="圖層_1" xmlns="http://www.w3.org/2000/svg" xmlns:xlink="http://www.w3.org/1999/xlink" x="0px" y="0px"
	 width="70px" height="70px" viewBox="0 0 70 70" enable-background="new 0 0 70 70" xml:space="preserve">
<path fill-rule="evenodd" clip-rule="evenodd" fill="#78C7F0" d="M70,35C70,15.683,54.317,0,35,0C15.683,0,0,15.683,0,35
	c0,19.317,15.683,35,35,35C54.317,70,70,54.317,70,35z"/>
<path fill="#FFFFFF" d="M52.586,36.305C53.382,35.693,54.284,35,56.04,35h0.214v1.57H56.04c-1.222,0-1.784,0.433-2.497,0.979
	c-0.797,0.612-1.699,1.306-3.454,1.306s-2.657-0.693-3.453-1.306c-0.713-0.547-1.276-0.979-2.497-0.979h-0.214V35h0.214
	c1.755,0,2.657,0.693,3.454,1.305c0.713,0.548,1.275,0.979,2.496,0.979S51.873,36.853,52.586,36.305 M22.185,36.305
	c-0.712,0.548-1.275,0.979-2.496,0.979c-1.221,0-1.783-0.432-2.496-0.979C16.396,35.693,15.494,35,13.74,35h-0.214v1.57h0.214
	c1.22,0,1.783,0.433,2.497,0.979c0.796,0.612,1.698,1.306,3.453,1.306c1.754,0,2.656-0.693,3.453-1.306
	c0.713-0.547,1.275-0.979,2.496-0.979h0.214V35h-0.214C23.884,35,22.981,35.693,22.185,36.305 M44.755,30.026l1.051-1.05
	l-1.482-1.482h7.813v-1.867h-7.813l1.482-1.482l-1.32-1.32l-3.736,3.736l3.482,3.482c-2.198,0.166-4.111,1.721-4.729,3.9
	c-0.789,2.778-2.556,4.573-4.5,4.573s-3.71-1.795-4.5-4.573c-0.605-2.131-2.449-3.665-4.586-3.886l3.496-3.496l-3.736-3.736
	l-1.32,1.32l1.482,1.482h-7.813v1.867h7.813l-1.482,1.482l1.051,1.051c-0.008,0-0.015-0.001-0.023-0.001H13.529v1.867h11.855
	c1.552,0,2.887,1.028,3.322,2.56c1.022,3.602,3.494,5.93,6.296,5.93s5.273-2.328,6.296-5.93c0.435-1.531,1.77-2.56,3.321-2.56
	h11.855v-1.867H44.755z M23.131,45.883c-0.022-0.055-0.049-0.105-0.081-0.155c-0.03-0.048-0.068-0.091-0.122-0.15
	c-0.219-0.214-0.543-0.31-0.836-0.252c-0.058,0.01-0.121,0.028-0.18,0.054c-0.067,0.027-0.122,0.057-0.159,0.085
	c-0.053,0.033-0.101,0.072-0.157,0.129c-0.039,0.044-0.077,0.087-0.106,0.135c-0.032,0.05-0.059,0.101-0.081,0.153
	c-0.023,0.054-0.041,0.112-0.058,0.188c-0.009,0.058-0.017,0.115-0.017,0.172c0,0.058,0.007,0.115,0.021,0.19
	c0.014,0.06,0.031,0.113,0.054,0.165c0.022,0.055,0.049,0.108,0.082,0.159c0.031,0.048,0.069,0.095,0.119,0.145
	c0.088,0.089,0.19,0.157,0.303,0.205c0.11,0.045,0.234,0.069,0.356,0.069c0.126,0,0.247-0.023,0.36-0.07
	c0.112-0.047,0.213-0.115,0.302-0.204c0.05-0.05,0.088-0.097,0.12-0.146c0.032-0.05,0.059-0.104,0.081-0.157
	c0.022-0.054,0.04-0.107,0.058-0.185c0.009-0.057,0.013-0.114,0.013-0.172c0-0.057-0.004-0.114-0.017-0.189
	C23.171,45.994,23.154,45.937,23.131,45.883 M27.028,41.219c-0.05-0.031-0.104-0.059-0.142-0.073
	c-0.063-0.031-0.124-0.047-0.191-0.063c-0.121-0.023-0.246-0.023-0.371,0.002c-0.053,0.012-0.117,0.027-0.167,0.054
	c-0.063,0.025-0.117,0.055-0.156,0.081c-0.051,0.033-0.104,0.076-0.147,0.119c-0.173,0.173-0.271,0.413-0.271,0.659
	c0,0.252,0.096,0.486,0.271,0.662c0.085,0.085,0.187,0.152,0.303,0.201c0.112,0.047,0.232,0.07,0.359,0.07
	c0.069,0,0.131-0.007,0.169-0.017c0.079-0.012,0.144-0.036,0.188-0.055c0.064-0.027,0.118-0.056,0.166-0.09
	c0.049-0.035,0.097-0.071,0.136-0.11c0.177-0.177,0.275-0.413,0.275-0.662c0-0.244-0.1-0.484-0.275-0.659
	C27.125,41.289,27.078,41.251,27.028,41.219 M31.286,45.472c-0.049-0.036-0.104-0.065-0.171-0.093
	c-0.042-0.018-0.106-0.042-0.17-0.052c-0.3-0.064-0.625,0.032-0.845,0.253c-0.046,0.047-0.085,0.096-0.109,0.135
	c-0.038,0.051-0.069,0.106-0.093,0.166c-0.026,0.063-0.045,0.126-0.051,0.171c-0.013,0.059-0.02,0.12-0.02,0.189
	s0.007,0.132,0.017,0.173c0.009,0.061,0.027,0.121,0.054,0.183c0.022,0.055,0.05,0.108,0.091,0.172
	c0.032,0.043,0.071,0.094,0.111,0.129c0.172,0.177,0.413,0.277,0.661,0.277c0.123,0,0.245-0.024,0.353-0.069
	c0.113-0.045,0.212-0.112,0.303-0.203c0.176-0.172,0.277-0.412,0.277-0.661s-0.098-0.484-0.275-0.662
	C31.375,45.536,31.327,45.497,31.286,45.472 M34.813,41.085c-0.061,0.014-0.117,0.029-0.169,0.053
	c-0.054,0.022-0.104,0.05-0.156,0.082c-0.047,0.031-0.094,0.069-0.135,0.111c-0.049,0.044-0.091,0.095-0.129,0.154
	c-0.031,0.049-0.062,0.103-0.083,0.155c-0.023,0.055-0.038,0.108-0.051,0.167s-0.02,0.12-0.02,0.19c0,0.25,0.098,0.484,0.275,0.662
	c0.172,0.172,0.413,0.271,0.659,0.271s0.486-0.1,0.658-0.271c0.09-0.089,0.158-0.19,0.204-0.303
	c0.047-0.112,0.071-0.233,0.071-0.359c0-0.249-0.102-0.489-0.272-0.657C35.448,41.121,35.124,41.022,34.813,41.085 M40.109,45.883
	c-0.022-0.055-0.05-0.105-0.09-0.167c-0.032-0.045-0.064-0.085-0.12-0.146c-0.045-0.04-0.09-0.075-0.126-0.099
	c-0.052-0.037-0.106-0.067-0.168-0.093c-0.063-0.026-0.126-0.045-0.179-0.053c-0.119-0.022-0.241-0.022-0.353-0.002
	c-0.06,0.01-0.117,0.027-0.184,0.055s-0.121,0.057-0.159,0.085c-0.053,0.033-0.101,0.072-0.156,0.129
	c-0.039,0.044-0.076,0.087-0.107,0.136c-0.031,0.05-0.059,0.1-0.081,0.154c-0.022,0.054-0.04,0.111-0.059,0.194
	c-0.008,0.055-0.016,0.109-0.016,0.164s0.008,0.109,0.021,0.19c0.015,0.06,0.028,0.113,0.051,0.165
	c0.027,0.067,0.057,0.122,0.085,0.159c0.03,0.048,0.069,0.095,0.11,0.135c0.043,0.049,0.094,0.09,0.141,0.121
	c0.049,0.034,0.103,0.064,0.171,0.094c0.055,0.021,0.108,0.036,0.184,0.053c0.058,0.009,0.115,0.017,0.172,0.017
	c0.25,0,0.485-0.097,0.662-0.274c0.04-0.039,0.076-0.083,0.12-0.146c0.031-0.05,0.059-0.104,0.08-0.156
	c0.028-0.065,0.046-0.125,0.052-0.167c0.013-0.059,0.02-0.121,0.02-0.19s-0.007-0.131-0.017-0.17
	C40.154,46.009,40.136,45.945,40.109,45.883 M43.296,41.086c-0.053,0.013-0.109,0.03-0.161,0.052
	c-0.054,0.022-0.107,0.05-0.159,0.082c-0.048,0.031-0.095,0.069-0.145,0.119c-0.175,0.175-0.274,0.415-0.274,0.659
	c0,0.057,0.008,0.117,0.021,0.198c0.013,0.052,0.03,0.108,0.053,0.16c0.021,0.055,0.049,0.104,0.081,0.156
	c0.031,0.049,0.07,0.094,0.124,0.151c0.09,0.086,0.19,0.151,0.299,0.197c0.112,0.047,0.233,0.07,0.358,0.07
	c0.245,0,0.479-0.096,0.668-0.281c0.04-0.044,0.079-0.089,0.111-0.139c0.031-0.051,0.059-0.101,0.08-0.153
	c0.022-0.053,0.041-0.111,0.058-0.185c0.01-0.058,0.017-0.119,0.017-0.176c0-0.244-0.1-0.484-0.274-0.659
	C43.934,41.121,43.61,41.022,43.296,41.086 M47.565,45.324c-0.062,0.01-0.124,0.028-0.188,0.054
	c-0.061,0.026-0.116,0.057-0.154,0.085c-0.053,0.034-0.101,0.072-0.148,0.12c-0.173,0.172-0.271,0.412-0.271,0.658
	c0,0.067,0.006,0.129,0.017,0.173c0.01,0.06,0.026,0.118,0.054,0.183c0.022,0.054,0.05,0.107,0.091,0.172
	c0.035,0.049,0.07,0.092,0.11,0.132c0.088,0.089,0.19,0.157,0.303,0.204s0.233,0.07,0.359,0.07c0.247,0,0.481-0.098,0.658-0.274
	c0.05-0.05,0.089-0.097,0.12-0.145c0.031-0.051,0.063-0.104,0.085-0.158s0.037-0.108,0.054-0.184
	c0.009-0.059,0.017-0.115,0.017-0.173c0-0.244-0.101-0.484-0.275-0.658C48.177,45.363,47.855,45.266,47.565,45.324 M52.844,41.643
	c-0.022-0.055-0.054-0.109-0.085-0.158c-0.037-0.06-0.08-0.11-0.117-0.144c-0.216-0.22-0.539-0.318-0.851-0.257
	c-0.058,0.014-0.115,0.032-0.169,0.055c-0.055,0.022-0.104,0.049-0.155,0.081c-0.062,0.039-0.111,0.086-0.136,0.111
	c-0.049,0.044-0.091,0.095-0.12,0.141c-0.036,0.05-0.066,0.105-0.093,0.171c-0.028,0.065-0.045,0.124-0.051,0.167
	c-0.014,0.059-0.021,0.121-0.021,0.188c0,0.125,0.024,0.246,0.071,0.359c0.047,0.112,0.115,0.214,0.204,0.303
	c0.172,0.173,0.412,0.271,0.658,0.271s0.487-0.099,0.659-0.271c0.178-0.177,0.274-0.413,0.274-0.662c0-0.069-0.007-0.132-0.02-0.188
	C52.881,41.751,52.866,41.696,52.844,41.643 M18.888,41.643c-0.022-0.055-0.05-0.109-0.081-0.158
	c-0.039-0.062-0.086-0.112-0.12-0.146c-0.05-0.05-0.097-0.088-0.146-0.12c-0.05-0.031-0.104-0.059-0.157-0.08
	c-0.054-0.023-0.107-0.041-0.175-0.056c-0.12-0.023-0.246-0.023-0.37,0.001c-0.058,0.014-0.117,0.032-0.169,0.055
	c-0.054,0.021-0.104,0.049-0.156,0.081c-0.048,0.031-0.094,0.07-0.147,0.119c-0.173,0.173-0.271,0.413-0.271,0.659
	c0,0.247,0.095,0.481,0.271,0.662c0.175,0.175,0.41,0.271,0.662,0.271c0.25,0,0.484-0.097,0.659-0.271
	c0.177-0.177,0.275-0.413,0.275-0.662c0-0.058-0.008-0.115-0.021-0.19C18.928,41.75,18.91,41.696,18.888,41.643"/>
</svg>
