<?xml version="1.0" encoding="utf-8"?>
<!-- Generator: Adobe Illustrator 16.0.0, SVG Export Plug-In . SVG Version: 6.00 Build 0)  -->
<!DOCTYPE svg PUBLIC "-//W3C//DTD SVG 1.1//EN" "http://www.w3.org/Graphics/SVG/1.1/DTD/svg11.dtd">
<svg version="1.1" id="圖層_1" xmlns="http://www.w3.org/2000/svg" xmlns:xlink="http://www.w3.org/1999/xlink" x="0px" y="0px"
	 width="70px" height="70px" viewBox="0 0 70 70" enable-background="new 0 0 70 70" xml:space="preserve">
<path fill-rule="evenodd" clip-rule="evenodd" fill="#78C7F0" d="M70,35C70,15.683,54.317,0,35,0C15.683,0,0,15.683,0,35
	c0,19.317,15.683,35,35,35C54.317,70,70,54.317,70,35z"/>
<path fill="#FFFFFF" d="M50.085,24.376l-0.008-0.006c-0.668-0.607-6.054-1.014-7.08-1.014c-0.147,0-0.266,0.004-0.351,0.012
	c-0.291,0.024-0.544,0.034-0.805,0.045c-0.391,0.016-0.795,0.033-1.359,0.093v0l-0.148,0.015c-0.033,0.004-0.067,0.01-0.104,0.019
	c-0.664,0.093-1.446,0.401-2.137,0.839c-0.501-0.277-1.644-0.815-3.28-1.033c-1.032-0.137-1.973-0.198-2.802-0.251
	c-0.53-0.034-1.031-0.066-1.506-0.115c-0.405-0.043-0.821-0.065-1.234-0.065c-3.562,0-6.576,1.531-8.27,4.2
	c-0.486,0.766-1.966,3.098-1.966,7.291c0,1.241,0.119,2.546,0.234,3.808c0.128,1.41,0.262,2.866,0.219,4.183
	c-0.844,1.866-0.559,2.989-0.167,3.605c0.447,0.701,1.252,1.087,2.27,1.087c0.254,0,0.521-0.024,0.792-0.071
	c1.462-0.249,1.998-1.031,2.564-1.858c0.246-0.359,0.501-0.731,0.847-1.093l0.105-0.106c0.159-0.165,0.286-0.298,1.387-0.9
	c0.376,0.155,0.892,0.303,1.496,0.303c0.711,0,1.397-0.203,2.041-0.604c1.414-0.881,1.595-2.104,1.563-2.807
	c0.23-0.084,0.48-0.17,0.741-0.261c1.389-0.481,2.943-1.02,3.708-1.873c0.065,0.051,0.139,0.11,0.204,0.163
	c0.408,0.332,1.027,0.834,1.866,1.169c0.16,0.065,0.328,0.099,0.498,0.099c0.524,0,0.976-0.323,1.072-0.768
	c0.036-0.17,0.095-0.751-0.71-1.118c-0.146-0.067-0.289-0.145-0.426-0.232c2.435-0.499,5.341-2.356,8.867-5.661
	c0.854-0.792,2.842-2.854,2.853-4.889C51.063,25.732,50.736,24.992,50.085,24.376 M46.877,30.04l-0.002,0.002
	c-3.411,3.197-6.09,4.905-8.185,5.222c-0.144,0.021-0.284,0.027-0.39,0.015c-0.225-0.026-0.44,0.002-0.643,0.075
	c-0.236-0.521-0.543-1.599-0.543-3.671c0-1.978,0.277-3.455,0.85-4.517c0.215-0.403,0.649-0.817,1.21-1.16
	c0.531-0.303,1.046-0.508,1.377-0.546c0.594-0.068,1.006-0.083,1.37-0.097c0.285-0.012,0.563-0.023,0.899-0.051
	c0.041-0.004,0.094-0.004,0.157-0.004c1.518,0.018,4.99,0.405,5.915,0.648c0.151,0.188,0.216,0.378,0.215,0.614
	C49.105,27.424,48.229,28.787,46.877,30.04 M29.792,41.102c-0.437,0.272-0.848,0.33-1.192,0.297
	c0.125-0.274,0.293-0.522,0.578-0.686c0.501-0.288,0.897-0.27,1.205-0.256C30.289,40.699,30.091,40.915,29.792,41.102 M30.72,38.576
	c-0.025-0.004-0.05-0.008-0.078-0.01c-0.042-0.002-0.086-0.009-0.13-0.015c-0.102-0.013-0.208-0.026-0.317-0.026
	c-0.513,0-1.203,0.059-1.988,0.509c-1.048,0.6-1.415,1.602-1.619,2.16c-0.021,0.019-0.042,0.038-0.062,0.058
	c-1.391,0.755-1.691,0.995-2.028,1.35l-0.099,0.102c-0.47,0.49-0.784,0.949-1.061,1.354c-0.486,0.711-0.633,0.925-1.288,1.037
	c-0.518,0.091-0.976,0.024-1.083-0.144c-0.144-0.226-0.101-0.892,0.333-1.824c0.081-0.173,0.127-0.365,0.135-0.558
	c0.057-1.467-0.084-3.023-0.223-4.554c-0.111-1.212-0.225-2.465-0.225-3.611c0-3.627,1.251-5.598,1.663-6.245
	c1.887-2.974,5.26-3.295,6.623-3.295c0.339,0,0.687,0.019,1.033,0.055c0.501,0.052,1.026,0.086,1.582,0.122
	c0.793,0.051,1.692,0.108,2.67,0.238c0.833,0.111,1.5,0.322,1.976,0.516c-0.11,0.149-0.206,0.298-0.286,0.446
	c-0.728,1.353-1.081,3.133-1.081,5.441c0,1.854,0.221,3.315,0.657,4.354c-0.025,0.018-0.049,0.035-0.073,0.055l-0.001,0.001
	c-0.138,0.11-0.253,0.243-0.344,0.395c-0.069,0.117-0.486,0.564-2.917,1.407c-0.19,0.066-0.374,0.115-0.548,0.163
	C31.521,38.171,31.093,38.288,30.72,38.576"/>
<path fill="#FFFFFF" d="M28.111,26.906c-0.326,0.021-4.151,0.416-4.566,6.64c-0.034,0.536,0.374,1.001,0.896,1.036l0.078,0.003
	c0.511,0,0.938-0.4,0.973-0.911c0.305-4.579,2.65-4.814,2.745-4.822c0.533-0.032,0.944-0.492,0.915-1.024
	c-0.014-0.273-0.14-0.53-0.345-0.705C28.612,26.958,28.363,26.881,28.111,26.906"/>
</svg>
