<?xml version="1.0" encoding="utf-8"?>
<!-- Generator: Adobe Illustrator 16.0.0, SVG Export Plug-In . SVG Version: 6.00 Build 0)  -->
<!DOCTYPE svg PUBLIC "-//W3C//DTD SVG 1.1//EN" "http://www.w3.org/Graphics/SVG/1.1/DTD/svg11.dtd">
<svg version="1.1" id="圖層_1" xmlns="http://www.w3.org/2000/svg" xmlns:xlink="http://www.w3.org/1999/xlink" x="0px" y="0px"
	 width="70px" height="70px" viewBox="0 0 70 70" enable-background="new 0 0 70 70" xml:space="preserve">
<path fill-rule="evenodd" clip-rule="evenodd" fill="#78C7F0" d="M70,35C70,15.683,54.317,0,35,0C15.683,0,0,15.683,0,35
	c0,19.317,15.683,35,35,35C54.317,70,70,54.317,70,35z"/>
<rect x="38.608" y="27.008" fill-rule="evenodd" clip-rule="evenodd" fill="#FFFFFF" width="1.443" height="1.443"/>
<path fill="#FFFFFF" d="M41.135,44.329v1.443h7.577v-3.248c0-4.855-7.003-9.764-8.66-10.857v-1.412h-1.443v15.156h-2.887V32.06
	h-1.443v13.352h-2.887v-2.165h-1.443v1.083h-7.217v-1.805c0-3.563,4.954-7.493,7.217-9.103v8.021h1.443v-16.96h7.217v1.083h1.443
	v-3.969c0-2.425-1.791-9.743-5.052-9.743c-3.26,0-5.052,7.318-5.052,9.743v10.072c-1.658,1.094-8.661,6.002-8.661,10.857v3.248
	h8.661v1.082h0.709l-2.165,5.052h13.014l-2.165-5.052h0.71V33.413c2.71,1.92,7.217,5.806,7.217,9.112v1.805H41.135z M35,13.295
	c1.54,0,3.149,4.413,3.526,7.217h-7.052C31.851,17.708,33.46,13.295,35,13.295 M31.392,21.956h7.217v1.083h-7.217V21.956z
	 M39.318,50.463h-8.637l1.547-3.608h5.543L39.318,50.463z"/>
<rect x="34.278" y="53.351" fill-rule="evenodd" clip-rule="evenodd" fill="#FFFFFF" width="1.443" height="4.69"/>
<rect x="30.67" y="53.35" transform="matrix(0.9664 0.257 -0.257 0.9664 15.3674 -6.1967)" fill-rule="evenodd" clip-rule="evenodd" fill="#FFFFFF" width="1.444" height="4.691"/>
<rect x="36.263" y="54.974" transform="matrix(0.2577 0.9662 -0.9662 0.2577 82.4711 4.0364)" fill-rule="evenodd" clip-rule="evenodd" fill="#FFFFFF" width="4.691" height="1.443"/>
</svg>
