<?xml version="1.0" encoding="utf-8"?>
<!-- Generator: Adobe Illustrator 16.0.0, SVG Export Plug-In . SVG Version: 6.00 Build 0)  -->
<!DOCTYPE svg PUBLIC "-//W3C//DTD SVG 1.1//EN" "http://www.w3.org/Graphics/SVG/1.1/DTD/svg11.dtd">
<svg version="1.1" id="圖層_1" xmlns="http://www.w3.org/2000/svg" xmlns:xlink="http://www.w3.org/1999/xlink" x="0px" y="0px"
	 width="70px" height="70px" viewBox="0 0 70 70" enable-background="new 0 0 70 70" xml:space="preserve">
<path fill-rule="evenodd" clip-rule="evenodd" fill="#78C7F0" d="M70,35C70,15.683,54.317,0,35,0C15.683,0,0,15.683,0,35
	c0,19.317,15.683,35,35,35C54.317,70,70,54.317,70,35z"/>
<path fill="#FFFFFF" d="M40.579,20.138c-0.291,0-0.571,0.049-0.833,0.135c-0.044-1.62-1.372-2.925-3.003-2.925
	c-0.417,0-0.815,0.086-1.177,0.241v-0.023c0-1.658-1.349-3.007-3.007-3.007c-1.216,0-2.263,0.727-2.736,1.768
	c-0.43-0.237-0.923-0.373-1.448-0.373c-1.658,0-3.007,1.349-3.007,3.007v15.097l-2.307-3.479c-0.57-0.861-1.582-1.375-2.706-1.375
	c-1.85,0-3.355,1.505-3.355,3.355c0,0.516,0.112,0.996,0.333,1.429l4.193,8.208c0.227,0.442,0.414,0.939,0.558,1.478
	c0.398,1.496,1.716,5.248,5.342,7.771c0.895,0.622,1.429,1.678,1.429,2.824v1.172h1.83v-1.172c0-1.744-0.828-3.362-2.214-4.327
	c-3.129-2.176-4.272-5.437-4.619-6.738c-0.176-0.662-0.41-1.281-0.696-1.84l-4.193-8.208c-0.088-0.171-0.133-0.372-0.133-0.596
	c0-0.841,0.685-1.525,1.526-1.525c0.501,0,0.953,0.213,1.18,0.556l3.833,5.779v2.033h1.83v-20.44c0-0.649,0.528-1.177,1.177-1.177
	c0.649,0,1.177,0.528,1.177,1.177v12.073h1.83V17.566c0-0.649,0.528-1.177,1.177-1.177c0.649,0,1.177,0.528,1.177,1.177v13.467h1.83
	V20.355c0-0.649,0.527-1.177,1.177-1.177s1.178,0.528,1.178,1.177v11.375h1.829v-8.935c0-0.457,0.372-0.829,0.829-0.829
	c0.456,0,0.828,0.372,0.828,0.829v12.224c-0.413-0.157-0.808-0.238-1.177-0.238c-1.124,0-1.887,0.511-2.501,0.923
	c-0.437,0.292-0.718,0.472-0.986,0.472c-0.242,0-0.399-0.079-0.688-0.225c-0.395-0.199-0.936-0.474-1.781-0.474
	c-1.475,0-2.629,1.628-2.629,3.705c0,1.849,1.334,3.034,2.407,3.987c0.498,0.441,1.012,0.898,1.145,1.232
	c0.138,0.346,0.269,0.916,0.409,1.522c0.518,2.249,1.228,5.33,3.927,5.33c0.185,0,0.369-0.013,0.552-0.034
	c-0.048,0.332-0.071,0.669-0.071,1.008v3.21h1.83v-3.21c0-0.674,0.127-1.333,0.377-1.958l0.399-0.998
	c0.41-1.026,0.618-2.106,0.618-3.211V22.796C43.237,21.331,42.045,20.138,40.579,20.138 M40.179,43.649
	c-0.834-0.752-1.126-1.069-1.126-1.676c0-0.438,0.202-1.177,0.959-1.177c0.116,0,0.531,0.046,1.396,0.58v3.492
	C40.992,44.384,40.566,43.998,40.179,43.649 M40.012,38.967c-1.59,0-2.789,1.292-2.789,3.007c0,1.475,0.92,2.304,1.731,3.034
	c0.768,0.693,1.633,1.475,2.169,3.002c-0.06,0.197-0.126,0.393-0.203,0.586l-0.234,0.585c-0.384,0.162-0.771,0.246-1.153,0.246
	c-1.149,0-1.651-1.771-2.145-3.912c-0.154-0.672-0.301-1.307-0.492-1.788c-0.293-0.735-0.941-1.313-1.629-1.923
	c-0.881-0.783-1.792-1.593-1.792-2.619c0-1.237,0.56-1.875,0.799-1.875c0.407,0,0.637,0.116,0.957,0.277
	c0.351,0.177,0.831,0.42,1.513,0.42c0.84,0,1.459-0.415,2.006-0.781c0.511-0.343,0.913-0.613,1.481-0.613
	c0.294,0,0.711,0.161,1.177,0.446v2.249C40.889,39.08,40.427,38.967,40.012,38.967 M47.684,42.453H53v1.83h-5.316V42.453z
	 M49.205,32.401l1.294,1.294l-3.897,3.898L45.308,36.3L49.205,32.401z M49.206,54.335l-3.898-3.898l1.294-1.293l3.897,3.897
	L49.206,54.335z"/>
</svg>
