<svg xmlns="http://www.w3.org/2000/svg" xmlns:xlink="http://www.w3.org/1999/xlink" width="68.5" height="68.5" viewBox="0 0 68.5 68.5">
<path d="M50.9,48.2L39.8,44v-4.5c0.4-0.3,0.7-0.6,1.1-0.9c2.1-2.1,3.3-5,3.3-8v-8c0-5.7-4.9-10.3-11-10.3c-6,0-11,4.6-11,10.3v8
	c0,3,1.2,5.9,3.3,8c0.3,0.3,0.7,0.6,1.1,0.9V44l-11.1,4.3c-3.2,0.5-5.6,3.3-5.6,6.6V58l0.3,0.3c6.2,5.9,14.4,9.2,23,9.2h0.1
	c8.6,0,16.8-3.3,23-9.3l0.3-0.3l0-3.1C56.5,51.5,54.1,48.7,50.9,48.2z M33.3,14.3c5,0,9,3.8,9,8.4v4.9c-4.9-0.8-7.4-2.7-8.5-3.7
	c1.5-1.6,2.1-2.9,2.1-3l-1.8-0.8c-0.1,0.2-2.5,5.2-9.9,6.7v-4.1C24.2,18.1,28.3,14.3,33.3,14.3z M24.2,30.7v-1.9
	c3.6-0.7,6.3-2.1,8.1-3.6c1.2,1.2,4.2,3.4,9.9,4.3v1.1c0,2.5-1,4.9-2.7,6.7c-1.6,1.7-3.9,2.6-6.3,2.6c-2.3,0-4.6-1-6.3-2.6
	C25.2,35.5,24.2,33.2,24.2,30.7z M33.2,41.9c1.6,0,3.2-0.4,4.6-1.1v4l-1.2,0.8l-0.2,0.2c-0.8,0.9-2,1.5-3.3,1.5h0
	c-1.2,0-2.4-0.5-3.3-1.5l-1.4-0.9v-4C30.1,41.5,31.6,41.9,33.2,41.9z M33.3,65.5L33.3,65.5c-8,0-15.6-3-21.4-8.4v-2.3
	c0-2.3,1.7-4.3,4-4.6l11-4.2l1.7,1.1c1.2,1.3,2.9,2,4.6,2h0c1.8,0,3.4-0.8,4.6-2.1l1.7-1.1l10.8,4.1l0.2,0.1
	c2.3,0.3,4.1,2.3,4.1,4.6l0,2.3C48.8,62.5,41.2,65.5,33.3,65.5z"/>
<path d="M33.3,1C14.9,1,0,15.9,0,34.3c0,5.6,1.4,11.2,4.2,16.1l1.7-1C3.3,44.8,2,39.6,2,34.3C2,17,16,3,33.3,3
c17.3,0,31.3,14,31.3,31.3c0,5.2-1.3,10.4-3.8,14.9l1.7,0.9c2.6-4.8,4-10.3,4-15.9C66.5,15.9,51.6,1,33.3,1z"/>
<ellipse transform="matrix(0.7071 -0.7071 0.7071 0.7071 -22.2044 56.4167)" fill="#CF102D" cx="57" cy="55" rx="11.5" ry="11.5"/>
<path fill="#F6F6F6" d="M57.5,62h-0.8v-1.7c-1.1,0-2-0.2-2.7-0.7v-1.3c0.3,0.3,0.7,0.5,1.2,0.7c0.6,0.2,1,0.3,1.5,0.3v-4.1
	c-1.2-0.6-1.9-1.1-2.3-1.6c-0.3-0.5-0.5-1-0.5-1.7c0-0.7,0.3-1.4,0.8-2c0.5-0.6,1.2-0.9,2-1v-1.4h0.8v1.4c1,0,1.8,0.2,2.1,0.4v1.3
	c-0.5-0.4-1.2-0.6-2.1-0.7v4.3c0.9,0.4,1.6,0.9,2.1,1.4c0.5,0.5,0.8,1.1,0.8,1.8c0,0.8-0.3,1.4-0.8,1.9c-0.5,0.5-1.2,0.8-2.1,1V62z
		M56.7,50c-1,0.2-1.5,0.8-1.5,1.7c0,0.4,0.1,0.7,0.2,1s0.6,0.6,1.2,1V50z M57.5,59.2c1-0.2,1.6-0.8,1.6-1.7c0-0.7-0.5-1.4-1.6-2
	V59.2z"/>
</svg>
