<svg xmlns="http://www.w3.org/2000/svg" xmlns:xlink="http://www.w3.org/1999/xlink" width="100" height="52.1" viewBox="0 0 100 52.1">
<rect x="0.1" y="12.1" fill="#CF102D" width="24.1" height="1.9"/>
<rect x="6.4" y="19.5" fill="#CF102D" width="13" height="1.9"/>
<rect x="21.2" y="19.5" fill="#CF102D" width="3.7" height="1.9"/>
<rect x="50.4" y="43.2" width="21.5" height="2.1"/>
<path d="M99.9,24l-11.1-3.3L83,7.9H68.6V0H23v5.6H11.9v1.9h13V6.7h0.2V2.1h41.4v5.8h-2.7V10h17.8l1.6,3.4H72.7v9.2h15.2l9.9,2.9
	v17.6h-6.6c-0.5-3.8-3.8-6.8-7.8-6.8c-4.3,0-7.9,3.5-7.9,7.9c0,4.3,3.5,7.9,7.9,7.9c4,0,7.3-3,7.8-6.8h8.7V24z M74.8,15.5h9.3l2.3,5
	H74.8V15.5z M83.4,50c-3.2,0-5.8-2.6-5.8-5.8c0-3.2,2.6-5.8,5.8-5.8c3.2,0,5.8,2.6,5.8,5.8C89.2,47.4,86.6,50,83.4,50z"/>
<path d="M39,36.4c-4,0-7.3,3-7.8,6.8h-6.1v-9.5h43.5v-20h-2.1v17.9H24.9v-2.9h0v-1.9h-7.4v1.9H23v2.9v1.7v11.9h8.2
	c0.5,3.8,3.8,6.8,7.8,6.8c4.3,0,7.9-3.5,7.9-7.9C46.9,39.9,43.3,36.4,39,36.4z M39,50c-3.2,0-5.8-2.6-5.8-5.8c0-3.2,2.6-5.8,5.8-5.8
	s5.8,2.6,5.8,5.8C44.8,47.4,42.2,50,39,50z"/>
<rect x="6.4" y="5.6" width="3.7" height="1.9"/>
</svg>
