<svg xmlns="http://www.w3.org/2000/svg" xmlns:xlink="http://www.w3.org/1999/xlink" width="20" height="20" viewBox="0 0 20 20" stroke="currentColor" fill="none" stroke-linecap="round" stroke-linejoin="round" stroke-miterlimit="10">
<path d="M9.7,2.8c3.1,0,5.2,2.5,5.2,5.2l0.2,3.8c0,2.4,1.8,4,2.2,4.4H1.7c0.3-0.4,2.1-2,2.2-4.4L4,8
	c0-2.7,2.1-5.2,5.2-5.2H9.7z"/>
<path d="M11.9,16.2C12,16.5,12,16.8,12,17c0,1.4-1.1,2.5-2.5,2.5S7,18.4,7,17c0-0.3,0.1-0.6,0.1-0.8"/>
<path d="M8.4,2.8V1.7c0-0.6,0.5-1.1,1.1-1.1c0.6,0,1.1,0.5,1.1,1.1v1.2"/>
</svg>
