<svg xmlns="http://www.w3.org/2000/svg" xmlns:xlink="http://www.w3.org/1999/xlink" width="30" height="30" viewBox="0 0 30 30" fill="currentColor">
<path d="M26.8,18.1V9h-5.2c-0.1,0-0.2-0.1-0.2-0.2c0-0.1,0-0.2,0.1-0.3c0.6-0.4,1.1-0.7,1.4-1c0.9-0.9,1.4-1.9,1.6-3
	c0.1-0.6,0-1.1-0.1-1.6c-0.2-0.5-0.4-1-0.8-1.4C23,1.1,22.6,0.9,22,0.7c-0.5-0.1-1-0.2-1.6-0.1c-1.1,0.1-2.2,0.7-3,1.6
	c-0.5,0.5-1.1,1.5-1.8,2.9c-0.1,0.3-0.3,0.6-0.4,1c0,0.1-0.1,0.2-0.2,0.2c-0.1,0-0.2-0.1-0.2-0.2c-0.1-0.4-0.3-0.7-0.4-1
	c-0.7-1.4-1.2-2.4-1.8-2.9c-0.9-0.9-1.9-1.4-3-1.6C9,0.5,8.5,0.6,8,0.7C7.4,0.9,7,1.1,6.6,1.5C6.2,1.9,5.9,2.4,5.8,2.9
	c-0.1,0.5-0.2,1-0.1,1.6C5.7,5,5.9,5.6,6.2,6.1c0.3,0.5,0.6,1,1,1.4c0.3,0.3,0.8,0.6,1.4,1c0.1,0.1,0.1,0.2,0.1,0.3S8.6,9,8.5,9H3.3
	v9.1h2.2c0.1,0,0.3,0.1,0.3,0.3v11.1h18.6V18.4c0-0.1,0.1-0.3,0.3-0.3H26.8z M8.4,6.3c-0.6-0.6-1-1.3-1.1-2c0-0.4-0.1-1.1,0.4-1.6
	C8.3,2.2,9,2.2,9.3,2.3c0.7,0.1,1.5,0.5,2,1.1c0.3,0.3,0.7,0.9,1.4,2.4c0.4,0.8,0.8,1.7,1.2,2.8c0,0.1,0,0.2-0.1,0.3
	c0,0-0.1,0.1-0.2,0.1c0,0-0.1,0-0.1,0c-1.1-0.4-2-0.8-2.8-1.2C9.3,7,8.7,6.6,8.4,6.3z M14.2,27.5c0,0.1-0.1,0.3-0.3,0.3H7.6
	c-0.1,0-0.3-0.1-0.3-0.3v-9.1c0-0.1,0.1-0.3,0.3-0.3h6.3c0.1,0,0.3,0.1,0.3,0.3V27.5z M14.2,16.2c0,0.1-0.1,0.3-0.3,0.3H5.2
	c-0.1,0-0.3-0.1-0.3-0.3v-5.2c0-0.1,0.1-0.3,0.3-0.3h8.7c0.1,0,0.3,0.1,0.3,0.3V16.2z M16,8.6c0.3-0.7,0.7-1.8,1.2-2.8
	c0.7-1.5,1.2-2.2,1.4-2.4c0.6-0.6,1.3-1,2-1.1c0.1,0,0.2,0,0.3,0c0.5,0,0.9,0.2,1.2,0.5c0.5,0.5,0.5,1.2,0.4,1.6
	c-0.1,0.7-0.5,1.5-1.1,2c-0.3,0.3-0.9,0.7-2.4,1.4c-0.8,0.4-1.7,0.8-2.8,1.2c0,0-0.1,0-0.1,0c-0.1,0-0.1,0-0.2-0.1
	C16,8.8,16,8.7,16,8.6z M22.6,27.5c0,0.1-0.1,0.3-0.3,0.3h-6.3c-0.1,0-0.3-0.1-0.3-0.3v-9.1c0-0.1,0.1-0.3,0.3-0.3h6.3
	c0.1,0,0.3,0.1,0.3,0.3V27.5z M16.1,16.4c-0.1,0-0.3-0.1-0.3-0.3v-5.2c0-0.1,0.1-0.3,0.3-0.3h8.7c0.1,0,0.3,0.1,0.3,0.3v5.2
	c0,0.1-0.1,0.3-0.3,0.3H16.1z"/>
</svg>
