<svg xmlns="http://www.w3.org/2000/svg" xmlns:xlink="http://www.w3.org/1999/xlink" width="44.1" height="35.8" viewBox="0 0 44.1 35.8" fill="currentColor">
<path d="M27.9,12.4c1.4-2.6,3.3-6.7,5.8-12.4h6.8L36,16.3c5.4,0.9,8.1,4,8.1,9.1c0,2.7-0.9,5.1-2.8,7.2c-1.9,2.1-4.2,3.1-7.1,3.1
	c-2.7,0-5-1-7-3.1c-1.9-2.1-2.9-4.5-2.9-7.2C24.3,21.6,25.5,17.3,27.9,12.4z M3.6,12.4C4.9,9.8,6.8,5.7,9.4,0h6.8l-4.6,16.3
	c5.4,0.9,8.1,4,8.1,9.1c0,2.7-0.9,5.1-2.8,7.2c-1.9,2.1-4.2,3.1-7.1,3.1c-2.7,0-5-1-7-3.1C1,30.5,0,28.1,0,25.4
	C0,21.6,1.2,17.3,3.6,12.4z"/>
</svg>
