<svg xmlns="http://www.w3.org/2000/svg" xmlns:xlink="http://www.w3.org/1999/xlink" width="30" height="30" viewBox="0 0 30 30" fill="currentColor">
<path d="M26.7,6.8c0-0.1,0-0.1,0-0.2c0,0,0,0,0-0.1c0-0.1-0.1-0.2-0.1-0.2l-5.8-5.8c-0.1-0.1-0.1-0.1-0.2-0.1c0,0,0,0-0.1,0
	c-0.1,0-0.1,0-0.2,0c0,0,0,0,0,0H6.3c-1.7,0-3.1,1.4-3.1,3.1v23.2c0,1.7,1.4,3.1,3.1,3.1h17.4c1.7,0,3.1-1.4,3.1-3.1L26.7,6.8
	C26.8,6.9,26.7,6.9,26.7,6.8z M24.2,6.1H21V2.9L24.2,6.1z M25.3,26.6c0,0.9-0.7,1.6-1.6,1.6H6.3c-0.9,0-1.6-0.7-1.6-1.6V3.4
	c0-0.9,0.7-1.6,1.6-1.6h13.1v5c0,0.4,0.3,0.8,0.8,0.8h5V26.6z"/>
<path d="M8.7,13.9c0,0.4,0.3,0.8,0.8,0.8H21c0.4,0,0.8-0.3,0.8-0.8c0-0.2-0.1-0.4-0.2-0.6c-0.1-0.1-0.3-0.3-0.5-0.3l-11.6,0
	C9,13.1,8.7,13.5,8.7,13.9z"/>
<path d="M15.2,18.9C15.2,18.9,15.2,18.9,15.2,18.9l-5.8,0c-0.4,0-0.7,0.3-0.7,0.8s0.3,0.8,0.8,0.8h5.8c0.4,0,0.8-0.3,0.8-0.8
	c0-0.2-0.1-0.4-0.2-0.6C15.6,19,15.4,18.9,15.2,18.9z"/>
</svg>
