<svg xmlns="http://www.w3.org/2000/svg" xmlns:xlink="http://www.w3.org/1999/xlink" width="30" height="30" viewBox="0 0 30 30" fill="currentColor">
<path d="M1.3,15C1.8,16.1,6.4,25.3,15,25.3c8.6,0,13.2-9.2,13.7-10.3C28.2,13.9,23.6,4.8,15,4.8C6.4,4.8,1.8,14,1.3,15z M26.6,14.9
	c0,0.1,0,0.2,0,0.2c-1.4,2.5-5.3,8.3-11.6,8.3c-6.3,0-10.2-5.8-11.6-8.3c0-0.1,0-0.2,0-0.2C4.8,12.4,8.7,6.6,15,6.6
	C21.3,6.6,25.2,12.4,26.6,14.9z"/>
<path d="M15,10.6c-2.4,0-4.4,2-4.4,4.4c0,2.4,2,4.4,4.4,4.4c2.4,0,4.4-2,4.4-4.4C19.4,12.6,17.4,10.6,15,10.6z M15,17.6
	c-1.4,0-2.6-1.2-2.6-2.6c0-1.4,1.2-2.6,2.6-2.6c1.4,0,2.6,1.2,2.6,2.6C17.6,16.4,16.4,17.6,15,17.6z"/>
</svg>
