<svg xmlns="http://www.w3.org/2000/svg" xmlns:xlink="http://www.w3.org/1999/xlink" viewBox="0 0 20 20" width="20" height="20" fill="currentColor">
<path d="M11.8,13.6c-1.7,0-3.3-0.8-4.3-2.2c-0.3-0.4-0.2-1,0.2-1.3c0.4-0.3,1-0.2,1.3,0.2c0.7,0.9,1.8,1.5,2.9,1.5
	c1,0,1.9-0.4,2.6-1.1L17.1,8c0.6-0.7,1-1.6,1-2.5c0-2-1.6-3.6-3.6-3.6c-0.9,0-1.8,0.4-2.5,1l-1.5,1.5c-0.4,0.4-0.9,0.4-1.3,0
	c-0.4-0.4-0.4-0.9,0-1.3l1.6-1.5c1-1,2.4-1.5,3.8-1.5c3,0,5.4,2.4,5.4,5.4c0,1.4-0.5,2.8-1.5,3.8L15.7,12
	C14.6,13,13.2,13.6,11.8,13.6z"/>
<path d="M5.5,19.9c-3,0-5.4-2.4-5.4-5.4c0-1.4,0.5-2.8,1.5-3.8L4.3,8c1-1,2.4-1.6,3.8-1.6c1.7,0,3.3,0.8,4.3,2.2
	c0.3,0.4,0.2,1-0.2,1.3c-0.4,0.3-1,0.2-1.3-0.2c-0.7-0.9-1.8-1.5-2.9-1.5c-1,0-1.9,0.4-2.6,1.1L2.9,12c-0.6,0.7-1,1.6-1,2.5
	c0,2,1.6,3.6,3.6,3.6c0.9,0,1.8-0.4,2.5-1l1.5-1.5c0.4-0.4,0.9-0.4,1.3,0c0.4,0.4,0.4,0.9,0,1.3l-1.5,1.5
	C8.3,19.4,6.9,19.9,5.5,19.9z"/>
</svg>
