<svg xmlns="http://www.w3.org/2000/svg" xmlns:xlink="http://www.w3.org/1999/xlink" width="26" height="26" viewBox="0 0 26 26" fill="currentColor">
<path d="M13,24c-6.4,0-10.2-1.4-10.4-2c0-3.5,4.7-6.3,10.4-6.3c5.7,0,10.4,2.8,10.4,6.3C23.2,22.6,19.4,24,13,24z M6.9,8
	c0-3.3,2.7-6,6.1-6s6.1,2.7,6.1,6s-2.7,6-6.1,6S6.9,11.4,6.9,8z M17,14.5c2.2-1.3,3.6-3.7,3.6-6.5c0-4.2-3.4-7.6-7.6-7.6
	S5.4,3.8,5.4,8c0,2.7,1.5,5.1,3.6,6.5c-4.7,1.1-8,3.9-8,7.4c0,2.9,7.5,3.6,12,3.6s12-0.8,12-3.6C25,18.5,21.7,15.6,17,14.5z"/>
</svg>
