<svg xmlns="http://www.w3.org/2000/svg" xmlns:xlink="http://www.w3.org/1999/xlink" width="64" height="64" viewBox="0 0 64 64">
<path fill="#CF102D" d="M49.3,44.4c-4.1,0-8-3.5-10-5.6c-1-1.1-1.5-2.4-1.5-3.9V21.9c0-0.3,0.1-0.6,0.4-0.8c0.2-0.2,0.6-0.3,0.9-0.2
	c7.1,1.5,9.3-1.6,9.4-1.7c0.2-0.3,0.5-0.5,0.9-0.4c0.3,0,0.7,0.2,0.9,0.5c0.1,0.1,2.3,3.2,9.4,1.7c0.3-0.1,0.6,0,0.9,0.2
	c0.2,0.2,0.4,0.5,0.4,0.8v12.9c0,1.5-0.5,2.9-1.5,3.9C57.3,40.8,53.4,44.4,49.3,44.4z"/>
<polygon fill="#FFFFFF" points="48.4,36.6 42.9,32.1 44.2,30.5 48.3,33.9 55,27.1 56.5,28.6 "/>
<path d="M48.9,64H4.6c-0.8,0-1.4-0.6-1.4-1.4V1.4C3.2,0.6,3.8,0,4.6,0h44.3c0.8,0,1.4,0.6,1.4,1.4v13.8h-2.1V2.1h-43v59.9h43V47.8
	h2.1v14.7C50.3,63.4,49.7,64,48.9,64z"/>
<path d="M20.6,17.4h-8.7V8.7h8.7V17.4z M14,15.3h4.6v-4.6H14V15.3z"/>
<path d="M20.6,29.9h-8.7v-8.7h8.7V29.9z M14,27.8h4.6v-4.6H14V27.8z"/>
<path d="M20.6,42.3h-8.7v-8.7h8.7V42.3z M14,40.3h4.6v-4.6H14V40.3z"/>
<path d="M20.6,55.3h-8.7v-8.7h8.7V55.3z M14,53.2h4.6v-4.6H14V53.2z"/>
<rect x="24" y="11.2" width="17.9" height="2.1"/>
<rect x="24" y="15.3" width="15" height="2.1"/>
<rect x="24" y="23.7" width="10.5" height="2.1"/>
<rect x="24" y="27.8" width="7.6" height="2.1"/>
<rect x="24" y="36.1" width="10.5" height="2.1"/>
<rect x="24" y="40.3" width="7.6" height="2.1"/>
<rect x="24" y="49.1" width="17.9" height="2.1"/>
<rect x="24" y="53.2" width="15" height="2.1"/>
</svg>
