<svg xmlns="http://www.w3.org/2000/svg" xmlns:xlink="http://www.w3.org/1999/xlink" width="40" height="40" viewBox="0 0 40 40" fill="currentColor">
<g transform="matrix(0.459031,0,0,0.459031,-615.555,-176.451)">
	<g transform="matrix(1,0,0,1,1333.5,376.816)">
		<path d="M78.8,9.6H23.3c-7.7,0-13.9,6.3-13.9,13.9V60c0,7.7,6.3,13.9,13.9,13.9h12.9v18.7l23.2-18.7h19.5
			c7.7,0,13.9-6.3,13.9-13.9V23.5C92.7,15.9,86.5,9.6,78.8,9.6z M84,60c0,2.8-2.4,5.2-5.2,5.2H56.3l-2.4,1.9l-9,7.3v-9.2H23.3
			c-2.8,0-5.2-2.4-5.2-5.2V23.5c0-2.8,2.4-5.2,5.2-5.2h55.5c2.8,0,5.2,2.4,5.2,5.2L84,60L84,60z"/>
	</g>
	<g transform="matrix(1,0,0,1,1333.5,376.816)">
		<circle class="st0" cx="33.2" cy="41.8" r="5.1"/>
	</g>
	<g transform="matrix(1,0,0,1,1333.5,376.816)">
		<circle class="st0" cx="51.1" cy="41.8" r="5.1"/>
	</g>
	<g transform="matrix(1,0,0,1,1333.5,376.816)">
		<circle class="st0" cx="68.9" cy="41.8" r="5.1"/>
	</g>
</g>
</svg>
