<svg xmlns="http://www.w3.org/2000/svg" xmlns:xlink="http://www.w3.org/1999/xlink" width="26" height="26" viewBox="0 0 26 26" fill="currentColor">
<path d="M26,13c0-7-5.6-12.7-12.6-13c-0.1,0-0.1,0-0.2,0c0,0,0,0-0.1,0c-0.1,0-0.1,0-0.2,0C5.9,0,0,5.9,0,13c0,7.1,5.9,13,13,13
	c0.1,0,0.1,0,0.2,0c0,0,0,0,0.1,0c0.1,0,0.1,0,0.2,0C20.4,25.7,26,20,26,13z M13.3,24.4c0,0-0.1,0-0.1,0c-0.5-0.1-1.4-0.9-2.1-2.8
	c-0.4-1.1-0.8-2.4-1-3.8h6.3c-0.2,1.4-0.6,2.7-1,3.8C14.7,23.4,13.9,24.3,13.3,24.4z M9.9,16.3c-0.1-1.1-0.2-2.2-0.2-3.3
	c0-1.1,0.1-2.2,0.2-3.3h6.7c0.1,1.1,0.2,2.2,0.2,3.3c0,1.1-0.1,2.2-0.2,3.3H9.9z M13.2,1.6c0,0,0.1,0,0.1,0c0.5,0.1,1.3,1,2.1,2.8
	c0.4,1.1,0.8,2.4,1,3.8h-6.3c0.2-1.4,0.6-2.7,1-3.8C11.8,2.5,12.7,1.6,13.2,1.6z M18.2,9.7h5.8c0.3,1,0.5,2.1,0.5,3.3
	c0,1.1-0.2,2.2-0.5,3.3h-5.8c0.1-1,0.2-2.1,0.2-3.3C18.4,11.9,18.3,10.8,18.2,9.7z M23.3,8.2H18c-0.4-2.6-1.1-4.7-2-6.2
	C19.2,2.9,21.9,5.1,23.3,8.2z M10.7,1.8C9.7,3.3,9,5.5,8.5,8.2H2.7C4.2,5,7.1,2.6,10.7,1.8z M2.1,9.7h6.3c-0.1,1-0.2,2.1-0.2,3.3
	c0,1.1,0.1,2.2,0.2,3.3H2.1c-0.3-1-0.5-2.1-0.5-3.3C1.6,11.9,1.7,10.8,2.1,9.7z M2.7,17.8h5.9c0.4,2.7,1.2,4.9,2.1,6.3
	C7.1,23.4,4.2,21,2.7,17.8z M15.9,24c0.9-1.5,1.6-3.6,2-6.2h5.3C21.9,20.9,19.2,23.1,15.9,24z"/>
</svg>
