<svg xmlns="http://www.w3.org/2000/svg" xmlns:xlink="http://www.w3.org/1999/xlink" width="28" height="28" viewBox="0 0 28 28">
<path fill="#333333" d="M9.2,5.5C9,5.8,8.7,6,8.4,6.3C7.3,7.4,6.6,8.6,6.3,10c0,0,0,0.1,0,0.1l0,0c-0.1,0.5-0.2,1.1-0.2,1.7v7.2
	c0,0.2-0.1,0.3-0.2,0.4c-0.1,0.1-0.2,0.2-0.4,0.2c-0.1,0-0.2,0-0.3,0c-0.1,0-0.2,0-0.2,0c-1.4,0-2.6-0.5-3.5-1.5
	c-1-1-1.5-2.1-1.5-3.5v-1.2C0,12.2,0.5,11,1.5,10C2.2,9.3,3,8.9,4,8.7c0.5-1.6,1.4-3,2.6-4.3c2-2.1,4.5-3.1,7.4-3.1
	c2.9,0,5.4,1,7.4,3.1c1.3,1.3,2.1,2.7,2.6,4.3c0.9,0.2,1.8,0.6,2.5,1.4c1,1,1.5,2.1,1.5,3.5v1.2c0,1.4-0.5,2.6-1.5,3.5
	c-1,1-2.1,1.5-3.5,1.5h-0.1c-0.4,1.4-1.2,2.6-2.3,3.7l0,0c-0.3,0.3-0.6,0.6-0.9,0.8l0,0c-1,0.8-2.2,1.4-3.5,1.7
	c-0.1,0.1-0.1,0.2-0.2,0.3c-0.3,0.3-0.6,0.4-1,0.4H13c-0.4,0-0.7-0.1-1-0.4c-0.3-0.3-0.4-0.6-0.4-1v0c0-0.4,0.1-0.7,0.4-1
	c0.3-0.3,0.6-0.4,1-0.4H15c0.4,0,0.7,0.1,1,0.4c0,0,0.1,0.1,0.1,0.1c1-0.3,1.9-0.7,2.7-1.3c0.3-0.2,0.5-0.5,0.8-0.7
	c1.1-1.1,1.8-2.4,2.1-3.8c0,0,0-0.1,0-0.1l0,0c0.1-0.5,0.1-0.9,0.2-1.4v-5.2c0-0.6-0.1-1.1-0.2-1.7l0,0c0,0,0-0.1,0-0.1
	c-0.3-1.4-1-2.7-2.1-3.8C19.3,6,19,5.8,18.8,5.5c-1.4-1.1-3-1.6-4.8-1.6C12.2,3.9,10.6,4.5,9.2,5.5z"/>
<path fill="#CE0F2E" d="M19.8,14.1c0-2-1.7-3.7-3.7-3.7h-3.7c-2,0-3.7,1.7-3.7,3.7c0,2,1.7,3.7,3.7,3.7h3.7
	C18.1,17.8,19.8,16.2,19.8,14.1z"/>
<path fill="#FFFFFF" d="M11.6,14.2c0-0.1,0.1-0.3,0.2-0.4c0.1-0.1,0.2-0.1,0.4-0.1c0.1,0,0.3,0,0.4,0.1c0.1,0.1,0.2,0.2,0.2,0.4
	c0,0.1-0.1,0.3-0.2,0.4c-0.1,0.1-0.2,0.1-0.4,0.1c-0.1,0-0.3,0-0.4-0.1C11.7,14.4,11.6,14.3,11.6,14.2z"/>
<path fill="#FFFFFF" d="M13.7,14.2c0-0.1,0.1-0.3,0.2-0.4c0.1-0.1,0.2-0.1,0.4-0.1c0.1,0,0.3,0,0.4,0.1c0.1,0.1,0.2,0.2,0.2,0.4
	c0,0.1-0.1,0.3-0.2,0.4c-0.1,0.1-0.2,0.1-0.4,0.1c-0.1,0-0.3,0-0.4-0.1C13.8,14.4,13.7,14.3,13.7,14.2z"/>
<path fill="#FFFFFF" d="M15.8,14.2c0-0.1,0.1-0.3,0.2-0.4c0.1-0.1,0.2-0.1,0.4-0.1c0.1,0,0.3,0,0.4,0.1c0.1,0.1,0.2,0.2,0.2,0.4
	c0,0.1-0.1,0.3-0.2,0.4c-0.1,0.1-0.2,0.1-0.4,0.1c-0.1,0-0.3,0-0.4-0.1C15.9,14.4,15.8,14.3,15.8,14.2z"/>
</svg>
