<svg xmlns="http://www.w3.org/2000/svg" xmlns:xlink="http://www.w3.org/1999/xlink" width="30" height="30" viewBox="0 0 30 30" fill="transparent" stroke="currentColor">
<path class="st0" d="M29,12c0,0.3-0.2,0.6-0.5,0.8l-6.1,5.9l1.5,8.4c0,0.1,0,0.2,0,0.4c0,0.3-0.1,0.5-0.2,0.6
	c-0.1,0.2-0.3,0.3-0.5,0.3c-0.2,0-0.5-0.1-0.7-0.2l-7.7-4l-7.6,4c-0.3,0.1-0.5,0.2-0.7,0.2c-0.3,0-0.4-0.1-0.6-0.3
	C6.1,27.9,6,27.7,6,27.5c0-0.1,0-0.2,0-0.4l1.5-8.4l-6.2-6C1.2,12.5,1,12.2,1,12c0-0.4,0.3-0.7,0.9-0.7l8.5-1.2l3.8-7.7
	c0.2-0.5,0.5-0.7,0.8-0.7s0.7,0.2,0.8,0.7l3.8,7.7l8.3,1.2C28.7,11.4,29,11.6,29,12z"/>
</svg>
