<svg xmlns="http://www.w3.org/2000/svg" xmlns:xlink="http://www.w3.org/1999/xlink" width="44.1" height="35.8" viewBox="0 0 44.1 35.8" fill="currentColor">
<path d="M16.2,23.4c-1.4,2.6-3.3,6.7-5.8,12.4H3.6l4.6-16.3c-5.4-0.9-8.1-4-8.1-9.1c0-2.7,0.9-5.1,2.8-7.2C4.6,1,7,0,9.9,0
	c2.7,0,5,1,7,3.1c1.9,2.1,2.9,4.5,2.9,7.2C19.8,14.2,18.6,18.5,16.2,23.4z M40.6,23.4c-1.4,2.6-3.3,6.7-5.8,12.4h-6.8l4.6-16.3
	c-5.4-0.9-8.1-4-8.1-9.1c0-2.7,0.9-5.1,2.8-7.2C29,1,31.4,0,34.2,0c2.7,0,5,1,7,3.1c1.9,2.1,2.9,4.5,2.9,7.2
	C44.1,14.2,42.9,18.5,40.6,23.4z"/>
</svg>
