<svg xmlns="http://www.w3.org/2000/svg" xmlns:xlink="http://www.w3.org/1999/xlink" width="26" height="26" viewBox="0 0 26 26" fill="currentColor">
<circle cx="9.7" cy="22.7" r="2.2"/>
<circle cx="21.7" cy="22.7" r="2.2"/>
<path d="M25.6,6.9c-0.1-0.2-0.4-0.3-0.6-0.3H7.1l-1-4.9C6,1.4,5.7,1.1,5.4,1.1H1c-0.4,0-0.8,0.3-0.8,0.8S0.6,2.6,1,2.6h3.7l1,4.8
	c0,0,0,0.1,0,0.1l1.8,9.1C7.8,18,9,19,10.4,19c0,0,0,0,0.1,0h10.6c0,0,0,0,0.1,0c1.4,0,2.6-1,2.9-2.4l1.7-9.2
	C25.8,7.3,25.7,7,25.6,6.9z M22.5,16.3c-0.1,0.7-0.7,1.1-1.4,1.2H10.5c0,0,0,0,0,0c-0.7,0-1.3-0.5-1.4-1.2L7.4,8.1h16.7L22.5,16.3z
	"/>
</svg>
