<?xml version="1.0" encoding="utf-8"?>
<!-- Generator: Adobe Illustrator 16.0.0, SVG Export Plug-In . SVG Version: 6.00 Build 0)  -->
<!DOCTYPE svg PUBLIC "-//W3C//DTD SVG 1.1//EN" "http://www.w3.org/Graphics/SVG/1.1/DTD/svg11.dtd">
<svg version="1.1" id="圖層_1" xmlns="http://www.w3.org/2000/svg" xmlns:xlink="http://www.w3.org/1999/xlink" x="0px" y="0px"
	 width="11px" height="18px" viewBox="0 0 11 18" enable-background="new 0 0 11 18" xml:space="preserve">
<path fill="#888888" d="M5.439,9l5.271,5.674c0.386,0.416,0.386,1.091,0,1.507l-1.4,1.507c-0.386,0.416-1.014,0.416-1.399,0
	l-5.434-5.85c-0.281,0.027-0.572-0.076-0.787-0.309l-1.399-1.507C0.033,9.746-0.054,9.354,0.033,9c-0.087-0.354,0-0.746,0.258-1.023
	L1.69,6.471c0.215-0.231,0.506-0.336,0.787-0.309l5.434-5.852c0.386-0.414,1.014-0.414,1.399,0l1.4,1.508
	c0.386,0.416,0.386,1.092,0,1.508L5.439,9z"/>
</svg>
