<?xml version="1.0" encoding="utf-8"?>
<!-- Generator: Adobe Illustrator 16.0.0, SVG Export Plug-In . SVG Version: 6.00 Build 0)  -->
<!DOCTYPE svg PUBLIC "-//W3C//DTD SVG 1.1//EN" "http://www.w3.org/Graphics/SVG/1.1/DTD/svg11.dtd">
<svg version="1.1" id="圖層_1" xmlns="http://www.w3.org/2000/svg" xmlns:xlink="http://www.w3.org/1999/xlink" x="0px" y="0px"
	 width="11px" height="18px" viewBox="0 0 11 18" enable-background="new 0 0 11 18" xml:space="preserve">
<path fill="#888888" d="M5.561,9L0.29,3.326c-0.386-0.416-0.386-1.091,0-1.507l1.4-1.507c0.386-0.416,1.014-0.416,1.4,0l5.434,5.85
	C8.805,6.135,9.096,6.238,9.311,6.47l1.399,1.507C10.968,8.254,11.055,8.646,10.968,9c0.087,0.354,0,0.746-0.258,1.023l-1.399,1.506
	c-0.215,0.231-0.506,0.336-0.787,0.309L3.09,17.689c-0.386,0.414-1.014,0.414-1.4,0l-1.4-1.508c-0.386-0.416-0.386-1.092,0-1.508
	L5.561,9z"/>
</svg>
