<?xml version="1.0" encoding="utf-8"?>
<!-- Generator: Adobe Illustrator 16.0.0, SVG Export Plug-In . SVG Version: 6.00 Build 0)  -->
<!DOCTYPE svg PUBLIC "-//W3C//DTD SVG 1.1//EN" "http://www.w3.org/Graphics/SVG/1.1/DTD/svg11.dtd">
<svg version="1.1" id="圖層_1" xmlns="http://www.w3.org/2000/svg" xmlns:xlink="http://www.w3.org/1999/xlink" x="0px" y="0px"
	 width="17px" height="18px" viewBox="0 -1.399 17 18" enable-background="new 0 -1.399 17 18" xml:space="preserve">
<path fill="#808080" d="M16.709,12.122c0.389,0.348,0.389,0.908,0,1.256l-1.648,1.473c-0.367,0.328-0.918,0.438-1.404,0.278
	C7.358,13.063,2.392,8.622,0.081,2.99c-0.178-0.437-0.055-0.927,0.313-1.255l1.647-1.476c0.388-0.346,1.015-0.346,1.403,0
	l2.782,2.488c0.388,0.346,0.388,0.908,0,1.254L4.824,5.255C4.475,5.566,4.407,6.054,4.669,6.428c1.3,1.846,3.057,3.406,5.142,4.592
	c0.418,0.237,0.967,0.179,1.315-0.135l1.397-1.252c0.388-0.346,1.016-0.346,1.402,0L16.709,12.122"/>
</svg>
