<?xml version="1.0" encoding="utf-8"?>
<!-- Generator: Adobe Illustrator 16.0.0, SVG Export Plug-In . SVG Version: 6.00 Build 0)  -->
<!DOCTYPE svg PUBLIC "-//W3C//DTD SVG 1.1//EN" "http://www.w3.org/Graphics/SVG/1.1/DTD/svg11.dtd">
<svg version="1.1" id="圖層_1" xmlns="http://www.w3.org/2000/svg" xmlns:xlink="http://www.w3.org/1999/xlink" x="0px" y="0px"
	 width="18px" height="11px" viewBox="-3.5 3.5 18 11" enable-background="new -3.5 3.5 18 11" xml:space="preserve">
<path fill="#FCB32B" d="M5.5,9.061l5.674-5.271c0.416-0.386,1.092-0.386,1.508,0l1.507,1.4c0.416,0.386,0.416,1.014,0,1.4
	l-5.851,5.434c0.027,0.281-0.075,0.572-0.308,0.787L6.523,14.21c-0.277,0.258-0.669,0.345-1.023,0.258
	c-0.354,0.087-0.746,0-1.023-0.258l-1.506-1.399c-0.231-0.215-0.336-0.506-0.309-0.787l-5.852-5.434c-0.414-0.386-0.414-1.014,0-1.4
	l1.508-1.4c0.416-0.386,1.092-0.386,1.508,0L5.5,9.061z"/>
</svg>
