<?xml version="1.0" encoding="utf-8"?>
<!-- Generator: Adobe Illustrator 16.0.0, SVG Export Plug-In . SVG Version: 6.00 Build 0)  -->
<!DOCTYPE svg PUBLIC "-//W3C//DTD SVG 1.1//EN" "http://www.w3.org/Graphics/SVG/1.1/DTD/svg11.dtd">
<svg version="1.1" id="圖層_1" xmlns="http://www.w3.org/2000/svg" xmlns:xlink="http://www.w3.org/1999/xlink" x="0px" y="0px"
	 width="38px" height="30px" viewBox="0 0 38 30" enable-background="new 0 0 38 30" xml:space="preserve">
<path fill="#423C3C" d="M37.688,3.654v22.693c0,1.834-1.501,3.336-3.337,3.336H3.649c-1.835,0-3.337-1.502-3.337-3.336V3.654
	c0-1.835,1.501-3.337,3.337-3.337h30.701C36.187,0.317,37.688,1.818,37.688,3.654z M35.019,4.426c0-0.521,0.125-1.439-0.668-1.439
	H3.649c-0.354,0-0.667,0.313-0.667,0.667c0,2.378,1.189,4.442,3.066,5.923c2.794,2.19,5.589,4.401,8.363,6.612
	c1.105,0.896,3.108,2.815,4.568,2.815h0.042c1.46,0,3.462-1.919,4.568-2.815c2.773-2.211,5.568-4.422,8.363-6.612
	C33.308,8.514,35.019,6.198,35.019,4.426z M35.019,26.347V10.328c-0.438,0.5-0.918,0.959-1.439,1.376
	c-2.982,2.294-5.986,4.63-8.885,7.05c-1.564,1.313-3.504,2.92-5.673,2.92h-0.042c-2.169,0-4.109-1.607-5.673-2.92
	c-2.899-2.42-5.902-4.756-8.885-7.05C3.9,11.288,3.42,10.829,2.982,10.328v16.019c0,0.354,0.313,0.666,0.667,0.666h30.701
	C34.705,27.013,35.019,26.7,35.019,26.347z"/>
</svg>
