<?xml version="1.0" encoding="utf-8"?>
<!-- Generator: Adobe Illustrator 16.0.0, SVG Export Plug-In . SVG Version: 6.00 Build 0)  -->
<!DOCTYPE svg PUBLIC "-//W3C//DTD SVG 1.1//EN" "http://www.w3.org/Graphics/SVG/1.1/DTD/svg11.dtd">
<svg version="1.1" id="圖層_1" xmlns="http://www.w3.org/2000/svg" xmlns:xlink="http://www.w3.org/1999/xlink" x="0px" y="0px"
	 width="11px" height="18px" viewBox="0 0 11 18" enable-background="new 0 0 11 18" xml:space="preserve">
<path fill-rule="evenodd" clip-rule="evenodd" fill="#FCB32B" d="M5.561,9L0.29,3.326c-0.386-0.416-0.386-1.091,0-1.507l1.4-1.507
	c0.386-0.416,1.014-0.416,1.4,0l5.434,5.85C8.805,6.135,9.095,6.238,9.311,6.47l1.399,1.507C10.968,8.254,11.054,8.646,10.968,9
	c0.086,0.354,0,0.746-0.258,1.023L9.311,11.53c-0.216,0.231-0.506,0.335-0.787,0.308l-5.434,5.851c-0.386,0.415-1.014,0.415-1.4,0
	l-1.4-1.507c-0.386-0.416-0.386-1.092,0-1.508L5.561,9z"/>
</svg>
