<?xml version="1.0" encoding="utf-8"?>
<!-- Generator: Adobe Illustrator 16.0.0, SVG Export Plug-In . SVG Version: 6.00 Build 0)  -->
<!DOCTYPE svg PUBLIC "-//W3C//DTD SVG 1.1//EN" "http://www.w3.org/Graphics/SVG/1.1/DTD/svg11.dtd">
<svg version="1.1" id="圖層_1" xmlns="http://www.w3.org/2000/svg" xmlns:xlink="http://www.w3.org/1999/xlink" x="0px" y="0px"
	 width="17px" height="17px" viewBox="0 0 17 17" enable-background="new 0 0 17 17" xml:space="preserve">
<path fill-rule="evenodd" clip-rule="evenodd" fill="#FFFFFF" d="M8.538,5.727l5.321-5.321c0.393-0.393,1.03-0.393,1.423,0
	l1.423,1.423c0.394,0.393,0.394,1.03,0,1.423L11.458,8.5l5.247,5.248c0.394,0.393,0.394,1.03,0,1.423l-1.423,1.423
	c-0.393,0.394-1.03,0.394-1.423,0l-5.321-5.32c-0.013-0.003-0.025-0.006-0.038-0.01c-0.013,0.004-0.025,0.007-0.038,0.01
	l-5.321,5.32c-0.393,0.394-1.031,0.394-1.423,0L0.294,15.17c-0.393-0.393-0.393-1.03,0-1.423L5.542,8.5L0.294,3.252
	c-0.393-0.393-0.393-1.031,0-1.423l1.423-1.423c0.393-0.393,1.031-0.393,1.423,0l5.321,5.321C8.475,5.73,8.487,5.733,8.5,5.736
	C8.513,5.733,8.525,5.73,8.538,5.727z"/>
</svg>
