<?xml version="1.0" encoding="utf-8"?>
<!-- Generator: Adobe Illustrator 16.0.0, SVG Export Plug-In . SVG Version: 6.00 Build 0)  -->
<!DOCTYPE svg PUBLIC "-//W3C//DTD SVG 1.1//EN" "http://www.w3.org/Graphics/SVG/1.1/DTD/svg11.dtd">
<svg version="1.1" id="圖層_1" xmlns="http://www.w3.org/2000/svg" xmlns:xlink="http://www.w3.org/1999/xlink" x="0px" y="0px"
	 width="16px" height="16px" viewBox="376 376 16 16" enable-background="new 376 376 16 16" xml:space="preserve">
<title></title>
<g id="icomoon-ignore">
</g>
<path fill="#78C7F0" d="M390.536,387.643v-10.179h-10.179v10.179H390.536z M390.536,376c0.386,0,0.727,0.147,1.021,0.443
	c0.295,0.295,0.442,0.635,0.442,1.021v10.179c0,0.386-0.147,0.721-0.442,1.005c-0.295,0.283-0.636,0.425-1.021,0.425h-10.179
	c-0.386,0-0.721-0.142-1.004-0.425c-0.283-0.284-0.425-0.619-0.425-1.005v-10.179c0-0.386,0.142-0.726,0.425-1.021
	c0.284-0.295,0.619-0.443,1.004-0.443H390.536z M377.464,378.928v11.608h11.608V392h-11.608c-0.386,0-0.726-0.147-1.021-0.442
	c-0.295-0.295-0.443-0.636-0.443-1.021v-11.608H377.464z"/>
</svg>
