<?xml version="1.0" encoding="utf-8"?>
<!-- Generator: Adobe Illustrator 16.0.0, SVG Export Plug-In . SVG Version: 6.00 Build 0)  -->
<!DOCTYPE svg PUBLIC "-//W3C//DTD SVG 1.1//EN" "http://www.w3.org/Graphics/SVG/1.1/DTD/svg11.dtd">
<svg version="1.1" id="圖層_1" xmlns="http://www.w3.org/2000/svg" xmlns:xlink="http://www.w3.org/1999/xlink" x="0px" y="0px"
	 width="11px" height="8px" viewBox="0 0 11 8" enable-background="new 0 0 11 8" xml:space="preserve">
<path fill-rule="evenodd" clip-rule="evenodd" fill="#423C3C" d="M8.968,0.572c0.254-0.254,0.667-0.254,0.921,0l0.921,0.921
	c0.254,0.254,0.254,0.667,0,0.921L7.234,5.989C7.25,6.175,7.188,6.365,7.047,6.507L6.125,7.428C5.956,7.598,5.716,7.653,5.5,7.598
	c-0.216,0.056-0.456,0-0.625-0.17L3.954,6.507C3.813,6.365,3.749,6.175,3.766,5.989L0.19,2.414c-0.254-0.254-0.254-0.667,0-0.921
	l0.921-0.921c0.254-0.254,0.667-0.254,0.921,0L5.5,4.04L8.968,0.572z"/>
</svg>
