<?xml version="1.0" encoding="utf-8"?>
<!-- Generator: Adobe Illustrator 16.0.0, SVG Export Plug-In . SVG Version: 6.00 Build 0)  -->
<!DOCTYPE svg PUBLIC "-//W3C//DTD SVG 1.1//EN" "http://www.w3.org/Graphics/SVG/1.1/DTD/svg11.dtd">
<svg version="1.1" id="圖層_1" xmlns="http://www.w3.org/2000/svg" xmlns:xlink="http://www.w3.org/1999/xlink" x="0px" y="0px"
	 width="18.264px" height="18px" viewBox="0 -2.5 18.264 18" enable-background="new 0 -2.5 18.264 18" xml:space="preserve">
<path fill="#808080" d="M0,0.788v11.425l5.707-5.72L0,0.788z M18.263,12.213V0.788l-5.706,5.72L18.263,12.213z M9.333,8.08
	c0.055,0,0.09-0.016,0.124-0.048L17.485,0H1.179l8.028,8.032C9.241,8.064,9.278,8.08,9.333,8.08 M10.241,8.805
	C9.999,9.057,9.684,9.188,9.332,9.188c-0.354,0-0.664-0.129-0.92-0.385L6.896,7.295L1.181,13h16.295l-5.708-5.706L10.241,8.805z"/>
</svg>
