<?xml version="1.0" encoding="utf-8"?>
<!-- Generator: Adobe Illustrator 16.0.0, SVG Export Plug-In . SVG Version: 6.00 Build 0)  -->
<!DOCTYPE svg PUBLIC "-//W3C//DTD SVG 1.1//EN" "http://www.w3.org/Graphics/SVG/1.1/DTD/svg11.dtd">
<svg version="1.1" id="圖層_1" xmlns="http://www.w3.org/2000/svg" xmlns:xlink="http://www.w3.org/1999/xlink" x="0px" y="0px"
	 width="15px" height="18px" viewBox="0 0 15 18" enable-background="new 0 0 15 18" xml:space="preserve">
<path fill="#808080" d="M7.5,0C5.496,0,3.614,0.697,2.197,1.965C0.78,3.23,0,4.916,0,6.706c0,1.583,0.625,3.115,1.757,4.313
	L7.5,17.947l5.846-7.039C14.428,9.707,15,8.253,15,6.706c0-1.792-0.78-3.476-2.197-4.741C11.388,0.697,9.504,0,7.5,0 M7.5,9.625
	c-1.998,0-3.623-1.453-3.623-3.239c0-1.787,1.625-3.239,3.623-3.239c1.998,0,3.623,1.452,3.623,3.239
	C11.123,8.172,9.498,9.625,7.5,9.625"/>
</svg>
