<?xml version="1.0" encoding="utf-8"?>
<!-- Generator: Adobe Illustrator 16.0.0, SVG Export Plug-In . SVG Version: 6.00 Build 0)  -->
<!DOCTYPE svg PUBLIC "-//W3C//DTD SVG 1.1//EN" "http://www.w3.org/Graphics/SVG/1.1/DTD/svg11.dtd">
<svg version="1.1" id="圖層_1" xmlns="http://www.w3.org/2000/svg" xmlns:xlink="http://www.w3.org/1999/xlink" x="0px" y="0px"
	 width="5.264px" height="8px" viewBox="0 0 5.264 8" enable-background="new 0 0 5.264 8" xml:space="preserve">
<path fill-rule="evenodd" clip-rule="evenodd" fill="#FFFFFF" d="M2.661,4L0.139,1.478c-0.185-0.185-0.185-0.485,0-0.669l0.67-0.67
	c0.185-0.185,0.485-0.185,0.669,0l2.6,2.6c0.135-0.012,0.273,0.034,0.377,0.137l0.67,0.67C5.248,3.668,5.289,3.843,5.248,4
	c0.041,0.157,0,0.332-0.123,0.455l-0.67,0.67C4.352,5.228,4.213,5.273,4.078,5.262l-2.6,2.6c-0.185,0.185-0.485,0.185-0.669,0
	l-0.67-0.67c-0.185-0.185-0.185-0.484,0-0.67L2.661,4z"/>
</svg>
