<?xml version="1.0" encoding="utf-8"?>
<!-- Generator: Adobe Illustrator 16.0.0, SVG Export Plug-In . SVG Version: 6.00 Build 0)  -->
<!DOCTYPE svg PUBLIC "-//W3C//DTD SVG 1.1//EN" "http://www.w3.org/Graphics/SVG/1.1/DTD/svg11.dtd">
<svg version="1.1" id="圖層_1" xmlns="http://www.w3.org/2000/svg" xmlns:xlink="http://www.w3.org/1999/xlink" x="0px" y="0px"
	 width="9.079px" height="20.5px" viewBox="0 0 9.079 20.5" enable-background="new 0 0 9.079 20.5" xml:space="preserve">
<path fill="#0990D0" d="M8.933,4.393L4.894,0.354c0,0,0,0-0.001-0.001L4.54,0L4.187,0.353c0,0,0,0-0.001,0.001l-4.04,4.039
	c-0.195,0.195-0.195,0.512,0,0.707C0.244,5.197,0.372,5.246,0.5,5.246S0.756,5.197,0.854,5.1L4.04,1.914V20
	c0,0.277,0.224,0.5,0.5,0.5s0.5-0.223,0.5-0.5V1.914L8.226,5.1c0.195,0.195,0.512,0.195,0.707,0S9.128,4.588,8.933,4.393z"/>
</svg>
