<?xml version="1.0" encoding="utf-8"?>
<!-- Generator: Adobe Illustrator 16.0.0, SVG Export Plug-In . SVG Version: 6.00 Build 0)  -->
<!DOCTYPE svg PUBLIC "-//W3C//DTD SVG 1.1//EN" "http://www.w3.org/Graphics/SVG/1.1/DTD/svg11.dtd">
<svg version="1.1" id="圖層_1" xmlns="http://www.w3.org/2000/svg" xmlns:xlink="http://www.w3.org/1999/xlink" x="0px" y="0px"
	 width="16px" height="16px" viewBox="0 0 16 16" enable-background="new 0 0 16 16" xml:space="preserve">
<path fill="#098FD0" d="M3.446,10l3.478-5.389v-3.61h2.152v3.61L12.555,10H3.446z M15.467,12.57L10.15,4.335V1h0.538
	c0.284,0.009,0.526-0.216,0.538-0.5c-0.012-0.284-0.254-0.509-0.538-0.5H5.311C5.026-0.009,4.785,0.216,4.772,0.5
	C4.785,0.784,5.026,1.009,5.311,1h0.538v3.335L0.533,12.57C-0.684,14.461,0.256,16,2.622,16h10.756
	C15.744,16,16.684,14.461,15.467,12.57z"/>
</svg>
