<?xml version="1.0" encoding="utf-8"?>
<!-- Generator: Adobe Illustrator 16.0.0, SVG Export Plug-In . SVG Version: 6.00 Build 0)  -->
<!DOCTYPE svg PUBLIC "-//W3C//DTD SVG 1.1//EN" "http://www.w3.org/Graphics/SVG/1.1/DTD/svg11.dtd">
<svg version="1.1" id="圖層_1" xmlns="http://www.w3.org/2000/svg" xmlns:xlink="http://www.w3.org/1999/xlink" x="0px" y="0px"
	 width="16px" height="16px" viewBox="0 0 16 16" enable-background="new 0 0 16 16" xml:space="preserve">
<path fill="#098FD0" d="M8,3.54h8V16H0V0h8V3.54z M1.578,14.206h1.615v-1.75H1.578V14.206z M1.578,10.665h1.615V8.874H1.578V10.665z
	 M1.578,7.124h1.615V5.332H1.578V7.124z M1.578,3.54h1.615V1.79H1.578V3.54z M4.807,14.206h1.578v-1.75H4.807V14.206z M4.807,10.665
	h1.578V8.874H4.807V10.665z M4.807,7.124h1.578V5.332H4.807V7.124z M4.807,3.54h1.578V1.79H4.807V3.54z M14.423,14.209V5.332H8
	v1.792h1.616v1.75H8v1.792h1.616v1.792H8v1.75L14.423,14.209z M12.808,7.125v1.75h-1.614v-1.75H12.808z M12.808,10.666v1.792h-1.614
	v-1.792H12.808z"/>
</svg>
