<?xml version="1.0" encoding="utf-8"?>
<!-- Generator: Adobe Illustrator 16.0.0, SVG Export Plug-In . SVG Version: 6.00 Build 0)  -->
<!DOCTYPE svg PUBLIC "-//W3C//DTD SVG 1.1//EN" "http://www.w3.org/Graphics/SVG/1.1/DTD/svg11.dtd">
<svg version="1.1" id="圖層_1" xmlns="http://www.w3.org/2000/svg" xmlns:xlink="http://www.w3.org/1999/xlink" x="0px" y="0px"
	 width="18px" height="18px" viewBox="0 0 18 18" enable-background="new 0 0 18 18" xml:space="preserve">
<path fill="#FFFFFF" d="M16.838,1.72l-0.563-0.563c-0.742-0.743-1.75-1.161-2.801-1.161c-1.05,0-2.059,0.418-2.801,1.161
	L6.194,5.644l6.163,6.163l4.481-4.481C17.581,6.583,18,5.574,18,4.522C18,3.472,17.581,2.462,16.838,1.72z M6.754,16.286
	c-0.594,0.594-1.401,0.928-2.241,0.928c-0.84,0-1.647-0.334-2.241-0.928L1.71,15.723c-1.229-1.229-1.229-3.252,0-4.482l3.923-3.918
	l5.042,5.04L6.754,16.286z M1.152,10.683c-1.536,1.537-1.536,4.065,0,5.604l0.563,0.563c1.537,1.535,4.065,1.535,5.602,0
	l4.479-4.486L5.633,6.201L1.152,10.683z"/>
</svg>
