<?xml version="1.0" encoding="utf-8"?>
<!-- Generator: Adobe Illustrator 16.0.0, SVG Export Plug-In . SVG Version: 6.00 Build 0)  -->
<!DOCTYPE svg PUBLIC "-//W3C//DTD SVG 1.1//EN" "http://www.w3.org/Graphics/SVG/1.1/DTD/svg11.dtd">
<svg version="1.1" id="圖層_1" xmlns="http://www.w3.org/2000/svg" xmlns:xlink="http://www.w3.org/1999/xlink" x="0px" y="0px"
	 width="16px" height="16px" viewBox="0 0 16 16" enable-background="new 0 0 16 16" xml:space="preserve">
<path fill="#4C4C4C" d="M14.92,16H1.454c-0.272,0-0.483-0.234-0.45-0.499c0.136-1.066,0.443-3.47,0.443-3.47
	c0.061-0.314,0.251-0.573,0.509-0.69l1.831-0.83c0.001,0.904,0.181,2.122,0.943,3.181c-0.047,0.086-0.075,0.186-0.075,0.291
	c0,0.337,0.273,0.61,0.61,0.61s0.609-0.273,0.609-0.61c0-0.335-0.272-0.608-0.609-0.608c-0.05,0-0.099,0.006-0.146,0.019
	c-0.738-1.033-0.86-2.265-0.834-3.108l2.318-1.052l-0.659,1.619l0.949,1.764l0.791-2.387H7.681L7.34,9.901
	C7.194,9.763,7.293,9.521,7.497,9.521h1.411c0.198,0,0.3,0.232,0.165,0.374l-0.318,0.334l0.729,2.387l0.896-1.764L9.773,9.232
	l2.671,1.213l-0.497,1.428c-0.553-0.111-1.128,0.15-1.4,0.664l-0.6,1.133c-0.068,0.128-0.078,0.278-0.027,0.415
	c0.052,0.135,0.158,0.243,0.293,0.295l0.27,0.105c0.126,0.048,0.268-0.015,0.316-0.141s-0.014-0.268-0.14-0.316l-0.271-0.104
	c-0.002-0.001-0.007-0.003-0.01-0.011s0-0.013,0.001-0.015l0.6-1.132c0.191-0.362,0.624-0.523,1.006-0.376s0.593,0.559,0.491,0.955
	l-0.319,1.241c0,0.002-0.002,0.008-0.009,0.012c-0.007,0.003-0.013,0.001-0.015,0l-0.366-0.142c-0.127-0.049-0.269,0.014-0.317,0.14
	c-0.048,0.126,0.015,0.268,0.14,0.317l0.368,0.142c0.059,0.022,0.12,0.034,0.183,0.034c0.079,0,0.16-0.02,0.232-0.057
	c0.128-0.066,0.223-0.186,0.259-0.325l0.318-1.241c0.141-0.548-0.091-1.112-0.55-1.41l0.491-1.409l1.526,0.693
	c0.257,0.117,0.447,0.376,0.509,0.69c0,0,0.307,2.403,0.441,3.47C15.403,15.766,15.191,16,14.92,16 M11.548,3.92
	c0.203,0.314,0.25,0.847,0.123,1.425c-0.122,0.558-0.42,1.138-0.826,1.31c-0.361,1.095-1.229,2.199-2.66,2.213H8.178
	C6.748,8.854,5.881,7.75,5.519,6.655c-0.407-0.172-0.705-0.752-0.826-1.31C4.567,4.767,4.613,4.234,4.816,3.92
	c0.038-0.059,0.079-0.105,0.122-0.145C4.924,3.627,4.917,3.484,4.915,3.348c-0.003-0.125-0.001-0.245,0.005-0.36
	C4.924,2.871,4.935,2.76,4.949,2.655C5.01,2.193,5.152,1.832,5.375,1.571C5.472,1.46,5.581,1.369,5.698,1.297
	c0.118-0.208,0.306-0.479,0.593-0.718c0.513-0.44,1.167-0.635,1.891-0.564c0.724-0.071,1.378,0.124,1.894,0.565
	c0.282,0.24,0.472,0.509,0.59,0.717c0.117,0.072,0.225,0.163,0.32,0.271c0.277,0.327,0.432,0.809,0.461,1.441
	c0.002,0.033,0.003,0.066,0.003,0.101c0.004,0.162,0,0.334-0.012,0.516c-0.003,0.05-0.007,0.099-0.011,0.149
	C11.469,3.814,11.51,3.861,11.548,3.92 M11.008,5.2c0.039-0.178,0.054-0.336,0.054-0.468c0-0.24-0.047-0.397-0.086-0.447
	c-0.16-0.045-0.265-0.2-0.246-0.366c0.019-0.155,0.03-0.305,0.036-0.447C8.508,3.672,6.338,2.438,6.338,2.438
	C5.746,2.694,5.624,3.823,5.624,3.824v0.003c0.003,0.03,0.007,0.061,0.01,0.092c0.02,0.167-0.086,0.321-0.246,0.366
	C5.329,4.363,5.247,4.701,5.355,5.2c0.113,0.515,0.338,0.79,0.421,0.827h0.01c0.152,0,0.286,0.101,0.327,0.249
	C6.236,6.721,6.75,8.174,8.182,8.189c1.433-0.016,1.946-1.468,2.069-1.914c0.042-0.151,0.182-0.252,0.336-0.249
	C10.671,5.99,10.896,5.715,11.008,5.2"/>
</svg>
