<?xml version="1.0" encoding="utf-8"?>
<!-- Generator: Adobe Illustrator 16.0.0, SVG Export Plug-In . SVG Version: 6.00 Build 0)  -->
<!DOCTYPE svg PUBLIC "-//W3C//DTD SVG 1.1//EN" "http://www.w3.org/Graphics/SVG/1.1/DTD/svg11.dtd">
<svg version="1.1" id="圖層_1" xmlns="http://www.w3.org/2000/svg" xmlns:xlink="http://www.w3.org/1999/xlink" x="0px" y="0px"
	 width="18px" height="18px" viewBox="-1 -1 18 18" enable-background="new -1 -1 18 18" xml:space="preserve">
<path fill="#FFFFFF" d="M2.876,10.25l3.913-6.063V0.126h2.422v4.061l3.913,6.063H2.876z M16.4,13.142l-5.981-9.265V0.125h0.604
	c0.321,0.01,0.593-0.243,0.606-0.563C11.616-0.758,11.345-1.01,11.023-1H4.975C4.654-1.01,4.383-0.758,4.368-0.438
	c0.015,0.32,0.286,0.573,0.606,0.563H5.58v3.752l-5.98,9.265C-1.77,15.269-0.712,17,1.95,17h12.101
	C16.713,17,17.77,15.269,16.4,13.142z"/>
</svg>
