<?xml version="1.0" encoding="utf-8"?>
<!-- Generator: Adobe Illustrator 16.0.0, SVG Export Plug-In . SVG Version: 6.00 Build 0)  -->
<!DOCTYPE svg PUBLIC "-//W3C//DTD SVG 1.1//EN" "http://www.w3.org/Graphics/SVG/1.1/DTD/svg11.dtd">
<svg version="1.1" id="圖層_1" xmlns="http://www.w3.org/2000/svg" xmlns:xlink="http://www.w3.org/1999/xlink" x="0px" y="0px"
	 width="16px" height="16px" viewBox="0 0 16 16" enable-background="new 0 0 16 16" xml:space="preserve">
<path fill="#4C4C4C" d="M14.962,1.534l-0.5-0.5c-0.66-0.66-1.556-1.031-2.489-1.031s-1.829,0.371-2.489,1.031L5.504,5.021
	l5.476,5.477l3.982-3.982c0.661-0.66,1.032-1.556,1.032-2.49S15.623,2.193,14.962,1.534z M6.001,14.477
	c-0.527,0.528-1.244,0.825-1.991,0.825s-1.463-0.297-1.991-0.825l-0.5-0.5c-1.092-1.093-1.092-2.891,0-3.982l3.486-3.482
	l4.479,4.479L6.001,14.477z M1.024,9.498c-1.365,1.366-1.365,3.612,0,4.979l0.5,0.5c1.366,1.364,3.612,1.364,4.978,0l3.98-3.986
	L5.006,5.516L1.024,9.498z"/>
</svg>
