<?xml version="1.0" encoding="utf-8"?>
<!-- Generator: Adobe Illustrator 16.0.0, SVG Export Plug-In . SVG Version: 6.00 Build 0)  -->
<!DOCTYPE svg PUBLIC "-//W3C//DTD SVG 1.1//EN" "http://www.w3.org/Graphics/SVG/1.1/DTD/svg11.dtd">
<svg version="1.1" id="圖層_1" xmlns:serif="http://www.serif.com/"
	 xmlns="http://www.w3.org/2000/svg" xmlns:xlink="http://www.w3.org/1999/xlink" x="0px" y="0px" width="79px" height="95px"
	 viewBox="0 -1.5 79 95" enable-background="new 0 -1.5 79 95" xml:space="preserve">
<g transform="matrix(1,0,0,1,2.55211,0)">
	<path fill="#010101" d="M70.92,60.801H47.552V48.808c0-0.899-0.666-1.627-1.492-1.627h-9.537c-0.043,0-0.083,0.007-0.126,0.012
		c-0.042-0.005-0.083-0.012-0.128-0.012h-9.54c-0.82,0-1.492,0.728-1.492,1.627v11.993H1.873V7.972H70.92V60.801z M35.031,60.801
		h-7.777V49.38h7.777V60.801z M37.05,60.801V49.38h8.486v11.421 M71.927,5.771H0.864c-0.557,0-1.008,0.491-1.008,1.099v55.034
		c0,0.609,0.451,1.104,1.008,1.104h71.063c0.561,0,1.008-0.493,1.008-1.104V6.871C72.935,6.263,72.488,5.771,71.927,5.771
		 M37.941,18.926v-2.888h-3.088v2.888h-2.888v3.089h2.888v2.888h3.088v-2.888h2.889v-3.089H37.941z"/>
	<path fill="#70C8F4" d="M13.451,29.853H8.419v5.032h5.032V29.853z M20.523,29.853h-5.034v5.032h5.034V29.853z M13.451,22.438H8.419
		v5.035h5.032V22.438z M20.523,22.438h-5.034v5.035h5.034V22.438z M13.451,36.724H8.419v5.035h5.032V36.724z M20.523,36.724h-5.034
		v5.035h5.034V36.724z M57.662,29.853h-5.041v5.032h5.041V29.853z M64.726,29.853h-5.029v5.032h5.029V29.853z M57.662,22.438h-5.041
		v5.035h5.041V22.438z M64.726,22.438h-5.029v5.035h5.029V22.438z M57.662,36.724h-5.041v5.035h5.041V36.724z M64.726,36.724h-5.029
		v5.035h5.029V36.724z"/>
	<path fill="#423C3C" d="M16,92.623H1.409v0.838h-1.774V76.943H15.56v1.699H1.409v12.283H16V92.623z M9.781,85.412
		c0.992,1.813,2.919,2.957,5.589,3.396c-0.362,0.361-0.84,1.01-1.05,1.486c-2.499-0.553-4.271-1.678-5.455-3.414
		c-0.781,1.315-2.384,2.557-5.454,3.473c-0.229-0.383-0.726-0.992-1.106-1.316c3.624-0.953,4.902-2.289,5.302-3.625H2.419v-1.524
		h5.379v-1.906H5.108c-0.42,0.533-0.877,1.029-1.335,1.431c-0.343-0.269-1.067-0.688-1.487-0.896
		c1.201-0.896,2.231-2.309,2.784-3.738l1.679,0.42c-0.171,0.438-0.381,0.857-0.61,1.258h8.183v1.527H9.552v1.906h5.627v1.525H9.781
		V85.412z M35.319,82.818c-0.438,0.459-0.973,0.896-1.468,1.24c0.667,0.477,1.373,0.857,2.099,1.125
		c-0.324,0.305-0.802,0.859-1.012,1.26c-0.477-0.211-0.935-0.459-1.373-0.764v3.51h-3.49v2.67c0,0.783-0.152,1.164-0.726,1.393
		c-0.61,0.229-1.412,0.248-2.613,0.248c-0.095-0.438-0.323-1.049-0.553-1.43c0.82,0.018,1.622,0.018,1.87,0
		c0.248,0,0.324-0.059,0.324-0.268v-2.613h-3.435v-3.471c-0.438,0.285-0.896,0.572-1.392,0.82c-0.21-0.363-0.629-0.841-0.992-1.107
		c-0.153,2.709-0.763,5.895-2.688,8.049c-0.268-0.324-0.916-0.973-1.26-1.182c1.373-1.525,1.945-3.49,2.175-5.418
		c-0.726,0.459-1.45,0.896-2.155,1.279l-0.553-1.584c0.743-0.324,1.755-0.857,2.86-1.431c0.02-0.496,0.02-0.974,0.02-1.433v-6.102
		h6.084v-1.641h1.85v1.641h6.848v1.525H22.618v4.578c0,0.496-0.02,1.031-0.038,1.584c0.781-0.363,1.468-0.801,2.079-1.279
		c-0.4-0.361-0.896-0.742-1.316-1.049l0.935-0.801c0.42,0.287,0.936,0.668,1.374,1.012c0.381-0.383,0.726-0.783,1.012-1.184h-3.281
		v-1.373h4.12c0.248-0.496,0.438-0.992,0.571-1.488l1.659,0.211c-0.133,0.42-0.305,0.857-0.496,1.277h6.313v1.373h-3.815
		c0.344,0.459,0.744,0.916,1.202,1.315c0.478-0.399,1.011-0.896,1.316-1.258L35.319,82.818z M19.431,83.582
		c-0.133-0.992-0.591-2.557-1.125-3.758l1.297-0.533c0.572,1.183,1.087,2.707,1.222,3.662L19.431,83.582z M26.717,89.953
		c-0.706,1.238-1.907,2.459-2.995,3.242c-0.286-0.305-0.916-0.82-1.316-1.049c1.068-0.668,2.117-1.641,2.708-2.633L26.717,89.953z
		 M32.02,85.051h-5.551v0.973h5.551V85.051z M32.02,87.072h-5.551v0.992h5.551V87.072z M28.51,81.998
		c-0.4,0.668-0.896,1.336-1.469,1.945h4.481c-0.553-0.609-1.049-1.258-1.431-1.945H28.51z M32.649,89.533
		c1.012,0.877,2.25,2.078,2.823,2.918l-1.431,0.764c-0.516-0.819-1.716-2.1-2.747-2.977L32.649,89.533z M54.238,87.721
		c-0.553,1.145-1.279,2.137-2.193,3.014c0.478,0.82,1.029,1.26,1.642,1.26c0.515,0,0.705-0.42,0.801-2.022
		c0.306,0.323,0.839,0.631,1.183,0.782c-0.269,2.138-0.763,2.746-2.099,2.746c-1.104,0-1.983-0.647-2.688-1.772
		c-0.937,0.687-1.965,1.276-3.109,1.733c-0.209-0.305-0.629-0.856-0.953-1.143c1.297-0.479,2.441-1.107,3.414-1.908
		c-0.4-0.953-0.705-2.098-0.953-3.395h-2.594c-0.039,0.324-0.076,0.629-0.115,0.934c0.896,0.572,1.908,1.279,2.441,1.793
		l-0.936,1.221c-0.4-0.399-1.105-0.973-1.812-1.487c-0.399,1.604-1.146,2.978-2.5,3.969c-0.229-0.362-0.666-0.937-1.05-1.164
		c1.697-1.182,2.193-3.166,2.386-5.264h-1.276v-0.955l-0.648,0.916c-0.229-0.592-0.707-1.621-1.164-2.519v9.002h-1.602v-8.029
		c-0.517,1.756-1.146,3.414-1.832,4.502c-0.189-0.459-0.572-1.125-0.82-1.488c1.031-1.582,2.004-4.406,2.5-6.828h-2.1v-1.621h2.252
		v-4.024h1.602v4.024h1.889v1.621h-1.889v0.82c0.477,0.688,1.584,2.498,1.965,3.166h5.074c-0.402-2.785-0.555-6.084-0.572-9.613
		h1.563c-0.018,1.107,0,2.193,0.021,3.242l0.61-0.838c0.134,0.094,0.248,0.189,0.382,0.285c0.399-0.781,0.819-1.813,1.067-2.555
		l1.373,0.514c-0.535,0.936-1.106,2.004-1.563,2.766c0.248,0.248,0.495,0.477,0.668,0.707c0.42-0.727,0.801-1.432,1.088-2.041
		l1.258,0.59c-0.78,1.297-1.754,2.824-2.633,4.006l1.623-0.112c-0.136-0.324-0.269-0.648-0.42-0.937l1.028-0.42
		c0.496,0.896,0.974,2.041,1.088,2.785l-1.088,0.496c-0.039-0.229-0.114-0.496-0.19-0.764c-0.666,0.076-1.313,0.135-1.927,0.211
		c0.63,0.361,1.394,0.896,1.773,1.297l-0.4,0.381h1.525v1.412h-4.5c0.172,0.838,0.361,1.602,0.59,2.25
		c0.556-0.648,0.992-1.354,1.336-2.098L54.238,87.721z M44.244,83.01c0.4-0.516,0.801-1.125,1.221-1.773
		c-0.479-0.592-1.278-1.336-1.965-1.869l0.705-0.973c0.133,0.094,0.248,0.189,0.381,0.305c0.4-0.82,0.804-1.832,1.068-2.574
		l1.355,0.533c-0.516,0.934-1.068,2.002-1.545,2.766c0.248,0.229,0.477,0.478,0.666,0.688c0.42-0.727,0.803-1.432,1.088-2.041
		l1.26,0.591c-0.82,1.373-1.852,2.995-2.785,4.254l1.469-0.097c-0.115-0.36-0.268-0.725-0.4-1.049l1.029-0.36
		c0.457,0.877,0.877,2.059,0.974,2.782l-1.104,0.459c-0.021-0.19-0.076-0.399-0.136-0.631c-1.315,0.153-2.556,0.287-3.683,0.383
		l-0.246-1.354L44.244,83.01z M50.861,82.762c0.344-0.439,0.707-0.973,1.068-1.525c-0.457-0.553-1.182-1.26-1.85-1.793
		c0.057,2.289,0.229,4.367,0.496,6.16h2.153c-0.381-0.324-0.856-0.688-1.276-0.934l0.801-0.744l-1.717,0.188l-0.267-1.315
		L50.861,82.762z M60.242,82.971v10.51h-1.754V76.734h7.076v6.236H60.242z M60.242,78.012v1.24h3.662v-1.24H60.242z M63.904,81.732
		v-1.316h-3.662v1.316H63.904z M74.261,91.479c0,0.896-0.152,1.393-0.725,1.678c-0.517,0.287-1.354,0.305-2.537,0.305
		c-0.058-0.381-0.229-0.989-0.4-1.448c-0.152,0.211-0.268,0.399-0.361,0.571c-1.736-0.477-3.033-1.393-3.893-2.649
		c-0.609,0.991-1.811,1.944-4.082,2.67c-0.209-0.344-0.686-0.877-1.049-1.183c2.44-0.647,3.473-1.623,3.893-2.557h-3.645v-1.297
		h3.91v-1.277h-3.604v-1.297h1.793c-0.172-0.459-0.459-0.992-0.744-1.412l1.354-0.42c0.42,0.572,0.82,1.297,0.973,1.832h2.27
		c0.287-0.572,0.629-1.315,0.801-1.852l1.604,0.477c-0.287,0.479-0.61,0.955-0.896,1.375h1.981v1.297h-3.946v1.277h4.215v1.297
		h-3.91c0.781,1.201,2.137,2.061,3.949,2.422c-0.154,0.135-0.308,0.324-0.459,0.517c0.629,0.02,1.24,0.02,1.449,0.02
		c0.229,0,0.307-0.096,0.307-0.344v-8.469h-5.477v-6.275h7.229V91.479L74.261,91.479z M68.73,78.012v1.24h3.777v-1.24H68.73z
		 M72.507,81.75v-1.334H68.73v1.334H72.507z"/>
</g>
</svg>
