<?xml version="1.0" encoding="utf-8"?>
<!-- Generator: Adobe Illustrator 16.0.0, SVG Export Plug-In . SVG Version: 6.00 Build 0)  -->
<!DOCTYPE svg PUBLIC "-//W3C//DTD SVG 1.1//EN" "http://www.w3.org/Graphics/SVG/1.1/DTD/svg11.dtd">
<svg version="1.1" id="圖層_1" xmlns:serif="http://www.serif.com/"
	 xmlns="http://www.w3.org/2000/svg" xmlns:xlink="http://www.w3.org/1999/xlink" x="0px" y="0px" width="100px" height="100px"
	 viewBox="-41.5 -41.5 100 100" enable-background="new -41.5 -41.5 100 100" xml:space="preserve">
<g transform="matrix(1,0,0,1,-1250.21,-275.162)">
	<g transform="matrix(1,0,0,1,1321.25,275.161)">
		<path fill="#231F20" d="M-42.148,25.045c-7.143,0-13.629-2.27-18.756-6.567c-0.006-0.005-0.037-0.034-0.043-0.092
			c-0.006-0.081,0.046-0.19,0.144-0.311c0.107-0.127,0.228-0.242,0.343-0.357c0.093-0.093,0.185-0.179,0.271-0.271
			c0.241-0.236,0.48-0.49,0.714-0.749c0.058-0.063,0.127-0.093,0.219-0.093c0.098,0,0.196,0.041,0.23,0.069
			c4.632,3.785,10.461,5.789,16.878,5.789c15.161,0,27.027-13.401,27.027-30.51c0-17.108-11.866-30.513-27.027-30.513
			c-7.615,0-14.458,2.854-19.288,8.044l-0.176,0.17l-0.038,0.058c-2.903,2.863-4.516,6.653-4.516,10.651
			c0,2.679,0.683,4.974,2.206,7.434c0.061,0.098,0.185,0.346,0.035,0.564c-0.332,0.475-0.726,0.968-1.169,1.515l-0.081,0.104
			c-0.038,0.052-0.075,0.101-0.115,0.144c-0.066,0.063-0.104,0.078-0.121,0.078c-0.052,0-0.161-0.155-0.196-0.205
			c-2.203-3.257-3.14-6.138-3.14-9.634c0-4.663,1.864-9.087,5.251-12.457l0.061-0.063c5.331-5.795,12.895-8.986,21.287-8.986
			c16.602,0,29.608,14.54,29.608,33.096C-12.54,10.512-25.547,25.045-42.148,25.045"/>
	</g>
	<g transform="matrix(1,0,0,1,1298.03,287.264)">
		<path fill="#0990D0" d="M-41.981,0.925c-0.452,0-0.881-0.241-1.112-0.628c-1.599-2.687-2.439-5.749-2.439-8.856
			c0-5.002,1.993-8.456,5.207-12.408c2.932-3.6,4.634-6.518,4.634-10.772c0-2.646-0.72-5.253-2.079-7.537
			c-0.363-0.611-0.161-1.409,0.449-1.771c0.201-0.118,0.429-0.182,0.659-0.182c0.452,0,0.879,0.242,1.115,0.634
			c1.596,2.685,2.437,5.749,2.437,8.856c0,4.997-1.993,8.451-5.208,12.405c-2.935,3.603-4.634,6.521-4.634,10.774
			c0,2.642,0.72,5.248,2.08,7.535c0.175,0.296,0.228,0.642,0.141,0.981c-0.086,0.334-0.297,0.611-0.593,0.784
			C-41.523,0.868-41.751,0.925-41.981,0.925"/>
	</g>
	<g transform="matrix(1,0,0,1,1280.17,275.161)">
		<path fill="#231F20" d="M-41.852,25.045c-16.604,0-29.608-14.533-29.608-33.091c0-18.557,13.004-33.096,29.608-33.096
			c7.14,0,13.623,2.27,18.75,6.564c0.126,0.107,0.132,0.165,0.132,0.173c-0.161,0.196-0.305,0.334-0.446,0.473
			c-0.144,0.138-0.285,0.276-0.42,0.423c-0.248,0.245-0.521,0.53-0.734,0.775c-0.069,0.081-0.127,0.089-0.165,0.089
			c-0.069,0-0.132-0.037-0.158-0.061c-4.637-3.828-10.501-5.853-16.958-5.853c-15.156,0-27.031,13.405-27.031,30.513
			c0,17.108,11.875,30.51,27.031,30.51c7.69,0,14.594-2.914,19.436-8.202l0.19-0.173l-0.009-0.012
			c2.84-2.863,4.404-6.596,4.404-10.533c0-2.725-0.711-5.063-2.298-7.583c-0.104-0.155-0.102-0.213,0.014-0.374
			c0.346-0.493,0.749-0.994,1.207-1.556c0.124-0.155,0.222-0.273,0.312-0.392c0.006,0.006,0.055,0.049,0.109,0.135
			c2.27,3.313,3.237,6.236,3.237,9.77c0,4.608-1.809,8.972-5.112,12.318l-0.006-0.011l-0.196,0.207
			C-25.899,21.854-33.459,25.045-41.852,25.045"/>
	</g>
	<g transform="matrix(1,0,0,1,1287.35,365.913)">
		<path fill="#231F20" d="M-41.903-46.502c0-1.596-0.032-4.274-0.798-5.709c-0.671-1.25-1.878-1.688-2.327-1.814
			c-0.637-0.161-1.403-0.23-1.596-0.23h-2.442v20.242h2.541c1.02,0,1.88-0.161,2.773-0.766c1.469-1.055,1.849-2.708,1.849-5.997
			V-46.502z M-40.406-38.893c-0.126,1.912-0.446,3.635-1.976,4.948c-0.352,0.282-1.115,0.887-2.232,1.141
			c-0.734,0.195-1.627,0.195-1.786,0.195h-4.231v-23.076h3.208c2.045,0,4.087,0.162,5.519,1.844
			c1.244,1.504,1.532,3.549,1.532,7.373v5.564C-40.371-40.234-40.371-39.596-40.406-38.893"/>
	</g>
	<g transform="matrix(1,0,0,1,1306.08,352.154)">
		<path fill="#231F20" d="M-42.036-19.172c-1.146-5.934-3.632-18.848-3.948-20.53c-0.021-0.109-0.167-0.979-0.257-1.486
			c-0.066-0.356-0.316-0.495-0.579-0.495c-0.092,0-0.262-0.006-0.415-0.012h-0.279c-0.15,0.006-0.32,0.012-0.412,0.012
			c-0.265,0-0.516,0.139-0.579,0.495c-0.095,0.508-0.236,1.377-0.256,1.486c-0.317,1.683-2.802,14.597-3.949,20.53h1.523
			c1.077-5.576,3.206-16.636,3.782-19.648c0.571,3.013,2.702,14.072,3.779,19.648H-42.036z"/>
	</g>
	<g transform="matrix(1,0,0,1,1322.86,368.384)">
		<path fill="#231F20" d="M-42.157-51.427c0-1.717-0.104-3.721-1.192-5.018c-0.352-0.461-0.628-0.668-0.807-0.795
			c-0.628-0.501-1.503-0.916-3.146-0.916c-1.642,0-2.517,0.415-3.15,0.916c-0.173,0.127-0.449,0.334-0.807,0.795
			c-1.083,1.297-1.187,3.301-1.187,5.018v9.62c0,1.716,0.104,3.721,1.187,5.011c0.357,0.461,0.634,0.669,0.807,0.796
			c0.634,0.501,1.509,0.921,3.15,0.921c1.643,0,2.518-0.42,3.146-0.921c0.179-0.127,0.455-0.335,0.807-0.796
			c1.089-1.29,1.192-3.295,1.192-5.011v-4.545h-1.371v0.006h-3.197v1.521h3.048v3.019c0,1.578-0.104,3.162-0.83,4.044l-0.046,0.046
			c-0.23,0.299-0.392,0.414-0.483,0.483l-0.035,0.023l-0.022,0.022C-45.464-36.9-46.01-36.6-47.301-36.6
			c-1.284,0-1.837-0.3-2.2-0.588l-0.04-0.028l-0.023-0.018c-0.098-0.069-0.253-0.185-0.483-0.483l-0.04-0.052
			c-0.732-0.876-0.836-2.46-0.836-4.038v-9.62c0-1.584,0.104-3.168,0.836-4.044l0.04-0.052c0.23-0.3,0.38-0.409,0.483-0.478
			l0.063-0.047c0.363-0.294,0.916-0.593,2.2-0.593c1.291,0,1.838,0.299,2.207,0.593l0.028,0.023L-45.037-56
			c0.098,0.068,0.253,0.178,0.483,0.478l0.046,0.052c0.727,0.876,0.83,2.46,0.83,4.067h0.022l-0.022,0.022v0.847h1.521v-0.847
			l-0.029-0.022h0.029V-51.427z"/>
	</g>
</g>
</svg>
